<svg xmlns="http://www.w3.org/2000/svg" xmlns:xlink="http://www.w3.org/1999/xlink" width="500" zoomAndPan="magnify" viewBox="0 0 375 374.999991" height="500" preserveAspectRatio="xMidYMid meet" version="1.0"><defs><clipPath id="bdc1679404"><path d="M 0 11.589844 L 375 11.589844 L 375 337.839844 L 0 337.839844 Z M 0 11.589844 " clip-rule="nonzero"/></clipPath></defs><g clip-path="url(#bdc1679404)"><path fill="#ffffff" d="M 187.367188 337.363281 L 3.820312 337.363281 C 3.144531 337.367188 2.511719 337.199219 1.925781 336.863281 C 1.335938 336.527344 0.871094 336.070312 0.53125 335.484375 C 0.191406 334.898438 0.0234375 334.269531 0.0195312 333.589844 C 0.0195312 332.914062 0.1875 332.285156 0.527344 331.699219 L 92.214844 172.695312 L 184.074219 13.738281 C 184.242188 13.449219 184.445312 13.191406 184.683594 12.957031 C 184.917969 12.722656 185.183594 12.523438 185.472656 12.359375 C 185.761719 12.191406 186.066406 12.066406 186.386719 11.980469 C 186.707031 11.898438 187.035156 11.855469 187.367188 11.855469 C 187.699219 11.855469 188.027344 11.898438 188.351562 11.980469 C 188.671875 12.066406 188.976562 12.191406 189.265625 12.359375 C 189.554688 12.523438 189.816406 12.722656 190.054688 12.957031 C 190.289062 13.191406 190.492188 13.449219 190.660156 13.738281 L 282.4375 172.695312 L 374.210938 331.699219 C 374.546875 332.285156 374.714844 332.914062 374.714844 333.589844 C 374.714844 334.269531 374.542969 334.898438 374.203125 335.484375 C 373.863281 336.070312 373.398438 336.527344 372.8125 336.863281 C 372.226562 337.199219 371.59375 337.367188 370.917969 337.363281 Z M 187.367188 337.363281 " fill-opacity="1" fill-rule="nonzero"/></g></svg>