<svg xmlns="http://www.w3.org/2000/svg" xmlns:xlink="http://www.w3.org/1999/xlink" width="500" zoomAndPan="magnify" viewBox="0 0 375 374.999991" height="500" preserveAspectRatio="xMidYMid meet" version="1.0"><defs><g/></defs><g fill="#6a8af8" fill-opacity="1"><g transform="translate(45.257397, 333.110068)"><g><path d="M 0 -316.375 L 130.65625 -316.375 C 127.070312 -312.363281 124.273438 -307.25 122.265625 -301.03125 C 120.265625 -294.8125 119.265625 -288.429688 119.265625 -281.890625 C 119.265625 -277.878906 119.84375 -270.914062 121 -261 C 122.164062 -251.09375 123.851562 -239.390625 126.0625 -225.890625 C 128.28125 -212.390625 130.863281 -198.203125 133.8125 -183.328125 C 136.769531 -168.460938 139.988281 -153.859375 143.46875 -139.515625 C 146.957031 -125.179688 150.703125 -112.160156 154.703125 -100.453125 C 158.710938 -88.742188 162.828125 -79.410156 167.046875 -72.453125 C 171.265625 -65.492188 175.484375 -62.015625 179.703125 -62.015625 C 185.179688 -62.015625 189.503906 -64.332031 192.671875 -68.96875 C 195.835938 -73.613281 198.101562 -79.675781 199.46875 -87.15625 C 200.84375 -94.644531 201.53125 -102.609375 201.53125 -111.046875 C 201.53125 -123.703125 199.945312 -136.039062 196.78125 -148.0625 C 193.625 -160.082031 189.722656 -171.785156 185.078125 -183.171875 C 180.441406 -194.566406 175.75 -205.800781 171 -216.875 C 166.25 -227.945312 162.289062 -238.96875 159.125 -249.9375 C 155.96875 -260.90625 154.390625 -271.875 154.390625 -282.84375 C 154.390625 -287.90625 155.019531 -293.019531 156.28125 -298.1875 C 157.550781 -303.351562 159.875 -307.675781 163.25 -311.15625 C 166.625 -314.632812 171.367188 -316.375 177.484375 -316.375 L 284.421875 -316.375 C 277.878906 -311.101562 272.601562 -302.820312 268.59375 -291.53125 C 264.59375 -280.25 260.585938 -268.070312 256.578125 -255 C 250.253906 -233.488281 244.71875 -213.875 239.96875 -196.15625 C 235.226562 -178.4375 231.007812 -161.191406 227.3125 -144.421875 C 223.625 -127.648438 220.039062 -110.195312 216.5625 -92.0625 C 213.082031 -73.925781 209.335938 -53.890625 205.328125 -31.953125 C 204.273438 -25.835938 204.328125 -19.828125 205.484375 -13.921875 C 206.640625 -8.015625 208.90625 -3.375 212.28125 0 L 72.140625 0 C 75.722656 -3.375 78.039062 -8.015625 79.09375 -13.921875 C 80.144531 -19.828125 80.144531 -25.835938 79.09375 -31.953125 C 75.082031 -53.890625 71.335938 -73.925781 67.859375 -92.0625 C 64.378906 -110.195312 60.789062 -127.648438 57.09375 -144.421875 C 53.40625 -161.191406 49.1875 -178.4375 44.4375 -196.15625 C 39.695312 -213.875 34.164062 -233.488281 27.84375 -255 C 23.832031 -268.070312 19.820312 -280.25 15.8125 -291.53125 C 11.8125 -302.820312 6.539062 -311.101562 0 -316.375 Z M 0 -316.375 "/></g></g></g></svg>