<svg xmlns="http://www.w3.org/2000/svg" xmlns:xlink="http://www.w3.org/1999/xlink" width="800" zoomAndPan="magnify" viewBox="0 0 600 149.999998" height="200" preserveAspectRatio="xMidYMid meet" version="1.0"><defs><g/></defs><g fill="#ffffff" fill-opacity="1"><g transform="translate(2.639451, 110.088281)"><g><path d="M 0 -102.6875 L 42.40625 -102.6875 C 41.25 -101.382812 40.34375 -99.722656 39.6875 -97.703125 C 39.039062 -95.679688 38.71875 -93.613281 38.71875 -91.5 C 38.71875 -90.195312 38.90625 -87.9375 39.28125 -84.71875 C 39.65625 -81.5 40.203125 -77.695312 40.921875 -73.3125 C 41.640625 -68.9375 42.476562 -64.332031 43.4375 -59.5 C 44.394531 -54.675781 45.4375 -49.9375 46.5625 -45.28125 C 47.695312 -40.625 48.914062 -36.394531 50.21875 -32.59375 C 51.519531 -28.800781 52.851562 -25.773438 54.21875 -23.515625 C 55.582031 -21.253906 56.953125 -20.125 58.328125 -20.125 C 60.109375 -20.125 61.507812 -20.875 62.53125 -22.375 C 63.5625 -23.882812 64.296875 -25.851562 64.734375 -28.28125 C 65.179688 -30.71875 65.40625 -33.304688 65.40625 -36.046875 C 65.40625 -40.148438 64.890625 -44.148438 63.859375 -48.046875 C 62.835938 -51.953125 61.570312 -55.753906 60.0625 -59.453125 C 58.5625 -63.148438 57.039062 -66.796875 55.5 -70.390625 C 53.957031 -73.984375 52.671875 -77.5625 51.640625 -81.125 C 50.617188 -84.6875 50.109375 -88.242188 50.109375 -91.796875 C 50.109375 -93.441406 50.3125 -95.101562 50.71875 -96.78125 C 51.132812 -98.457031 51.890625 -99.859375 52.984375 -100.984375 C 54.078125 -102.117188 55.617188 -102.6875 57.609375 -102.6875 L 92.3125 -102.6875 C 90.195312 -100.976562 88.488281 -98.289062 87.1875 -94.625 C 85.882812 -90.96875 84.582031 -87.015625 83.28125 -82.765625 C 81.226562 -75.785156 79.429688 -69.421875 77.890625 -63.671875 C 76.347656 -57.921875 74.976562 -52.320312 73.78125 -46.875 C 72.582031 -41.4375 71.414062 -35.769531 70.28125 -29.875 C 69.15625 -23.988281 67.941406 -17.488281 66.640625 -10.375 C 66.296875 -8.382812 66.3125 -6.429688 66.6875 -4.515625 C 67.070312 -2.597656 67.8125 -1.09375 68.90625 0 L 23.40625 0 C 24.570312 -1.09375 25.328125 -2.597656 25.671875 -4.515625 C 26.015625 -6.429688 26.015625 -8.382812 25.671875 -10.375 C 24.367188 -17.488281 23.148438 -23.988281 22.015625 -29.875 C 20.890625 -35.769531 19.726562 -41.4375 18.53125 -46.875 C 17.332031 -52.320312 15.960938 -57.921875 14.421875 -63.671875 C 12.878906 -69.421875 11.082031 -75.785156 9.03125 -82.765625 C 7.726562 -87.015625 6.425781 -90.96875 5.125 -94.625 C 3.832031 -98.289062 2.125 -100.976562 0 -102.6875 Z M 0 -102.6875 "/></g></g></g><g fill="#ffffff" fill-opacity="1"><g transform="translate(94.928143, 110.088281)"><g><path d="M 2.5625 -51.34375 C 2.5625 -56.40625 3.039062 -61.46875 4 -66.53125 C 4.957031 -71.601562 6.425781 -76.394531 8.40625 -80.90625 C 10.394531 -85.425781 12.863281 -89.429688 15.8125 -92.921875 C 18.757812 -96.421875 22.234375 -99.179688 26.234375 -101.203125 C 30.242188 -103.222656 34.78125 -104.234375 39.84375 -104.234375 C 42.507812 -104.234375 45.054688 -103.890625 47.484375 -103.203125 C 49.921875 -102.515625 52.421875 -101.828125 54.984375 -101.140625 C 57.554688 -100.460938 60.378906 -100.125 63.453125 -100.125 C 65.859375 -100.125 67.757812 -100.460938 69.15625 -101.140625 C 70.5625 -101.828125 71.757812 -102.515625 72.75 -103.203125 C 73.75 -103.890625 74.757812 -104.234375 75.78125 -104.234375 C 77.15625 -104.234375 77.941406 -103.460938 78.140625 -101.921875 C 78.347656 -100.378906 78.191406 -98.460938 77.671875 -96.171875 C 77.160156 -93.878906 76.425781 -91.601562 75.46875 -89.34375 C 74.789062 -87.757812 73.800781 -85.890625 72.5 -83.734375 C 71.195312 -81.578125 69.585938 -79.710938 67.671875 -78.140625 C 65.753906 -76.566406 63.5625 -75.78125 61.09375 -75.78125 C 57.46875 -75.78125 54.234375 -76.191406 51.390625 -77.015625 C 48.554688 -77.835938 45.957031 -78.863281 43.59375 -80.09375 C 41.226562 -81.320312 38.96875 -82.550781 36.8125 -83.78125 C 34.65625 -85.019531 32.445312 -86.050781 30.1875 -86.875 C 27.925781 -87.695312 25.460938 -88.109375 22.796875 -88.109375 C 21.085938 -88.109375 19.679688 -87.644531 18.578125 -86.71875 C 17.484375 -85.789062 16.628906 -84.640625 16.015625 -83.265625 C 15.398438 -81.898438 14.972656 -80.535156 14.734375 -79.171875 C 14.492188 -77.804688 14.375 -76.644531 14.375 -75.6875 C 14.375 -75.207031 14.359375 -74.332031 14.328125 -73.0625 C 14.296875 -71.789062 14.296875 -70.453125 14.328125 -69.046875 C 14.359375 -67.648438 14.523438 -66.453125 14.828125 -65.453125 C 15.140625 -64.460938 15.640625 -63.96875 16.328125 -63.96875 C 17.359375 -63.96875 18.398438 -64.410156 19.453125 -65.296875 C 20.515625 -66.191406 21.9375 -67.082031 23.71875 -67.96875 C 25.5 -68.863281 27.894531 -69.3125 30.90625 -69.3125 C 33.4375 -69.3125 35.898438 -68.882812 38.296875 -68.03125 C 40.691406 -67.175781 43.019531 -66.195312 45.28125 -65.09375 C 47.539062 -64 49.75 -63.023438 51.90625 -62.171875 C 54.0625 -61.316406 56.132812 -60.890625 58.125 -60.890625 C 59.695312 -60.890625 60.925781 -61.234375 61.8125 -61.921875 C 62.707031 -62.609375 63.425781 -63.273438 63.96875 -63.921875 C 64.519531 -64.578125 65.070312 -64.90625 65.625 -64.90625 C 66.4375 -64.90625 67.066406 -64.335938 67.515625 -63.203125 C 67.960938 -62.078125 68.1875 -60.691406 68.1875 -59.046875 C 68.1875 -57.335938 67.859375 -55.488281 67.203125 -53.5 C 66.554688 -51.507812 65.53125 -49.625 64.125 -47.84375 C 62.71875 -46.070312 60.898438 -44.617188 58.671875 -43.484375 C 56.453125 -42.359375 53.769531 -41.796875 50.625 -41.796875 C 47.613281 -41.796875 44.875 -42.425781 42.40625 -43.6875 C 39.945312 -44.957031 37.707031 -46.515625 35.6875 -48.359375 C 33.664062 -50.210938 31.78125 -52.046875 30.03125 -53.859375 C 28.289062 -55.671875 26.597656 -57.207031 24.953125 -58.46875 C 23.304688 -59.738281 21.628906 -60.375 19.921875 -60.375 C 18.828125 -60.375 18.109375 -60.03125 17.765625 -59.34375 C 17.421875 -58.664062 17.28125 -57.878906 17.34375 -56.984375 C 17.414062 -56.097656 17.554688 -55.3125 17.765625 -54.625 C 19.816406 -48.332031 22.640625 -42.769531 26.234375 -37.9375 C 29.828125 -33.113281 33.882812 -29.332031 38.40625 -26.59375 C 42.925781 -23.851562 47.546875 -22.484375 52.265625 -22.484375 C 55.890625 -22.484375 58.863281 -22.992188 61.1875 -24.015625 C 63.519531 -25.046875 65.421875 -26.316406 66.890625 -27.828125 C 68.367188 -29.335938 69.566406 -30.84375 70.484375 -32.34375 C 71.410156 -33.851562 72.269531 -35.117188 73.0625 -36.140625 C 73.851562 -37.171875 74.757812 -37.6875 75.78125 -37.6875 C 76.394531 -37.6875 76.972656 -37.359375 77.515625 -36.703125 C 78.066406 -36.054688 78.34375 -34.535156 78.34375 -32.140625 C 78.34375 -28.648438 77.585938 -24.953125 76.078125 -21.046875 C 74.578125 -17.148438 72.375 -13.488281 69.46875 -10.0625 C 66.5625 -6.632812 62.984375 -3.84375 58.734375 -1.6875 C 54.492188 0.46875 49.632812 1.546875 44.15625 1.546875 C 38.40625 1.546875 33.015625 0.453125 27.984375 -1.734375 C 22.953125 -3.929688 18.535156 -7.21875 14.734375 -11.59375 C 10.929688 -15.976562 7.953125 -21.488281 5.796875 -28.125 C 3.640625 -34.769531 2.5625 -42.507812 2.5625 -51.34375 Z M 2.5625 -51.34375 "/></g></g></g><g fill="#ffffff" fill-opacity="1"><g transform="translate(175.308624, 110.088281)"><g><path d="M 1.03125 0 C 2.394531 -1.363281 3.332031 -2.988281 3.84375 -4.875 C 4.363281 -6.757812 4.625 -9.171875 4.625 -12.109375 L 4.625 -90.578125 C 4.625 -93.515625 4.363281 -95.925781 3.84375 -97.8125 C 3.332031 -99.695312 2.394531 -101.320312 1.03125 -102.6875 L 31.625 -102.6875 C 33.40625 -102.6875 34.945312 -102.359375 36.25 -101.703125 C 37.550781 -101.054688 38.816406 -99.6875 40.046875 -97.59375 C 41.273438 -95.507812 42.660156 -92.429688 44.203125 -88.359375 C 45.742188 -84.285156 47.679688 -78.789062 50.015625 -71.875 L 59.65625 -43.125 C 60.613281 -40.320312 61.554688 -37.53125 62.484375 -34.75 C 63.410156 -31.976562 64.332031 -29.445312 65.25 -27.15625 C 66.175781 -24.863281 67.117188 -23.03125 68.078125 -21.65625 C 69.035156 -20.289062 69.960938 -19.609375 70.859375 -19.609375 C 72.015625 -19.609375 72.847656 -20.207031 73.359375 -21.40625 C 73.878906 -22.601562 74.222656 -24.070312 74.390625 -25.8125 C 74.566406 -27.5625 74.65625 -29.226562 74.65625 -30.8125 C 74.65625 -37.382812 73.867188 -43.304688 72.296875 -48.578125 C 70.722656 -53.847656 68.785156 -58.617188 66.484375 -62.890625 C 64.191406 -67.171875 61.878906 -71.070312 59.546875 -74.59375 C 57.222656 -78.125 55.273438 -81.445312 53.703125 -84.5625 C 52.128906 -87.675781 51.34375 -90.707031 51.34375 -93.65625 C 51.34375 -96.800781 52.488281 -99.09375 54.78125 -100.53125 C 57.070312 -101.96875 59.722656 -102.6875 62.734375 -102.6875 L 84.203125 -102.6875 C 82.835938 -101.320312 81.894531 -99.695312 81.375 -97.8125 C 80.863281 -95.925781 80.609375 -93.515625 80.609375 -90.578125 L 80.609375 -12.109375 C 80.609375 -9.171875 80.863281 -6.757812 81.375 -4.875 C 81.894531 -2.988281 82.835938 -1.363281 84.203125 0 L 57.296875 0 C 54.359375 0 51.828125 -0.734375 49.703125 -2.203125 C 47.578125 -3.679688 45.78125 -5.6875 44.3125 -8.21875 C 42.84375 -10.75 41.523438 -13.601562 40.359375 -16.78125 C 39.191406 -19.96875 38.023438 -23.304688 36.859375 -26.796875 C 36.179688 -28.847656 35.328125 -31.363281 34.296875 -34.34375 C 33.265625 -37.320312 32.1875 -40.4375 31.0625 -43.6875 C 29.9375 -46.945312 28.875 -49.976562 27.875 -52.78125 C 26.882812 -55.582031 26.113281 -57.84375 25.5625 -59.5625 C 24.601562 -62.363281 23.660156 -65.148438 22.734375 -67.921875 C 21.816406 -70.703125 20.894531 -73.238281 19.96875 -75.53125 C 19.050781 -77.820312 18.128906 -79.648438 17.203125 -81.015625 C 16.273438 -82.390625 15.332031 -83.078125 14.375 -83.078125 C 13.28125 -83.078125 12.457031 -82.476562 11.90625 -81.28125 C 11.363281 -80.082031 11.003906 -78.609375 10.828125 -76.859375 C 10.660156 -75.117188 10.578125 -73.457031 10.578125 -71.875 C 10.578125 -65.300781 11.363281 -59.378906 12.9375 -54.109375 C 14.507812 -48.835938 16.457031 -44.0625 18.78125 -39.78125 C 21.113281 -35.507812 23.425781 -31.609375 25.71875 -28.078125 C 28.007812 -24.554688 29.941406 -21.238281 31.515625 -18.125 C 33.097656 -15.007812 33.890625 -11.976562 33.890625 -9.03125 C 33.890625 -5.882812 32.738281 -3.59375 30.4375 -2.15625 C 28.144531 -0.71875 25.492188 0 22.484375 0 Z M 1.03125 0 "/></g></g></g><g fill="#ffffff" fill-opacity="1"><g transform="translate(260.513998, 110.088281)"><g><path d="M 44.15625 1.546875 C 38.40625 1.546875 33.015625 0.453125 27.984375 -1.734375 C 22.953125 -3.929688 18.535156 -7.21875 14.734375 -11.59375 C 10.929688 -15.976562 7.953125 -21.488281 5.796875 -28.125 C 3.640625 -34.769531 2.5625 -42.507812 2.5625 -51.34375 C 2.5625 -56.40625 3.039062 -61.46875 4 -66.53125 C 4.957031 -71.601562 6.425781 -76.394531 8.40625 -80.90625 C 10.394531 -85.425781 12.863281 -89.429688 15.8125 -92.921875 C 18.757812 -96.421875 22.234375 -99.179688 26.234375 -101.203125 C 30.242188 -103.222656 34.78125 -104.234375 39.84375 -104.234375 C 42.507812 -104.234375 45.054688 -103.890625 47.484375 -103.203125 C 49.921875 -102.515625 52.421875 -101.828125 54.984375 -101.140625 C 57.554688 -100.460938 60.378906 -100.125 63.453125 -100.125 C 65.859375 -100.125 67.757812 -100.460938 69.15625 -101.140625 C 70.5625 -101.828125 71.757812 -102.515625 72.75 -103.203125 C 73.75 -103.890625 74.757812 -104.234375 75.78125 -104.234375 C 77.15625 -104.234375 77.941406 -103.460938 78.140625 -101.921875 C 78.347656 -100.378906 78.191406 -98.460938 77.671875 -96.171875 C 77.160156 -93.878906 76.425781 -91.601562 75.46875 -89.34375 C 74.988281 -88.238281 74.375 -87.003906 73.625 -85.640625 C 72.875 -84.273438 71.984375 -82.90625 70.953125 -81.53125 C 69.859375 -80.09375 68.523438 -78.566406 66.953125 -76.953125 C 65.378906 -75.347656 63.851562 -73.65625 62.375 -71.875 C 60.90625 -70.101562 59.675781 -68.289062 58.6875 -66.4375 C 57.695312 -64.59375 57.203125 -62.742188 57.203125 -60.890625 C 57.203125 -59.179688 57.75 -57.691406 58.84375 -56.421875 C 59.9375 -55.160156 61.375 -54.53125 63.15625 -54.53125 C 64.25 -54.53125 64.894531 -54.695312 65.09375 -55.03125 C 65.300781 -55.375 65.679688 -55.546875 66.234375 -55.546875 C 67.054688 -55.546875 67.640625 -54.863281 67.984375 -53.5 C 68.328125 -52.132812 68.5 -50.9375 68.5 -49.90625 C 68.5 -47.375 67.742188 -44.976562 66.234375 -42.71875 C 64.722656 -40.457031 62.71875 -38.625 60.21875 -37.21875 C 57.726562 -35.820312 55.046875 -35.125 52.171875 -35.125 C 49.429688 -35.125 46.894531 -35.789062 44.5625 -37.125 C 42.238281 -38.457031 40.375 -40.234375 38.96875 -42.453125 C 37.5625 -44.679688 36.859375 -47.164062 36.859375 -49.90625 C 36.859375 -52.988281 37.578125 -55.65625 39.015625 -57.90625 C 40.453125 -60.164062 42.210938 -62.117188 44.296875 -63.765625 C 46.390625 -65.410156 48.5 -66.8125 50.625 -67.96875 C 52.75 -69.132812 54.53125 -70.179688 55.96875 -71.109375 C 57.40625 -72.035156 58.125 -72.910156 58.125 -73.734375 C 58.125 -75.035156 57.164062 -75.851562 55.25 -76.1875 C 51.757812 -76.738281 48.644531 -77.664062 45.90625 -78.96875 C 43.164062 -80.269531 40.597656 -81.617188 38.203125 -83.015625 C 35.804688 -84.421875 33.375 -85.617188 30.90625 -86.609375 C 28.445312 -87.609375 25.742188 -88.109375 22.796875 -88.109375 C 21.085938 -88.109375 19.679688 -87.644531 18.578125 -86.71875 C 17.484375 -85.789062 16.628906 -84.640625 16.015625 -83.265625 C 15.398438 -81.898438 14.972656 -80.535156 14.734375 -79.171875 C 14.492188 -77.804688 14.375 -76.644531 14.375 -75.6875 C 14.375 -71.4375 14.90625 -66.894531 15.96875 -62.0625 C 17.03125 -57.238281 18.585938 -52.5 20.640625 -47.84375 C 22.691406 -43.195312 25.238281 -38.957031 28.28125 -35.125 C 31.332031 -31.289062 34.859375 -28.222656 38.859375 -25.921875 C 42.867188 -23.628906 47.335938 -22.484375 52.265625 -22.484375 C 55.890625 -22.484375 58.863281 -22.992188 61.1875 -24.015625 C 63.519531 -25.046875 65.421875 -26.316406 66.890625 -27.828125 C 68.367188 -29.335938 69.566406 -30.84375 70.484375 -32.34375 C 71.410156 -33.851562 72.269531 -35.117188 73.0625 -36.140625 C 73.851562 -37.171875 74.757812 -37.6875 75.78125 -37.6875 C 76.394531 -37.6875 76.972656 -37.359375 77.515625 -36.703125 C 78.066406 -36.054688 78.34375 -34.535156 78.34375 -32.140625 C 78.34375 -28.859375 77.585938 -25.265625 76.078125 -21.359375 C 74.578125 -17.453125 72.375 -13.769531 69.46875 -10.3125 C 66.5625 -6.863281 62.984375 -4.023438 58.734375 -1.796875 C 54.492188 0.429688 49.632812 1.546875 44.15625 1.546875 Z M 44.15625 1.546875 "/></g></g></g><g fill="#ffffff" fill-opacity="1"><g transform="translate(340.89448, 110.088281)"><g><path d="M 5.34375 -90.578125 C 5.34375 -93.515625 5.066406 -95.925781 4.515625 -97.8125 C 3.972656 -99.695312 2.8125 -101.320312 1.03125 -102.6875 L 31.625 -102.6875 C 33.0625 -102.6875 34.257812 -102.207031 35.21875 -101.25 C 36.175781 -100.289062 36.910156 -99.125 37.421875 -97.75 C 37.941406 -96.382812 38.203125 -95.050781 38.203125 -93.75 C 38.203125 -89.988281 37.53125 -86.460938 36.1875 -83.171875 C 34.851562 -79.890625 33.125 -76.773438 31 -73.828125 C 28.882812 -70.890625 26.644531 -68.03125 24.28125 -65.25 C 21.925781 -62.476562 19.6875 -59.707031 17.5625 -56.9375 C 15.4375 -54.164062 13.707031 -51.289062 12.375 -48.3125 C 11.039062 -45.332031 10.375 -42.164062 10.375 -38.8125 C 10.375 -35.53125 11.109375 -32.757812 12.578125 -30.5 C 14.046875 -28.238281 15.960938 -26.40625 18.328125 -25 C 20.691406 -23.601562 23.257812 -22.578125 26.03125 -21.921875 C 28.800781 -21.273438 31.488281 -20.953125 34.09375 -20.953125 C 37.519531 -20.953125 40.632812 -21.6875 43.4375 -23.15625 C 46.238281 -24.625 48.476562 -26.78125 50.15625 -29.625 C 51.832031 -32.46875 52.671875 -35.976562 52.671875 -40.15625 L 52.671875 -90.578125 C 52.671875 -93.515625 52.394531 -95.925781 51.84375 -97.8125 C 51.300781 -99.695312 50.140625 -101.320312 48.359375 -102.6875 L 83.6875 -102.6875 C 81.976562 -101.320312 80.832031 -99.695312 80.25 -97.8125 C 79.664062 -95.925781 79.375 -93.515625 79.375 -90.578125 L 79.375 -37.890625 C 79.375 -31.585938 78.585938 -26.175781 77.015625 -21.65625 C 75.441406 -17.144531 73.316406 -13.382812 70.640625 -10.375 C 67.972656 -7.363281 65.015625 -4.984375 61.765625 -3.234375 C 58.515625 -1.484375 55.191406 -0.25 51.796875 0.46875 C 48.410156 1.1875 45.210938 1.546875 42.203125 1.546875 C 39.191406 1.546875 36.007812 1.1875 32.65625 0.46875 C 29.300781 -0.25 26.015625 -1.484375 22.796875 -3.234375 C 19.578125 -4.984375 16.648438 -7.363281 14.015625 -10.375 C 11.378906 -13.382812 9.273438 -17.144531 7.703125 -21.65625 C 6.128906 -26.175781 5.34375 -31.585938 5.34375 -37.890625 Z M 5.34375 -90.578125 "/></g></g></g><g fill="#ffffff" fill-opacity="1"><g transform="translate(425.58656, 110.088281)"><g><path d="M 1.03125 -102.6875 L 42.40625 -102.6875 C 50.757812 -102.6875 57.453125 -101.367188 62.484375 -98.734375 C 67.515625 -96.097656 71.175781 -92.535156 73.46875 -88.046875 C 75.757812 -83.566406 76.90625 -78.554688 76.90625 -73.015625 C 76.90625 -69.046875 76.375 -65.125 75.3125 -61.25 C 74.257812 -57.382812 72.566406 -53.894531 70.234375 -50.78125 C 67.910156 -47.664062 64.929688 -45.164062 61.296875 -43.28125 C 57.671875 -41.394531 53.289062 -40.453125 48.15625 -40.453125 C 44.257812 -40.453125 40.890625 -41.015625 38.046875 -42.140625 C 35.203125 -43.273438 32.753906 -44.679688 30.703125 -46.359375 C 28.648438 -48.035156 26.851562 -49.726562 25.3125 -51.4375 C 23.769531 -53.15625 22.398438 -54.578125 21.203125 -55.703125 C 20.003906 -56.835938 18.820312 -57.40625 17.65625 -57.40625 C 16.289062 -57.40625 15.367188 -57.0625 14.890625 -56.375 C 14.410156 -55.6875 14.171875 -54.929688 14.171875 -54.109375 C 14.171875 -52.742188 14.890625 -51.375 16.328125 -50 C 17.765625 -48.632812 19.695312 -47.300781 22.125 -46 C 24.5625 -44.695312 27.25 -43.445312 30.1875 -42.25 C 33.132812 -41.050781 36.078125 -39.875 39.015625 -38.71875 C 42.035156 -37.613281 45.238281 -36.394531 48.625 -35.0625 C 52.007812 -33.726562 55.3125 -32.238281 58.53125 -30.59375 C 61.75 -28.957031 64.65625 -27.109375 67.25 -25.046875 C 69.851562 -22.992188 71.941406 -20.664062 73.515625 -18.0625 C 75.097656 -15.46875 75.890625 -12.5625 75.890625 -9.34375 C 75.890625 -6.0625 75.390625 -3.679688 74.390625 -2.203125 C 73.398438 -0.734375 71.640625 0 69.109375 0 L 46.921875 0 C 46.242188 0 45.578125 -0.171875 44.921875 -0.515625 C 44.273438 -0.859375 43.953125 -1.472656 43.953125 -2.359375 C 43.953125 -3.585938 44.101562 -4.664062 44.40625 -5.59375 C 44.71875 -6.519531 45.007812 -7.515625 45.28125 -8.578125 C 45.5625 -9.640625 45.703125 -11.023438 45.703125 -12.734375 C 45.703125 -14.992188 45 -17.375 43.59375 -19.875 C 42.1875 -22.375 40.335938 -24.835938 38.046875 -27.265625 C 35.753906 -29.691406 33.269531 -31.984375 30.59375 -34.140625 C 27.925781 -36.296875 25.328125 -38.210938 22.796875 -39.890625 C 20.265625 -41.566406 18.003906 -42.882812 16.015625 -43.84375 C 14.035156 -44.800781 12.632812 -45.28125 11.8125 -45.28125 C 11.125 -45.28125 10.640625 -45.003906 10.359375 -44.453125 C 10.085938 -43.910156 9.953125 -43.503906 9.953125 -43.234375 C 9.953125 -41.523438 10.617188 -39.984375 11.953125 -38.609375 C 13.296875 -37.242188 15.023438 -35.910156 17.140625 -34.609375 C 19.265625 -33.304688 21.507812 -31.914062 23.875 -30.4375 C 26.238281 -28.96875 28.460938 -27.304688 30.546875 -25.453125 C 32.640625 -23.609375 34.351562 -21.453125 35.6875 -18.984375 C 37.019531 -16.523438 37.6875 -13.65625 37.6875 -10.375 C 37.6875 -9 37.425781 -7.503906 36.90625 -5.890625 C 36.394531 -4.285156 35.609375 -2.898438 34.546875 -1.734375 C 33.492188 -0.578125 32.109375 0 30.390625 0 L 1.125 0 C 2.5 -1.363281 3.441406 -2.988281 3.953125 -4.875 C 4.460938 -6.757812 4.71875 -9.171875 4.71875 -12.109375 L 4.71875 -29.671875 L 4.625 -51.34375 L 4.625 -90.578125 C 4.625 -93.515625 4.363281 -95.925781 3.84375 -97.8125 C 3.332031 -99.695312 2.394531 -101.320312 1.03125 -102.6875 Z M 36.453125 -81.21875 C 33.847656 -81.21875 31.003906 -81.113281 27.921875 -80.90625 C 24.847656 -80.707031 21.941406 -80.28125 19.203125 -79.625 C 16.460938 -78.976562 14.21875 -77.96875 12.46875 -76.59375 C 10.726562 -75.226562 9.859375 -73.382812 9.859375 -71.0625 C 9.859375 -68.726562 10.78125 -66.894531 12.625 -65.5625 C 14.476562 -64.226562 16.925781 -63.21875 19.96875 -62.53125 C 23.019531 -61.851562 26.34375 -61.410156 29.9375 -61.203125 C 33.53125 -60.992188 37.109375 -60.890625 40.671875 -60.890625 C 44.222656 -60.890625 47.8125 -60.992188 51.4375 -61.203125 C 55.070312 -61.410156 58.410156 -61.851562 61.453125 -62.53125 C 64.503906 -63.21875 66.953125 -64.226562 68.796875 -65.5625 C 70.648438 -66.894531 71.578125 -68.726562 71.578125 -71.0625 C 71.578125 -72.90625 70.820312 -74.441406 69.3125 -75.671875 C 67.8125 -76.910156 65.8125 -77.90625 63.3125 -78.65625 C 60.8125 -79.40625 58.019531 -79.953125 54.9375 -80.296875 C 51.851562 -80.640625 48.703125 -80.878906 45.484375 -81.015625 C 42.273438 -81.148438 39.265625 -81.21875 36.453125 -81.21875 Z M 36.453125 -81.21875 "/></g></g></g><g fill="#ffffff" fill-opacity="1"><g transform="translate(505.043134, 110.088281)"><g><path d="M 0 0 C 2.125 -1.78125 3.832031 -4.484375 5.125 -8.109375 C 6.425781 -11.742188 7.726562 -15.679688 9.03125 -19.921875 C 11.082031 -26.898438 12.878906 -33.265625 14.421875 -39.015625 C 15.960938 -44.765625 17.332031 -50.359375 18.53125 -55.796875 C 19.726562 -61.242188 20.890625 -66.910156 22.015625 -72.796875 C 23.148438 -78.691406 24.367188 -85.195312 25.671875 -92.3125 C 26.015625 -94.300781 26.015625 -96.253906 25.671875 -98.171875 C 25.328125 -100.085938 24.570312 -101.59375 23.40625 -102.6875 L 68.90625 -102.6875 C 67.8125 -101.59375 67.070312 -100.085938 66.6875 -98.171875 C 66.3125 -96.253906 66.296875 -94.300781 66.640625 -92.3125 C 67.941406 -85.195312 69.15625 -78.691406 70.28125 -72.796875 C 71.414062 -66.910156 72.582031 -61.242188 73.78125 -55.796875 C 74.976562 -50.359375 76.347656 -44.765625 77.890625 -39.015625 C 79.429688 -33.265625 81.226562 -26.898438 83.28125 -19.921875 C 84.582031 -15.679688 85.882812 -11.742188 87.1875 -8.109375 C 88.488281 -4.484375 90.195312 -1.78125 92.3125 0 L 49.90625 0 C 51.070312 -1.363281 51.976562 -3.039062 52.625 -5.03125 C 53.28125 -7.019531 53.609375 -9.070312 53.609375 -11.1875 C 53.609375 -12.90625 53.296875 -16.085938 52.671875 -20.734375 C 52.054688 -25.390625 51.238281 -30.628906 50.21875 -36.453125 L 35.125 -36.453125 C 36.894531 -32.140625 38.515625 -27.859375 39.984375 -23.609375 C 41.460938 -19.367188 42.203125 -15.128906 42.203125 -10.890625 C 42.203125 -9.304688 41.992188 -7.660156 41.578125 -5.953125 C 41.171875 -4.242188 40.4375 -2.820312 39.375 -1.6875 C 38.3125 -0.5625 36.753906 0 34.703125 0 Z M 33.171875 -41.078125 L 49.296875 -41.078125 C 48.335938 -46.003906 47.273438 -50.914062 46.109375 -55.8125 C 44.941406 -60.707031 43.691406 -65.171875 42.359375 -69.203125 C 41.023438 -73.242188 39.65625 -76.476562 38.25 -78.90625 C 36.84375 -81.34375 35.421875 -82.5625 33.984375 -82.5625 C 32.203125 -82.5625 30.796875 -81.804688 29.765625 -80.296875 C 28.742188 -78.796875 28.007812 -76.828125 27.5625 -74.390625 C 27.125 -71.960938 26.90625 -69.378906 26.90625 -66.640625 C 26.90625 -62.117188 27.535156 -57.738281 28.796875 -53.5 C 30.066406 -49.257812 31.523438 -45.117188 33.171875 -41.078125 Z M 33.171875 -41.078125 "/></g></g></g></svg>