<svg xmlns="http://www.w3.org/2000/svg" xmlns:xlink="http://www.w3.org/1999/xlink" width="500" zoomAndPan="magnify" viewBox="0 0 375 374.999991" height="500" preserveAspectRatio="xMidYMid meet" version="1.0"><defs><clipPath id="2e0b6f5b51"><path d="M 1 25 L 375 25 L 375 350.863281 L 1 350.863281 Z M 1 25 " clip-rule="nonzero"/></clipPath></defs><path fill="#b9dc32" d="M 49.886719 333.378906 C 48.90625 336.234375 46.226562 340.070312 39.175781 342.566406 C 36.675781 343.460938 34.175781 343.90625 31.675781 343.90625 C 24.535156 343.90625 18.285156 339.980469 14 332.933594 C 12.75 330.792969 11.589844 328.5625 10.429688 326.421875 C 9.894531 325.441406 9.804688 324.550781 9.714844 323.925781 C 9.714844 323.65625 9.714844 323.390625 9.625 323.121094 L 8.824219 317.683594 L 14.179688 319.199219 C 16.679688 319.910156 19.179688 320.269531 21.5 320.269531 C 26.855469 320.269531 32.121094 318.394531 37.390625 314.648438 L 39.890625 312.867188 L 42.03125 315.007812 C 42.476562 315.453125 43.015625 315.898438 43.640625 316.433594 C 45.15625 317.769531 46.851562 319.199219 48.011719 321.25 C 51.136719 326.601562 50.78125 330.792969 49.886719 333.378906 Z M 330.558594 213.140625 C 329.84375 221.792969 328.414062 231.875 324.21875 241.507812 C 323.148438 243.914062 322.078125 246.414062 321.09375 248.820312 C 318.773438 254.261719 316.453125 259.882812 313.597656 265.234375 C 310.5625 270.765625 306.542969 276.382812 301.367188 282.269531 C 296.722656 287.621094 291.101562 293.867188 284.582031 298.949219 C 274.851562 306.53125 263.246094 313.578125 250.125 319.824219 C 245.75 321.875 240.839844 323.570312 235.484375 324.730469 C 221.824219 327.761719 207.542969 329.1875 191.917969 329.1875 C 190.9375 329.1875 189.953125 329.1875 189.0625 329.1875 C 177.101562 329.011719 166.121094 328.296875 155.316406 327.136719 C 142.910156 325.710938 131.660156 322.320312 119.164062 318.394531 C 110.59375 315.628906 101.933594 311.792969 93.453125 307.066406 C 81.132812 299.84375 65.957031 289.226562 58.011719 271.300781 C 56.40625 267.820312 55.691406 264.074219 54.886719 260.417969 C 54.53125 258.722656 54.171875 257.027344 53.726562 255.421875 L 52.476562 250.605469 L 57.476562 250.960938 C 57.566406 250.960938 57.566406 250.960938 57.65625 250.960938 C 57.832031 250.960938 58.101562 250.960938 58.28125 250.960938 C 58.636719 250.960938 58.90625 250.960938 59.171875 250.960938 C 60.066406 250.960938 61.402344 251.050781 62.652344 251.941406 C 63.457031 252.566406 64.351562 252.835938 65.6875 252.835938 C 66.492188 252.835938 67.386719 252.746094 68.367188 252.65625 C 69.171875 252.566406 69.972656 252.476562 70.777344 252.476562 L 73.277344 252.390625 L 74.347656 254.617188 C 74.4375 254.796875 74.4375 254.886719 74.527344 255.066406 C 74.792969 255.601562 75.0625 256.222656 75.332031 257.117188 C 77.472656 264.789062 81.488281 270.765625 87.382812 274.777344 C 99.078125 282.894531 112.734375 287.265625 129.070312 288.15625 C 130.320312 288.246094 131.660156 288.246094 132.910156 288.246094 C 142.910156 288.246094 152.015625 286.285156 160.050781 282.449219 C 163.085938 281.109375 168.171875 277.808594 169.066406 271.65625 C 170.226562 263.71875 167.101562 257.207031 159.335938 251.585938 C 154.960938 248.464844 149.78125 246.859375 143.621094 246.859375 C 140.410156 246.859375 137.015625 247.214844 132.820312 248.019531 C 129.070312 248.730469 124.699219 249.535156 120.234375 249.535156 C 115.234375 249.535156 110.769531 248.554688 106.664062 246.589844 C 105.503906 246.054688 104.433594 245.519531 103.273438 244.984375 C 102.648438 244.71875 102.023438 244.359375 101.308594 244.09375 C 97.113281 242.132812 92.828125 240.078125 88.722656 240.078125 C 86.757812 240.078125 84.882812 240.527344 83.007812 241.507812 L 79.792969 243.113281 L 78.1875 239.902344 C 78.007812 239.457031 77.742188 239.007812 77.5625 238.5625 C 76.847656 237.136719 76.132812 235.707031 75.417969 234.101562 L 73.902344 230.890625 L 77.117188 229.375 C 80.0625 228.039062 83.097656 226.699219 86.132812 225.363281 C 87.828125 224.648438 89.523438 224.023438 91.21875 223.308594 C 94.078125 222.152344 97.023438 220.992188 99.789062 219.832031 C 103.898438 218.046875 108.09375 216.085938 112.019531 214.210938 C 114.074219 213.230469 116.128906 212.339844 118.089844 211.359375 C 118.714844 211 119.339844 210.644531 120.054688 210.199219 C 120.5 209.929688 121.039062 209.574219 121.484375 209.304688 C 121.574219 209.21875 121.664062 209.21875 121.75 209.128906 C 122.644531 208.59375 123.894531 207.699219 125.5 207.699219 C 125.679688 207.699219 125.859375 207.699219 126.035156 207.699219 L 126.394531 207.699219 C 127.464844 207.96875 128.535156 208.148438 129.695312 208.324219 C 133.535156 209.039062 137.464844 209.753906 141.035156 211.625 C 146.925781 214.65625 152.460938 218.40625 157.816406 221.972656 C 159.15625 222.863281 160.585938 223.84375 161.921875 224.648438 C 163.261719 225.449219 164.511719 226.433594 165.761719 227.324219 C 167.011719 228.214844 168.171875 229.019531 169.332031 229.820312 C 176.652344 234.550781 184.152344 239.277344 191.472656 243.824219 L 195.757812 246.5 L 191.828125 249.625 C 191.203125 250.070312 190.667969 250.605469 190.042969 251.050781 C 188.082031 252.566406 186.117188 254.171875 183.972656 255.777344 C 182.367188 256.9375 181.742188 258.363281 181.921875 260.507812 C 182.277344 266.660156 184.777344 271.210938 189.777344 274.867188 C 194.238281 278.078125 198.523438 279.683594 202.542969 279.683594 C 203.96875 279.683594 205.488281 279.503906 206.917969 279.058594 C 214.503906 276.828125 219.503906 272.28125 221.734375 265.589844 L 222.359375 263.804688 L 224.144531 263.269531 C 225.039062 263.003906 225.84375 262.648438 226.109375 260.507812 C 227.804688 250.605469 229.589844 240.613281 231.289062 230.890625 C 232.179688 225.984375 233.074219 220.992188 233.875 216.085938 C 234.769531 211 235.574219 205.917969 236.464844 200.832031 C 238.160156 190.84375 239.945312 180.496094 241.644531 170.328125 C 242.535156 164.707031 243.339844 158.910156 244.054688 153.289062 C 244.320312 151.238281 244.589844 149.097656 244.855469 147.046875 C 245.839844 140.355469 246.820312 133.488281 247.714844 126.707031 C 247.804688 125.816406 247.980469 124.566406 247.980469 123.675781 L 247.980469 123.496094 C 247.980469 122.070312 247.265625 121.179688 246.195312 121.179688 C 245.839844 121.179688 245.480469 121.269531 245.125 121.445312 C 243.605469 122.160156 241.910156 123.320312 239.859375 125.015625 C 237.359375 127.066406 234.859375 129.296875 232.449219 131.347656 C 228.253906 135.003906 223.96875 138.75 219.414062 142.320312 C 212.988281 147.3125 206.382812 152.308594 199.953125 157.035156 C 196.738281 159.445312 193.4375 161.851562 190.222656 164.261719 C 188.167969 165.777344 186.207031 167.292969 184.152344 168.808594 C 180.136719 171.84375 176.027344 174.964844 171.921875 177.910156 C 169.242188 179.871094 166.476562 181.742188 163.886719 183.527344 C 160.851562 185.578125 157.726562 187.71875 154.691406 189.949219 C 152.191406 191.734375 149.871094 193.695312 147.371094 195.75 C 146.570312 196.460938 145.675781 197.085938 144.871094 197.800781 C 142.105469 200.03125 139.25 202.257812 136.390625 204.488281 C 135.855469 204.847656 134.070312 206.007812 132.019531 206.007812 C 120.144531 205.828125 111.753906 201.722656 105.503906 193.339844 C 99.703125 185.667969 93.09375 178.265625 86.667969 171.039062 C 84.882812 168.988281 83.007812 167.027344 81.222656 164.976562 C 79.078125 162.566406 76.757812 160.15625 74.4375 157.929688 C 72.472656 155.964844 70.507812 154.003906 68.546875 151.953125 C 66.136719 149.277344 63.636719 146.242188 61.046875 142.675781 C 59.707031 140.800781 59.527344 138.035156 59.976562 136.253906 C 62.296875 125.015625 65.421875 115.828125 69.796875 107.351562 L 71.046875 104.945312 L 73.722656 105.480469 C 74.527344 105.660156 75.332031 105.835938 76.132812 105.925781 C 78.453125 106.371094 80.777344 106.816406 83.097656 107.621094 C 85.238281 108.335938 87.113281 109.40625 88.988281 110.476562 C 89.167969 110.5625 89.257812 110.652344 89.433594 110.742188 C 89.613281 110.476562 89.703125 110.207031 89.703125 109.941406 C 89.703125 109.226562 88.988281 108.691406 88.542969 108.421875 C 84.882812 106.371094 81.042969 104.585938 77.027344 102.625 L 76.757812 102.445312 L 72.742188 100.574219 L 75.417969 97.09375 C 81.3125 89.425781 88.988281 83.894531 98.898438 79.96875 C 104.433594 77.828125 110.503906 76.9375 118.449219 76.9375 C 120.324219 76.9375 122.375 77.027344 124.964844 77.113281 C 140.230469 77.648438 156.03125 78.183594 171.566406 79.078125 C 177.457031 79.34375 183.347656 79.96875 189.152344 80.59375 C 192.007812 80.859375 194.953125 81.21875 197.898438 81.484375 C 203.167969 81.929688 208.433594 82.378906 213.523438 82.734375 C 216.023438 82.914062 218.523438 83.089844 221.019531 83.359375 C 223.253906 83.535156 225.484375 83.625 227.71875 83.804688 C 232.269531 84.074219 236.910156 84.25 241.554688 85.054688 C 246.105469 85.765625 250.570312 87.105469 254.855469 88.441406 C 256.910156 89.066406 258.960938 89.691406 261.015625 90.226562 C 269.941406 92.722656 278.511719 97.007812 287.351562 103.339844 C 297.972656 111.011719 306.007812 119.664062 311.8125 130.007812 C 312.703125 131.613281 313.683594 133.308594 314.667969 134.914062 C 316.808594 138.574219 319.042969 142.320312 321.003906 146.332031 C 323.058594 150.613281 324.664062 155.164062 326.09375 159.535156 L 326.628906 161.230469 C 327.253906 163.011719 327.074219 164.796875 326.988281 166.3125 C 326.988281 166.582031 326.988281 166.847656 326.898438 167.117188 C 326.808594 168.542969 326.988281 168.898438 327.699219 169.703125 C 330.378906 172.558594 330.914062 177.105469 331.003906 179.691406 C 331.003906 181.386719 331.09375 183.171875 331.183594 184.867188 C 331.003906 194.230469 331.273438 203.777344 330.558594 213.140625 Z M 192.542969 106.640625 C 191.828125 106.550781 191.027344 106.550781 190.3125 106.550781 C 186.652344 106.550781 182.902344 107.441406 178.886719 109.226562 C 175.761719 110.652344 172.636719 112.882812 169.691406 114.933594 L 168.617188 115.738281 C 168.261719 116.003906 167.996094 116.273438 167.90625 116.363281 C 168.261719 116.898438 168.441406 116.898438 168.53125 116.898438 C 168.617188 116.898438 169.066406 116.898438 169.691406 116.539062 L 169.78125 116.539062 C 170.492188 116.183594 171.207031 115.738281 171.921875 115.292969 C 172.457031 114.933594 173.082031 114.578125 173.707031 114.222656 C 174.601562 113.773438 175.492188 113.238281 176.386719 112.703125 C 178.972656 111.1875 181.742188 109.582031 184.777344 108.871094 L 184.957031 108.78125 C 186.917969 108.335938 189.152344 107.800781 191.5625 107.800781 C 194.597656 107.800781 197.1875 108.601562 199.507812 110.296875 C 201.828125 111.992188 204.328125 113.417969 206.917969 115.023438 C 202.898438 109.761719 198.257812 107.175781 192.542969 106.640625 Z M 63.101562 289.316406 C 61.492188 285.214844 59.976562 281.023438 58.546875 276.917969 C 56.761719 271.921875 54.886719 266.839844 52.921875 261.753906 C 51.585938 258.277344 49.085938 253.28125 43.996094 250.695312 L 42.476562 249.890625 L 40.960938 250.605469 C 33.285156 254.171875 30.160156 260.328125 32.121094 267.910156 C 33.105469 271.476562 34.890625 274.6875 36.675781 277.808594 C 37.03125 278.34375 37.300781 278.878906 37.65625 279.414062 C 38.90625 281.644531 39.355469 282.984375 39.085938 284.234375 C 37.121094 283.519531 35.070312 283.164062 32.746094 283.164062 C 30.875 283.164062 28.820312 283.429688 26.320312 283.964844 C 17.214844 285.75 7.664062 289.496094 5.789062 303.230469 C 4.804688 310.902344 7.75 315.628906 14.625 317.058594 C 17.214844 317.59375 19.804688 317.859375 22.480469 317.859375 C 23.730469 317.859375 25.070312 317.769531 26.320312 317.683594 C 31.496094 317.324219 34.890625 314.648438 35.335938 310.546875 L 35.515625 309.03125 L 34.621094 307.871094 C 33.550781 306.53125 32.210938 305.730469 30.605469 305.371094 C 30.960938 305.371094 31.410156 305.371094 31.765625 305.285156 L 32.480469 305.285156 C 35.070312 305.285156 36.765625 306.441406 37.570312 308.671875 C 38.996094 312.328125 41.40625 314.558594 43.816406 316.34375 C 52.386719 322.675781 53.457031 325.886719 50.78125 336.144531 L 49.976562 339.179688 L 52.921875 340.339844 C 54.707031 341.050781 56.492188 341.320312 58.457031 341.320312 C 68.546875 341.320312 77.382812 332.222656 79.078125 320.179688 L 79.257812 318.664062 L 78.367188 317.503906 C 72.382812 309.652344 67.207031 300.109375 63.101562 289.316406 Z M 63.101562 289.316406 " fill-opacity="1" fill-rule="nonzero"/><path fill="#fa9b73" d="M 224.949219 266.929688 C 222.183594 275.402344 215.664062 280.398438 207.71875 282.714844 C 200.578125 284.855469 193.613281 282.449219 187.457031 277.988281 C 181.5625 273.707031 178.527344 268.085938 178.171875 260.953125 C 177.992188 257.742188 178.972656 255.066406 181.652344 253.101562 C 184.332031 251.140625 186.832031 249.089844 189.417969 247.035156 C 199.507812 253.191406 209.503906 259.4375 219.683594 265.5 C 221.289062 266.394531 223.253906 266.480469 224.949219 266.929688 Z M 55.957031 238.027344 C 56.40625 243.558594 56.761719 249.089844 57.207031 254.617188 C 58.367188 254.707031 59.796875 254.351562 60.511719 254.886719 C 63.8125 257.472656 67.472656 256.3125 71.046875 256.136719 C 70.957031 255.601562 70.957031 254.976562 70.867188 254.441406 C 70.152344 244.273438 70.957031 243.113281 80.238281 239.277344 C 80.597656 239.097656 80.953125 238.832031 81.3125 238.652344 C 80.417969 236.691406 79.4375 234.816406 78.542969 232.855469 C 71.222656 234.460938 63.902344 236.15625 55.957031 238.027344 Z M 55.957031 238.027344 " fill-opacity="1" fill-rule="nonzero"/><path fill="#fadc32" d="M 291.636719 98.164062 C 294.3125 97.09375 296.902344 96.023438 299.582031 94.953125 C 305.828125 92.367188 312.347656 89.691406 318.773438 87.195312 C 320.46875 86.480469 322.253906 86.125 324.128906 85.765625 C 325.023438 85.589844 325.914062 85.410156 326.808594 85.230469 L 332.164062 83.984375 L 329.84375 88.976562 C 327.34375 94.417969 324.84375 99.769531 322.523438 105.035156 C 319.933594 110.652344 317.34375 116.449219 314.578125 122.339844 L 312.882812 125.90625 L 310.203125 123.050781 L 306.097656 118.769531 C 300.742188 113.152344 295.742188 107.886719 290.652344 102.535156 L 287.886719 99.683594 Z M 226.734375 58.027344 C 220.933594 64.003906 215.21875 69.980469 209.238281 76.132812 L 205.398438 80.058594 L 210.84375 80.59375 C 218.253906 81.394531 225.21875 82.019531 232 82.644531 C 234.679688 82.914062 237.359375 83.089844 240.035156 83.359375 L 242.714844 83.625 L 242.980469 80.949219 C 243.695312 73.011719 244.410156 65.339844 245.125 57.3125 C 245.480469 53.210938 245.929688 49.015625 246.285156 44.648438 L 247 37.066406 L 241.734375 42.507812 C 236.644531 47.859375 231.644531 52.941406 226.734375 58.027344 Z M 193.4375 49.640625 C 192.722656 45.183594 191.917969 40.722656 191.203125 36.261719 L 190.222656 30.109375 L 186.472656 35.011719 C 180.402344 43.042969 175.851562 52.050781 171.386719 60.792969 C 169.332031 64.894531 167.191406 69.175781 164.871094 73.191406 L 162.816406 76.847656 L 166.921875 77.203125 C 172.546875 77.648438 178.171875 78.097656 183.617188 78.542969 C 187.542969 78.808594 191.292969 79.167969 194.953125 79.433594 L 198.4375 79.789062 L 197.898438 76.402344 C 196.382812 67.390625 194.863281 58.5625 193.4375 49.640625 Z M 322.703125 137.234375 L 318.417969 136.878906 L 320.023438 140.890625 C 322.433594 146.777344 324.753906 152.398438 327.074219 158.015625 L 328.414062 161.40625 L 331.183594 159.085938 C 334.84375 156.144531 338.414062 153.199219 342.164062 150.078125 C 344.664062 148.027344 347.25 145.976562 349.839844 143.835938 L 355.019531 139.554688 L 348.324219 139.109375 C 341.359375 138.660156 334.753906 138.125 328.238281 137.679688 Z M 335.378906 170.949219 L 331.273438 168.898438 L 331.449219 173.449219 C 331.898438 183.527344 332.34375 192.804688 332.789062 201.457031 L 332.96875 205.292969 L 336.539062 203.777344 C 339.394531 202.527344 342.253906 201.277344 345.199219 200.03125 C 351.894531 197.175781 358.855469 194.230469 366 191.019531 L 370.285156 189.148438 L 366.535156 186.382812 C 359.75 181.386719 352.519531 178.355469 345.464844 175.320312 C 342.164062 174.074219 338.679688 172.558594 335.378906 170.949219 Z M 315.382812 289.496094 C 313.417969 286.640625 311.453125 283.875 309.488281 281.109375 L 307.527344 278.257812 L 305.292969 280.84375 C 300.832031 286.015625 296.722656 290.832031 292.972656 295.292969 L 290.207031 298.503906 L 294.3125 299.574219 L 297.527344 300.378906 C 305.652344 302.519531 313.328125 304.480469 321.808594 306.800781 L 328.863281 308.671875 L 324.664062 302.609375 C 321.453125 298.058594 318.417969 293.6875 315.382812 289.496094 Z M 350.824219 271.386719 L 350.824219 270.765625 L 350.285156 270.050781 C 350.019531 269.691406 349.75 269.246094 349.484375 268.800781 C 348.949219 268 348.410156 267.105469 347.609375 266.304688 C 345.734375 264.429688 343.859375 262.648438 342.074219 260.863281 C 340.289062 259.078125 338.414062 257.292969 336.539062 255.421875 C 335.289062 254.171875 334.039062 252.835938 332.699219 251.496094 C 331.273438 249.980469 329.84375 248.464844 328.238281 246.859375 L 325.558594 244.183594 L 323.863281 247.484375 C 319.933594 255.421875 316.183594 262.824219 312.257812 270.765625 L 310.292969 274.597656 L 346.804688 274.597656 L 353.5 274.777344 L 350.824219 271.386719 C 350.824219 271.476562 350.824219 271.476562 350.824219 271.386719 Z M 281.367188 96.382812 L 282.082031 93.347656 C 282.441406 91.921875 282.796875 90.40625 283.066406 88.976562 C 284.136719 84.339844 285.296875 79.523438 286.457031 74.796875 C 287.441406 71.050781 288.511719 67.214844 289.492188 63.46875 C 290.117188 61.148438 290.832031 58.738281 291.457031 56.332031 C 291.636719 56.0625 291.8125 55.707031 291.992188 55.261719 L 293.511719 50.621094 L 288.777344 51.78125 C 288.601562 51.871094 288.421875 51.871094 288.242188 51.960938 C 288.152344 51.960938 287.976562 52.050781 287.886719 52.050781 C 286.457031 52.40625 285.476562 52.765625 284.671875 53.386719 L 284.492188 53.566406 C 282.53125 55.171875 280.476562 56.777344 278.511719 58.382812 C 273.066406 62.753906 267.351562 67.304688 261.90625 72.03125 C 259.410156 74.171875 257.175781 76.578125 255.125 78.898438 C 254.410156 79.703125 253.695312 80.414062 252.980469 81.21875 L 250.300781 84.070312 L 253.960938 85.5 C 262.355469 88.890625 270.925781 92.277344 278.421875 95.3125 Z M 366.710938 230.625 C 356.089844 223.933594 346.179688 217.691406 336.269531 211.445312 L 333.058594 209.394531 L 332.253906 213.140625 C 330.199219 222.507812 328.324219 231.25 326.628906 239.1875 L 325.828125 243.113281 L 329.753906 242.398438 C 341.449219 240.167969 353.144531 237.9375 365.820312 235.53125 L 372.515625 234.28125 Z M 287.351562 304.660156 L 286.546875 300.644531 L 283.15625 302.964844 C 279.316406 305.640625 275.835938 308.136719 272.085938 310.8125 L 269.40625 312.6875 L 266.015625 315.09375 L 269.585938 317.148438 C 272.441406 318.839844 275.210938 320.445312 277.886719 322.050781 C 280.65625 323.746094 283.332031 325.265625 286.011719 326.871094 L 287.796875 327.941406 L 290.027344 325.710938 L 291.011719 324.730469 L 290.742188 323.300781 C 289.761719 317.234375 288.601562 311.171875 287.351562 304.660156 Z M 287.351562 304.660156 " fill-opacity="1" fill-rule="nonzero"/><path fill="#ffffff" d="M 91.933594 270.230469 L 92.558594 272.726562 L 90.148438 271.746094 C 89.703125 271.566406 89.257812 271.476562 88.898438 271.300781 C 87.917969 271.03125 87.023438 270.765625 86.488281 269.960938 C 85.863281 269.070312 85.148438 268.265625 84.523438 267.375 C 81.757812 263.894531 78.902344 260.328125 78.453125 255.421875 C 78.367188 255.152344 78.367188 254.886719 78.367188 254.617188 C 78.367188 254.441406 78.367188 254.351562 78.367188 254.261719 C 77.203125 247.214844 78.007812 245.699219 84.523438 243.558594 L 85.953125 243.113281 L 87.203125 248.644531 C 88.542969 255.601562 90.148438 262.824219 91.933594 270.230469 Z M 111.84375 252.03125 L 110.414062 251.320312 C 107.378906 249.800781 104.433594 248.375 101.398438 246.949219 C 98.003906 245.34375 94.523438 243.648438 90.863281 241.773438 L 88.363281 240.527344 L 88.988281 243.289062 C 90.148438 248.195312 91.21875 252.835938 92.292969 257.472656 C 93.363281 262.113281 94.433594 266.75 95.59375 271.65625 L 96.308594 274.597656 L 98.003906 272.101562 C 102.738281 265.234375 106.84375 259.257812 110.949219 253.28125 Z M 83.542969 213.855469 L 82.917969 212.429688 C 82.652344 211.894531 82.472656 211.359375 82.203125 210.824219 C 81.757812 209.753906 81.3125 208.769531 80.6875 207.789062 C 78.8125 204.9375 76.757812 202.082031 74.792969 199.316406 C 74.347656 198.601562 73.8125 197.976562 73.367188 197.265625 C 73.542969 197.355469 73.632812 197.355469 73.8125 197.441406 C 75.6875 198.425781 77.5625 199.40625 79.4375 200.476562 C 82.382812 202.082031 85.507812 203.777344 88.542969 205.292969 C 88.542969 205.292969 92.738281 207.253906 94.257812 205.558594 C 95.59375 204.132812 95.953125 201.722656 95.773438 199.941406 C 95.59375 198.425781 94.433594 196.90625 93.363281 195.570312 C 92.113281 194.144531 90.953125 192.714844 89.703125 191.289062 C 88.542969 189.859375 87.292969 188.523438 86.132812 187.097656 C 83.632812 184.152344 81.132812 181.296875 78.632812 178.445312 C 72.296875 171.21875 65.777344 163.726562 59.886719 155.964844 C 56.226562 151.058594 51.851562 147.046875 47.65625 143.03125 C 46.226562 141.695312 44.710938 140.265625 43.28125 138.839844 L 43.191406 138.75 C 42.65625 138.304688 42.121094 138.125 41.316406 137.859375 C 40.960938 137.679688 40.515625 137.589844 39.980469 137.324219 L 35.335938 135.273438 L 41.316406 143.390625 C 47.300781 151.417969 52.921875 159.085938 58.636719 166.667969 C 64.796875 174.699219 71.132812 182.816406 77.292969 190.753906 C 71.757812 188.433594 66.136719 186.113281 60.511719 183.796875 L 59.796875 183.527344 L 59.171875 183.972656 C 55.421875 186.648438 55.511719 187.898438 57.832031 191.109375 C 61.316406 195.835938 64.976562 200.921875 69.707031 207.34375 C 71.582031 209.929688 73.632812 212.605469 75.507812 215.105469 L 76.042969 215.816406 L 76.9375 215.640625 C 78.8125 215.191406 80.152344 214.835938 81.9375 214.300781 Z M 218.074219 226.878906 C 213.96875 219.117188 209.953125 211.359375 205.933594 203.6875 C 201.472656 195.214844 197.097656 186.828125 192.632812 178.355469 L 192.007812 177.195312 L 190.847656 177.820312 C 189.953125 178.265625 189.0625 178.710938 188.167969 179.15625 C 186.382812 180.050781 184.777344 180.941406 182.992188 181.742188 L 181.652344 182.367188 L 182.367188 183.617188 C 185.9375 189.683594 189.417969 195.570312 192.902344 201.546875 C 196.203125 207.164062 199.507812 212.695312 202.898438 218.40625 C 202.632812 218.582031 202.363281 218.761719 202.183594 218.941406 C 201.472656 219.476562 200.757812 220.011719 200.308594 220.011719 C 198.257812 220.011719 196.027344 219.652344 193.882812 219.296875 C 193.257812 219.207031 192.722656 219.117188 192.097656 219.027344 L 183.972656 217.871094 L 183.527344 218.316406 C 183.347656 218.492188 183.171875 218.761719 183.082031 218.851562 L 183.082031 218.941406 L 182.1875 219.832031 L 189.242188 227.503906 L 190.042969 228.839844 C 193.972656 235.621094 197.988281 242.753906 204.683594 247.839844 L 206.203125 249 L 206.828125 247.214844 C 207.09375 246.324219 207.363281 244.984375 206.738281 244.003906 C 205.578125 242.308594 204.417969 240.613281 203.167969 238.921875 C 202.273438 237.671875 201.472656 236.511719 200.578125 235.261719 C 198.882812 232.765625 197.1875 230.269531 195.488281 227.859375 C 203.167969 230.179688 210.308594 230.535156 217.183594 228.75 L 218.878906 228.304688 Z M 115.234375 258.898438 L 114.519531 257.652344 L 113.269531 258.453125 C 109.699219 260.683594 101.574219 273.351562 100.773438 277.988281 L 100.59375 278.96875 L 101.574219 279.414062 C 108.449219 282.539062 116.394531 284.410156 126.570312 285.125 L 128.984375 285.304688 L 127.910156 283.164062 C 123.625 274.957031 119.429688 266.929688 115.234375 258.898438 Z M 149.335938 250.25 C 144.960938 249 143.710938 252.746094 143.265625 253.996094 C 140.855469 261.578125 138.355469 269.070312 135.679688 277.007812 L 132.644531 286.015625 L 134.785156 285.75 C 135.945312 285.570312 136.925781 285.480469 137.910156 285.390625 C 139.605469 285.214844 141.125 285.035156 142.550781 284.679688 C 143.800781 284.320312 145.050781 283.964844 146.210938 283.609375 C 150.585938 282.449219 155.140625 281.199219 159.335938 279.328125 C 163.261719 277.632812 167.101562 273.796875 166.296875 268.355469 C 165.046875 259.347656 158.976562 252.925781 149.335938 250.25 Z M 140.5 252.300781 L 141.300781 250.25 L 139.070312 250.515625 C 132.375 251.40625 126.304688 252.210938 118.714844 253.191406 L 116.839844 253.460938 L 117.734375 255.152344 C 119.164062 258.097656 120.679688 260.953125 122.109375 263.804688 C 124.25 268.085938 126.484375 272.546875 128.894531 277.273438 L 130.320312 280.039062 L 131.394531 277.1875 C 132.910156 273.082031 134.339844 269.15625 135.765625 265.324219 C 137.285156 260.953125 138.890625 256.671875 140.5 252.300781 Z M 140.5 252.300781 " fill-opacity="1" fill-rule="nonzero"/><g clip-path="url(#2e0b6f5b51)"><path fill="#3c50be" d="M 374.65625 233.03125 C 374.746094 238.117188 374.300781 238.742188 369.660156 240.078125 C 367.070312 240.792969 364.300781 241.148438 361.625 241.597656 C 352.160156 243.113281 342.699219 244.539062 332.074219 246.144531 C 334.574219 248.644531 336.359375 250.335938 338.144531 252.03125 C 344.125 258.007812 350.109375 263.984375 356 270.050781 C 357.875 272.011719 359.304688 274.332031 357.875 277.007812 C 356.535156 279.503906 353.945312 279.683594 351.445312 279.59375 C 346.714844 279.328125 341.984375 278.96875 337.253906 278.878906 C 331.359375 278.792969 325.46875 278.878906 319.667969 278.96875 C 317.257812 278.96875 314.847656 278.96875 312.433594 278.96875 C 312.347656 278.792969 312.257812 278.613281 312.167969 278.523438 C 312.167969 278.613281 312.078125 278.792969 312.167969 278.792969 C 312.257812 278.878906 312.433594 278.878906 312.523438 278.878906 C 316.453125 284.234375 320.378906 289.671875 324.308594 295.027344 C 326.363281 297.878906 328.59375 300.734375 330.378906 303.765625 C 332.789062 308.046875 330.378906 312.0625 325.46875 311.707031 C 321.628906 311.347656 317.882812 310.457031 314.042969 309.652344 C 309.667969 308.671875 305.292969 307.425781 300.917969 306.265625 C 298.0625 305.460938 295.207031 304.660156 291.722656 303.679688 C 291.992188 305.460938 291.992188 306.621094 292.261719 307.871094 C 293.777344 314.113281 295.296875 320.359375 296.8125 326.601562 C 297.082031 327.851562 297.707031 329.1875 297.527344 330.4375 C 297.257812 332.132812 296.902344 334.273438 295.742188 335.253906 C 294.757812 336.058594 292.347656 335.789062 291.097656 335.164062 C 286.277344 332.578125 281.636719 329.8125 277.171875 326.78125 C 273.960938 324.640625 271.011719 322.230469 268.15625 319.734375 C 266.371094 318.21875 264.855469 318.21875 263.15625 319.464844 C 253.695312 326.066406 243.25 330.527344 232 332.84375 C 224.769531 334.273438 217.539062 335.96875 209.953125 335.433594 C 204.417969 334.988281 198.792969 335.878906 193.257812 335.878906 C 183.882812 335.789062 174.511719 336.058594 165.226562 334.988281 C 154.601562 333.738281 144.160156 331.152344 133.625 329.011719 C 129.429688 328.117188 125.234375 327.316406 121.214844 325.800781 C 115.503906 323.746094 109.878906 321.25 104.253906 318.839844 C 101.128906 317.503906 97.914062 316.253906 95.058594 314.558594 C 89.433594 311.082031 84.078125 307.246094 78.453125 303.589844 C 77.382812 302.875 76.042969 302.609375 74.792969 302.160156 C 74.617188 302.429688 74.347656 302.695312 74.167969 303.054688 C 77.117188 307.691406 80.152344 312.242188 82.917969 316.96875 C 84.078125 318.839844 84.972656 320.980469 85.773438 323.035156 C 86.042969 323.746094 85.863281 325.265625 85.417969 325.441406 C 81.042969 327.40625 81.222656 332.222656 78.992188 335.523438 C 72.027344 345.78125 61.136719 349.4375 49.351562 343.996094 C 43.550781 348.097656 37.03125 350.863281 29.535156 349.792969 C 16.144531 347.207031 6.414062 333.828125 6.144531 321.160156 C 6.144531 319.910156 5.964844 318.394531 5.253906 317.503906 C 0.253906 311.171875 0.789062 304.570312 2.929688 297.34375 C 4.894531 290.65625 8.914062 286.015625 14.984375 283.25 C 18.730469 281.644531 22.839844 280.933594 26.855469 279.949219 C 28.460938 279.503906 30.160156 279.414062 32.035156 279.238281 C 30.871094 276.203125 30.070312 273.441406 28.820312 270.941406 C 25.25 263.894531 29.980469 252.03125 38.90625 248.019531 C 41.496094 246.859375 44.976562 247.839844 48.28125 247.839844 C 48.101562 245.519531 48.011719 242.488281 47.746094 239.1875 C 45.871094 239.457031 44.351562 239.992188 42.835938 239.8125 C 38.640625 239.277344 35.425781 237.316406 34.53125 232.855469 C 33.460938 227.234375 32.210938 221.617188 31.410156 215.996094 C 29.710938 203.242188 28.285156 190.394531 26.675781 177.640625 C 25.605469 169.34375 24.355469 160.960938 23.554688 152.664062 C 23.015625 147.3125 23.285156 141.960938 23.015625 136.519531 C 22.660156 130.367188 21.945312 124.300781 21.855469 118.144531 C 21.765625 115.378906 22.304688 112.4375 23.195312 109.761719 C 24.535156 105.570312 29.535156 104.855469 32.570312 108.066406 C 38.015625 113.863281 43.640625 119.484375 49.085938 125.28125 C 50.871094 127.15625 52.386719 129.207031 54.351562 131.613281 C 57.03125 123.945312 59.617188 116.808594 62.476562 108.871094 C 60.066406 109.492188 58.28125 110.117188 56.40625 110.742188 C 54.351562 111.457031 51.941406 111.722656 51.136719 109.492188 C 50.691406 108.246094 51.851562 105.925781 52.921875 104.765625 C 55.78125 101.824219 59.261719 99.949219 63.636719 100.039062 C 65.957031 100.128906 67.652344 98.878906 69.082031 96.738281 C 74.527344 88.710938 81.847656 82.464844 90.683594 78.453125 C 99.34375 74.527344 108.71875 73.011719 118.269531 73.367188 C 121.839844 73.457031 125.410156 73.101562 128.894531 73.191406 C 138.625 73.457031 148.355469 73.902344 158.800781 74.351562 C 159.511719 73.011719 160.585938 71.226562 161.386719 69.265625 C 167.371094 55.441406 175.046875 42.507812 183.082031 29.75 C 183.707031 28.769531 184.597656 28.054688 185.402344 27.253906 C 189.152344 23.863281 194.328125 25.378906 195.222656 30.285156 C 196.382812 36.351562 197.097656 42.417969 197.988281 48.570312 C 199.148438 56.332031 200.398438 64.179688 201.558594 71.941406 C 201.828125 73.636719 201.738281 75.332031 201.828125 77.027344 C 205.757812 72.921875 209.683594 68.996094 213.523438 64.984375 C 222.808594 55.527344 232.089844 46.164062 241.285156 36.707031 C 241.464844 36.53125 241.644531 36.261719 241.910156 36.082031 C 244.410156 34.390625 246.910156 31.980469 250.035156 33.941406 C 252.800781 35.636719 251.910156 38.671875 251.550781 41.4375 C 250.480469 51.070312 249.675781 60.792969 248.695312 70.515625 C 248.515625 72.65625 248.070312 74.707031 248.429688 77.382812 C 250.925781 75.0625 253.425781 72.65625 256.015625 70.425781 C 267.175781 60.523438 278.601562 50.890625 291.457031 43.128906 C 292.527344 42.507812 293.867188 42.058594 295.027344 41.972656 C 298.777344 41.703125 300.292969 43.753906 299.132812 47.410156 C 297.882812 51.335938 296.632812 55.351562 295.382812 59.273438 C 292.261719 69.265625 289.226562 79.253906 285.921875 89.15625 C 285.296875 91.117188 283.511719 92.722656 281.90625 95.042969 C 282.976562 95.042969 284.226562 95.402344 285.207031 94.953125 C 295.207031 90.941406 305.027344 86.570312 315.023438 82.824219 C 319.933594 80.949219 325.289062 79.96875 330.46875 79.078125 C 334.394531 78.453125 337.699219 82.734375 336.539062 86.660156 C 336.183594 87.730469 335.824219 88.800781 335.289062 89.871094 C 329.84375 101.199219 324.308594 112.527344 318.953125 123.855469 C 318.058594 125.816406 317.257812 127.777344 316.183594 130.542969 C 319.398438 131.257812 322.433594 132.0625 325.46875 132.507812 C 333.414062 133.667969 341.449219 133.308594 349.484375 132.863281 C 350.734375 132.773438 352.070312 132.683594 353.320312 132.863281 C 355.910156 133.21875 359.035156 133.667969 359.390625 136.699219 C 359.660156 138.839844 358.855469 141.695312 357.429688 143.300781 C 354.394531 146.6875 350.734375 149.542969 347.25 152.488281 C 342.074219 156.945312 336.804688 161.316406 331.09375 166.132812 C 336.628906 168.453125 341.539062 170.328125 346.269531 172.644531 C 353.859375 176.214844 361.535156 179.871094 368.855469 183.972656 C 370.820312 185.042969 373.230469 188.433594 372.78125 189.949219 C 372.15625 192.269531 369.480469 194.5 367.070312 195.835938 C 363.230469 197.976562 358.945312 199.40625 354.75 201.011719 C 350.199219 202.707031 345.644531 204.132812 341.089844 205.738281 C 339.664062 206.273438 338.324219 207.078125 336.449219 207.96875 C 337.789062 208.859375 338.769531 209.394531 339.664062 210.019531 C 347.699219 214.65625 355.910156 219.117188 363.765625 224.113281 C 368.140625 226.433594 371.265625 230 374.65625 233.03125 Z M 348.144531 271.65625 C 347.339844 270.496094 346.625 269.15625 345.644531 268.175781 C 341.984375 264.519531 338.234375 260.953125 334.574219 257.292969 C 331.898438 254.617188 329.308594 251.765625 326.273438 248.730469 C 322.34375 256.671875 318.683594 263.984375 314.667969 272.011719 C 325.828125 272.011719 336.808594 272.011719 347.789062 272.011719 C 347.785156 272.011719 348.679688 272.457031 348.144531 271.65625 Z M 190.132812 226.34375 C 194.417969 233.746094 198.347656 241.417969 205.488281 246.769531 C 205.757812 245.964844 205.84375 245.164062 205.578125 244.71875 C 203.613281 241.773438 201.472656 238.921875 199.507812 236.066406 C 197.007812 232.496094 194.597656 228.929688 192.1875 225.363281 C 200.222656 228.484375 208.34375 229.734375 217.003906 227.59375 C 208.433594 211.269531 200.042969 195.214844 191.5625 179.066406 C 188.882812 180.40625 186.382812 181.742188 183.707031 182.992188 C 190.847656 195.125 197.722656 206.71875 204.863281 218.851562 C 202.988281 220.011719 201.738281 221.4375 200.488281 221.4375 C 197.722656 221.4375 194.863281 220.8125 192.097656 220.367188 C 189.597656 220.011719 187.097656 219.652344 184.597656 219.296875 C 184.421875 219.476562 184.332031 219.742188 184.152344 219.921875 C 186.207031 221.972656 188.167969 224.203125 190.132812 226.34375 Z M 288.601562 54.457031 C 287.796875 54.816406 286.902344 54.992188 286.277344 55.527344 C 278.78125 61.59375 271.101562 67.570312 263.78125 73.902344 C 260.570312 76.667969 257.800781 80.058594 255.035156 82.914062 C 263.425781 86.300781 271.90625 89.691406 279.496094 92.722656 C 280.921875 86.660156 282.351562 80.324219 283.957031 74.082031 C 285.566406 67.75 287.441406 61.414062 289.136719 55.082031 C 289.3125 54.816406 289.492188 54.636719 289.582031 54.371094 C 289.226562 54.371094 288.957031 54.371094 288.601562 54.457031 Z M 71.046875 195.570312 C 72.207031 195.75 73.457031 195.75 74.4375 196.285156 C 79.347656 198.871094 84.167969 201.636719 89.167969 204.132812 C 90.417969 204.757812 92.738281 205.292969 93.273438 204.667969 C 94.257812 203.6875 94.613281 201.636719 94.433594 200.117188 C 94.257812 198.871094 93.183594 197.53125 92.292969 196.460938 C 89.972656 193.609375 87.472656 190.753906 85.0625 187.988281 C 76.222656 177.640625 67.027344 167.5625 58.726562 156.769531 C 53.816406 150.4375 47.835938 145.351562 42.300781 139.820312 C 41.765625 139.285156 40.871094 139.195312 39.441406 138.570312 C 46.585938 148.207031 53.101562 157.125 59.796875 165.867188 C 66.402344 174.519531 73.097656 183.082031 79.792969 191.644531 C 79.527344 192 79.167969 192.449219 78.902344 192.804688 C 72.652344 190.21875 66.402344 187.632812 60.066406 185.042969 C 57.207031 187.183594 57.03125 187.542969 58.992188 190.308594 C 62.921875 195.75 66.847656 201.1875 70.867188 206.542969 C 72.832031 209.128906 74.792969 211.714844 76.667969 214.300781 C 78.453125 213.855469 79.792969 213.5 81.667969 212.964844 C 80.863281 211.179688 80.417969 209.753906 79.617188 208.503906 C 76.757812 204.3125 73.722656 200.117188 70.777344 195.925781 C 70.867188 195.835938 70.957031 195.660156 71.046875 195.570312 Z M 324.308594 167.652344 C 323.953125 166.046875 322.96875 163.546875 322.523438 162.121094 C 320.828125 157.214844 319.21875 152.308594 316.988281 147.671875 C 314.308594 142.140625 311.007812 136.964844 307.972656 131.613281 C 302.167969 121.269531 294.046875 112.972656 284.492188 106.105469 C 276.816406 100.574219 268.515625 96.113281 259.320312 93.527344 C 252.980469 91.742188 246.730469 89.511719 240.214844 88.441406 C 233.609375 87.285156 226.824219 87.371094 220.039062 86.835938 C 212.273438 86.214844 204.59375 85.679688 196.828125 84.964844 C 188.082031 84.160156 179.421875 83.089844 170.671875 82.554688 C 155.140625 81.664062 139.695312 81.128906 124.160156 80.59375 C 115.859375 80.324219 107.378906 80.238281 99.433594 83.269531 C 90.773438 86.570312 83.277344 91.652344 77.472656 99.234375 C 81.667969 101.375 85.6875 103.160156 89.523438 105.300781 C 93.632812 107.621094 93.453125 112.527344 89.257812 115.023438 C 86.578125 113.6875 83.988281 111.992188 81.222656 111.011719 C 78.277344 110.027344 75.152344 109.582031 72.296875 108.957031 C 67.5625 118.058594 64.707031 127.332031 62.832031 136.964844 C 62.5625 138.125 62.742188 139.730469 63.367188 140.625 C 65.601562 143.746094 68.011719 146.777344 70.6875 149.632812 C 74.792969 154.09375 79.347656 158.195312 83.363281 162.746094 C 91.667969 172.109375 100.328125 181.296875 107.824219 191.289062 C 114.074219 199.582031 122.019531 202.347656 131.570312 202.527344 C 132.375 202.527344 133.265625 202.171875 133.890625 201.636719 C 136.75 199.496094 139.515625 197.265625 142.285156 195.035156 C 145.585938 192.359375 148.890625 189.59375 152.28125 187.097656 C 157.996094 182.992188 163.886719 179.15625 169.511719 175.054688 C 175.671875 170.59375 181.652344 165.957031 187.722656 161.40625 C 197.453125 154.09375 207.363281 146.957031 216.914062 139.464844 C 223.878906 134.023438 230.394531 127.957031 237.179688 122.25 C 239.054688 120.734375 241.019531 119.214844 243.25 118.144531 C 247.265625 116.273438 251.195312 118.859375 251.285156 123.320312 C 251.285156 124.566406 251.195312 125.90625 251.015625 127.15625 C 250.035156 133.933594 249.050781 140.714844 248.160156 147.492188 C 247.089844 155.253906 246.105469 163.101562 244.855469 170.863281 C 242.355469 186.113281 239.769531 201.367188 237.089844 216.621094 C 234.5 231.425781 231.914062 246.234375 229.324219 261.042969 C 229.054688 264.164062 227.804688 266.125 224.949219 266.929688 C 223.253906 266.480469 221.289062 266.394531 219.773438 265.5 C 209.59375 259.4375 199.597656 253.191406 189.507812 247.035156 C 182.097656 242.398438 174.777344 237.761719 167.371094 233.03125 C 164.871094 231.425781 162.460938 229.554688 159.960938 227.949219 C 153.175781 223.578125 146.480469 218.761719 139.339844 215.015625 C 135.230469 212.875 130.230469 212.515625 125.589844 211.445312 C 124.964844 211.269531 124.074219 212.070312 123.269531 212.515625 C 122.019531 213.230469 120.859375 214.035156 119.609375 214.660156 C 113.449219 217.601562 107.289062 220.457031 101.128906 223.222656 C 96.578125 225.183594 91.933594 226.96875 87.382812 228.839844 C 84.4375 230.089844 81.488281 231.425781 78.453125 232.765625 C 71.132812 234.460938 63.902344 236.15625 55.867188 238.027344 C 56.316406 243.558594 56.671875 249.089844 57.117188 254.617188 C 58.367188 259.703125 58.992188 265.144531 61.136719 269.871094 C 68.011719 285.304688 80.6875 295.5625 94.878906 303.679688 C 102.738281 308.226562 111.21875 311.972656 119.875 314.738281 C 131.394531 318.394531 143 321.964844 155.316406 323.300781 C 166.476562 324.550781 177.546875 325.265625 188.707031 325.351562 C 204.058594 325.53125 219.324219 324.28125 234.324219 320.980469 C 239.054688 319.910156 243.785156 318.394531 248.25 316.34375 C 260.210938 310.722656 271.636719 304.035156 281.992188 295.917969 C 287.976562 291.277344 293.242188 285.480469 298.242188 279.683594 C 302.617188 274.597656 306.8125 269.15625 310.023438 263.269531 C 314.132812 255.777344 317.078125 247.660156 320.558594 239.8125 C 324.488281 231.160156 325.828125 221.792969 326.628906 212.605469 C 327.613281 201.636719 326.988281 190.484375 326.71875 179.515625 C 326.09375 173.269531 324.308594 167.652344 324.308594 167.652344 Z M 40.515625 289.050781 C 36.320312 286.195312 31.675781 286.550781 26.945312 287.445312 C 18.375 289.136719 10.785156 292.171875 9.269531 303.679688 C 8.554688 309.207031 9.984375 312.417969 15.339844 313.578125 C 18.820312 314.292969 22.480469 314.472656 25.964844 314.113281 C 28.460938 313.9375 31.410156 313.042969 31.765625 310.101562 C 29.085938 306.710938 24.714844 311.257812 22.304688 307.425781 C 23.640625 301.804688 28.105469 301.894531 32.210938 301.714844 C 36.230469 301.625 39.53125 303.5 40.960938 307.425781 C 42.03125 310.1875 43.816406 311.882812 46.050781 313.578125 C 55.867188 320.894531 57.296875 325.621094 54.351562 337.128906 C 62.921875 340.425781 73.8125 332.933594 75.6875 319.824219 C 68.992188 310.992188 63.8125 301.089844 59.796875 290.566406 C 56.316406 281.46875 53.191406 272.191406 49.621094 263.09375 C 48.191406 259.4375 46.136719 255.777344 42.390625 253.90625 C 36.40625 256.671875 33.910156 260.953125 35.515625 267.015625 C 36.496094 270.765625 38.730469 274.242188 40.691406 277.722656 C 43.371094 282.359375 43.550781 285.214844 40.515625 289.050781 Z M 188.527344 36.707031 C 179.777344 48.214844 174.332031 61.773438 167.191406 74.617188 C 176.921875 75.421875 186.382812 76.132812 195.222656 76.847656 C 192.988281 63.46875 190.757812 50.085938 188.527344 36.707031 Z M 243.605469 44.558594 C 232.625 55.886719 222.183594 66.679688 211.113281 78.097656 C 221.289062 79.078125 230.753906 79.878906 240.214844 80.773438 C 241.375 68.820312 242.445312 57.222656 243.605469 44.558594 Z M 312.167969 121.179688 C 317.34375 109.761719 322.253906 99.148438 327.433594 87.820312 C 324.398438 88.53125 321.988281 88.800781 319.753906 89.691406 C 310.648438 93.257812 301.632812 97.007812 292.617188 100.664062 C 299.042969 107.351562 305.472656 114.042969 312.167969 121.179688 Z M 13.019531 322.5 C 13.199219 323.65625 13.199219 324.28125 13.464844 324.730469 C 14.625 326.871094 15.785156 329.011719 17.035156 331.152344 C 22.125 339.535156 29.800781 342.210938 37.925781 339.269531 C 46.226562 336.324219 49.441406 330.617188 44.800781 323.035156 C 43.460938 320.804688 41.050781 319.199219 39.355469 317.503906 C 31.140625 323.390625 22.660156 325.265625 13.019531 322.5 Z M 329.21875 239.722656 C 340.914062 237.492188 352.609375 235.261719 365.285156 232.855469 C 354.660156 226.164062 344.75 219.921875 334.84375 213.675781 C 332.789062 222.863281 331.003906 231.25 329.21875 239.722656 Z M 364.925781 188.789062 C 355.195312 181.65625 344.394531 178.53125 334.128906 173.449219 C 334.574219 183.351562 335.019531 192.449219 335.46875 201.457031 C 345.019531 197.265625 354.660156 193.160156 364.925781 188.789062 Z M 322.523438 304.300781 C 317.078125 296.453125 312.078125 289.40625 307.347656 282.628906 C 303.152344 287.53125 299.3125 292.171875 295.027344 297.167969 C 304.3125 299.484375 312.882812 301.804688 322.523438 304.300781 Z M 329.574219 157.035156 C 335.644531 152.042969 341.804688 147.046875 348.234375 141.785156 C 339.304688 141.160156 331.003906 140.535156 322.523438 139.910156 C 324.933594 145.796875 327.253906 151.417969 329.574219 157.035156 Z M 271.101562 314.917969 C 276.90625 318.304688 282.171875 321.515625 287.527344 324.640625 C 287.796875 324.371094 288.0625 324.105469 288.332031 323.835938 C 287.171875 317.769531 286.011719 311.707031 284.761719 305.195312 C 280.03125 308.496094 275.835938 311.527344 271.101562 314.917969 Z M 71.046875 256.046875 C 70.957031 255.511719 70.957031 254.886719 70.867188 254.351562 C 70.152344 244.183594 70.957031 243.023438 80.238281 239.1875 C 80.597656 239.007812 80.953125 238.742188 81.3125 238.5625 C 89.078125 234.636719 95.953125 237.851562 102.824219 241.0625 C 104.613281 241.863281 106.484375 242.753906 108.273438 243.648438 C 116.128906 247.394531 124.074219 246.414062 132.195312 244.808594 C 142.375 242.84375 152.460938 242.488281 161.476562 248.910156 C 169.421875 254.617188 174.152344 262.378906 172.636719 272.371094 C 171.742188 278.703125 167.101562 283.164062 161.566406 285.839844 C 151.300781 290.65625 140.230469 292.4375 128.894531 291.902344 C 113.179688 291.101562 98.363281 286.996094 85.328125 277.898438 C 78.453125 273.082031 74.082031 266.304688 71.847656 258.1875 C 71.671875 257.382812 71.3125 256.757812 71.046875 256.046875 Z M 134.695312 284.234375 C 137.820312 283.875 140.140625 283.785156 142.285156 283.164062 C 147.90625 281.558594 153.710938 280.21875 158.976562 277.898438 C 162.636719 276.292969 165.851562 272.992188 165.136719 268.355469 C 163.710938 259.078125 157.28125 253.726562 148.980469 251.40625 C 146.570312 250.695312 145.410156 251.855469 144.605469 254.261719 C 141.480469 264.074219 138.175781 273.796875 134.695312 284.234375 Z M 114.164062 259.523438 C 110.949219 261.488281 103.003906 273.617188 102.199219 278.167969 C 109.96875 281.734375 118.269531 283.164062 126.75 283.785156 C 122.554688 275.582031 118.359375 267.550781 114.164062 259.523438 Z M 90.238281 242.933594 C 92.558594 252.746094 94.613281 261.664062 96.84375 271.300781 C 101.574219 264.429688 105.683594 258.453125 109.789062 252.476562 C 103.539062 249.445312 97.378906 246.414062 90.238281 242.933594 Z M 130.054688 276.652344 C 133.355469 267.820312 136.214844 260.058594 139.25 251.765625 C 132.195312 252.746094 125.949219 253.546875 118.894531 254.441406 C 122.554688 261.753906 126.125 268.800781 130.054688 276.652344 Z M 90.507812 270.585938 C 88.542969 261.664062 86.667969 253.28125 84.792969 244.894531 C 78.992188 246.859375 78.453125 247.75 79.527344 254.082031 C 79.617188 254.53125 79.527344 254.976562 79.617188 255.332031 C 80.152344 261.128906 84.257812 264.964844 87.472656 269.335938 C 87.917969 269.960938 89.167969 270.050781 90.507812 270.585938 Z M 210.84375 113.863281 C 206.382812 107.886719 200.847656 103.785156 192.988281 103.070312 C 187.457031 102.535156 182.367188 103.785156 177.546875 105.925781 C 173.707031 107.710938 170.136719 110.296875 166.65625 112.703125 C 164.871094 113.953125 163.441406 116.003906 165.046875 118.324219 C 166.65625 120.734375 168.976562 121 171.476562 119.664062 C 172.902344 118.949219 174.152344 118.058594 175.582031 117.253906 C 178.972656 115.46875 182.277344 113.0625 185.847656 112.257812 C 189.597656 111.367188 193.792969 110.296875 197.722656 113.152344 C 201.292969 115.828125 205.398438 118.058594 209.503906 120.554688 C 212.453125 118.59375 212.808594 116.449219 210.84375 113.863281 Z M 71.046875 195.570312 C 70.777344 195.480469 70.507812 195.480469 70.242188 195.390625 C 70.421875 195.570312 70.597656 195.660156 70.777344 195.835938 C 70.867188 195.835938 70.957031 195.660156 71.046875 195.570312 Z M 71.046875 195.570312 " fill-opacity="1" fill-rule="nonzero"/></g></svg>