<svg xmlns="http://www.w3.org/2000/svg" xmlns:xlink="http://www.w3.org/1999/xlink" width="500" zoomAndPan="magnify" viewBox="0 0 375 374.999991" height="500" preserveAspectRatio="xMidYMid meet" version="1.0"><path fill="#ffffff" d="M 87.628906 182.824219 C 87.332031 184.90625 88.125 186.09375 90.304688 186.6875 C 93.675781 187.777344 97.046875 188.96875 100.316406 190.15625 C 102.101562 190.851562 103.886719 191.445312 105.671875 192.039062 L 106.660156 192.335938 L 106.660156 193.425781 C 106.660156 193.527344 106.660156 193.625 106.660156 193.625 L 107.15625 195.210938 L 105.570312 195.605469 C 104.28125 195.902344 102.894531 196.203125 101.605469 196.5 C 98.53125 197.191406 95.460938 197.984375 92.386719 198.578125 C 89.117188 199.273438 87.035156 200.363281 86.042969 202.046875 C 85.050781 203.730469 85.050781 206.109375 86.140625 209.28125 C 87.230469 212.75 88.324219 216.117188 89.414062 219.488281 L 89.910156 220.972656 L 88.324219 221.371094 C 86.738281 221.765625 85.152344 221.964844 83.464844 221.964844 C 78.90625 221.964844 74.246094 220.378906 70.378906 217.40625 C 65.125 213.34375 62.054688 207.597656 61.953125 201.453125 C 61.757812 192.335938 64.53125 183.320312 70.082031 174.699219 C 75.039062 166.96875 82.078125 163.5 92.882812 163.402344 L 95.261719 163.402344 L 94.269531 165.582031 C 93.675781 166.871094 92.980469 168.257812 92.289062 169.546875 C 91 172.121094 89.710938 174.699219 88.621094 177.375 C 88.023438 178.761719 87.828125 180.347656 87.53125 181.933594 Z M 206.582031 256.84375 C 207.96875 255.457031 208.863281 253.574219 208.863281 251.59375 C 208.863281 249.710938 208.167969 248.027344 206.878906 246.636719 C 203.011719 242.871094 198.058594 240.890625 191.910156 240.691406 L 190.324219 240.59375 L 190.324219 264.375 L 192.109375 263.980469 C 198.15625 262.789062 202.714844 260.511719 206.582031 256.84375 Z M 318.597656 72.4375 C 319.488281 73.328125 320.378906 74.222656 321.371094 74.914062 C 322.5625 75.804688 323.949219 76.699219 325.335938 77.492188 C 326.230469 78.085938 327.21875 78.679688 328.3125 79.375 L 330.589844 80.960938 L 330.589844 67.382812 L 328.707031 67.183594 C 324.839844 66.691406 321.171875 66.195312 317.40625 68.769531 L 315.917969 69.859375 L 317.308594 71.148438 C 317.703125 71.546875 318.199219 71.941406 318.597656 72.4375 Z M 94.765625 303.417969 C 93.082031 301.832031 91.296875 300.148438 89.613281 298.460938 C 88.621094 297.570312 87.230469 296.878906 85.25 296.28125 C 81.285156 295.09375 76.03125 293.605469 70.777344 292.21875 C 62.449219 290.039062 54.320312 291.128906 47.382812 295.09375 C 40.148438 299.253906 34.101562 305.597656 28.449219 315.109375 C 26.664062 318.183594 26.269531 322.9375 27.558594 327.496094 C 28.648438 331.460938 30.730469 334.433594 33.207031 335.71875 C 38.363281 338.496094 43.914062 340.574219 49.664062 337.007812 C 50.160156 336.710938 50.851562 336.613281 51.449219 336.414062 C 51.746094 336.316406 52.042969 336.214844 52.4375 336.117188 C 54.71875 335.421875 56.007812 335.917969 57.394531 338.199219 C 59.972656 342.359375 63.9375 345.035156 68.398438 345.628906 C 73.058594 346.222656 77.816406 344.640625 81.484375 341.171875 C 82.574219 340.082031 83.863281 339.585938 85.050781 339.683594 C 86.042969 339.785156 87.035156 340.378906 87.828125 341.46875 C 90.304688 344.835938 93.578125 346.125 98.433594 345.828125 C 99.027344 345.925781 99.625 346.027344 100.21875 346.027344 C 103.09375 346.027344 105.671875 344.640625 108.050781 341.863281 C 115.382812 332.945312 113.5 326.109375 107.652344 317.289062 C 104.085938 312.136719 99.324219 307.679688 94.765625 303.417969 Z M 75.933594 62.03125 C 80.09375 60.148438 84.257812 58.265625 89.214844 55.988281 L 92.089844 54.699219 L 89.3125 53.3125 C 83.761719 50.636719 79.796875 50.140625 77.21875 51.828125 C 74.941406 53.3125 73.851562 56.1875 73.949219 60.746094 L 74.046875 63.023438 Z M 285.289062 313.128906 C 284.496094 311.742188 283.605469 310.355469 282.8125 308.964844 C 281.621094 306.886719 279.242188 304.109375 276.664062 303.21875 C 274.980469 302.625 273.195312 301.929688 271.511719 301.238281 C 266.554688 299.253906 261.5 297.273438 256.046875 297.671875 C 248.316406 296.878906 241.871094 300.046875 235.527344 303.617188 C 224.820312 309.660156 218.082031 315.804688 213.71875 323.632812 C 211.4375 327.695312 210.152344 332.351562 209.160156 336.8125 C 208.167969 341.070312 211.738281 346.71875 215.207031 348.304688 C 218.875 349.988281 223.730469 348.703125 227.101562 345.234375 C 231.957031 340.277344 232.75 340.179688 238.105469 344.441406 C 243.65625 348.800781 250.097656 349.792969 255.15625 350.089844 C 255.351562 350.089844 255.453125 350.089844 255.648438 350.089844 C 259.714844 350.089844 261.996094 347.414062 263.976562 345.035156 L 264.375 344.640625 C 267.050781 341.46875 268.238281 341.367188 271.609375 344.042969 C 273.890625 345.828125 276.863281 347.511719 280.136719 348.703125 C 284.59375 350.484375 289.054688 348.703125 291.335938 344.144531 C 293.320312 340.082031 293.8125 335.523438 292.824219 329.972656 C 291.734375 323.632812 288.460938 318.28125 285.289062 313.128906 Z M 330.691406 211.757812 L 330.589844 213.441406 L 328.90625 213.144531 C 328.3125 213.046875 327.617188 212.847656 327.023438 212.75 C 325.832031 212.453125 324.742188 212.253906 323.75 212.253906 C 320.679688 212.453125 317.308594 212.847656 312.945312 213.542969 L 312.449219 213.640625 C 307.890625 214.53125 303.035156 215.324219 298.574219 216.613281 C 295.203125 217.503906 291.832031 218.792969 288.460938 219.984375 C 286.875 220.578125 285.289062 221.171875 283.703125 221.667969 L 278.945312 223.253906 L 282.414062 218.792969 C 285.785156 214.53125 288.957031 210.371094 289.550781 205.019531 C 289.847656 201.453125 290.148438 197.785156 290.148438 194.121094 C 290.34375 182.921875 284 174.597656 277.855469 167.960938 C 272.800781 162.609375 265.464844 161.421875 258.328125 160.332031 L 257.632812 160.230469 C 244.050781 158.152344 230.96875 161.917969 221.054688 165.382812 C 216.496094 166.96875 212.828125 169.941406 210.152344 174.402344 C 204.203125 183.914062 202.714844 194.515625 201.921875 204.523438 C 201.527344 210.171875 202.21875 214.53125 204.203125 218.296875 C 206.285156 222.0625 209.753906 224.34375 213.421875 226.820312 C 214.613281 227.613281 215.800781 228.40625 216.992188 229.296875 C 217.289062 229.496094 218.179688 229.59375 218.773438 229.695312 L 218.875 229.695312 C 234.832031 231.179688 250.59375 230.289062 265.464844 226.917969 L 269.824219 225.929688 L 266.851562 229.296875 C 265.960938 230.386719 265.066406 231.378906 264.175781 232.46875 C 261.894531 235.144531 259.515625 237.917969 256.9375 240.496094 C 253.171875 244.261719 251.386719 249.117188 249.605469 254.167969 C 248.414062 257.4375 247.222656 260.808594 245.441406 263.878906 C 245.242188 264.175781 245.242188 265.265625 245.242188 265.863281 C 245.242188 267.25 245.242188 268.734375 245.242188 270.121094 C 245.242188 274.285156 245.242188 278.546875 245.339844 282.707031 L 245.339844 282.90625 C 245.339844 283.5 245.636719 284.292969 245.9375 285.085938 C 246.132812 285.582031 246.332031 286.175781 246.53125 286.769531 L 246.925781 288.453125 L 245.242188 288.652344 C 244.351562 288.75 243.558594 288.851562 242.664062 288.949219 C 241.078125 289.148438 239.492188 289.347656 237.808594 289.542969 C 235.429688 289.644531 233.050781 289.84375 230.671875 289.941406 C 221.648438 290.4375 212.332031 290.933594 203.113281 291.128906 C 197.164062 291.328125 191.019531 291.425781 184.773438 291.425781 C 180.710938 291.425781 176.644531 291.328125 172.582031 291.230469 C 168.417969 291.128906 164.15625 290.734375 160.089844 290.335938 C 155.136719 289.84375 150.078125 289.347656 145.023438 289.347656 C 133.425781 289.347656 122.621094 286.769531 112.410156 283.996094 C 108.445312 283.003906 104.679688 281.417969 101.011719 279.933594 C 99.324219 279.238281 97.542969 278.546875 95.757812 277.851562 L 93.675781 277.058594 L 95.164062 275.472656 C 95.660156 274.878906 96.253906 274.382812 96.75 273.886719 C 97.738281 272.996094 98.730469 272.105469 99.226562 271.015625 C 103.191406 262.292969 102.5 252.882812 96.945312 242.277344 C 95.558594 239.601562 93.378906 237.027344 91.296875 234.550781 C 90.304688 233.359375 89.3125 232.171875 88.421875 230.980469 L 86.339844 228.308594 L 89.710938 228.605469 C 90.601562 228.703125 91.59375 228.800781 92.484375 228.902344 C 93.875 229.097656 95.261719 229.199219 96.550781 229.296875 C 98.136719 229.398438 99.722656 229.496094 101.308594 229.59375 C 109.039062 230.1875 116.375 230.683594 123.613281 227.613281 C 129.363281 225.136719 133.722656 221.269531 136.101562 216.316406 C 140.265625 207.695312 141.257812 198.578125 138.976562 189.066406 C 134.714844 171.230469 121.332031 159.636719 102.992188 158.050781 C 102.101562 157.953125 101.011719 158.152344 99.921875 158.25 C 98.433594 158.449219 96.945312 158.644531 95.359375 158.347656 C 84.753906 156.269531 76.03125 160.035156 67.109375 170.734375 C 65.027344 173.210938 63.640625 176.285156 62.152344 179.554688 C 61.65625 180.644531 61.160156 181.636719 60.667969 182.726562 C 57.492188 189.265625 56.402344 195.507812 57.394531 201.847656 C 57.792969 204.523438 58.484375 207.199219 59.082031 209.976562 C 59.378906 211.164062 59.675781 212.351562 59.875 213.542969 L 60.367188 215.820312 L 58.089844 215.324219 C 57 215.027344 55.808594 214.832031 54.71875 214.53125 C 52.4375 213.9375 50.058594 213.34375 47.679688 212.949219 C 45.597656 212.550781 43.515625 212.453125 41.433594 212.253906 C 40.148438 212.15625 38.859375 212.054688 37.570312 211.859375 L 36.28125 211.660156 L 36.28125 210.371094 C 36.183594 199.371094 37.964844 188.671875 39.75 179.652344 L 39.949219 178.664062 C 41.734375 169.941406 43.617188 160.925781 48.472656 152.996094 C 49.5625 151.113281 50.753906 149.132812 52.042969 147.050781 L 53.628906 144.574219 L 54.816406 145.070312 C 66.910156 149.828125 79.898438 150.324219 92.484375 150.917969 C 93.972656 151.015625 95.460938 151.015625 96.847656 151.113281 C 104.480469 151.609375 113.003906 150.816406 122.027344 148.835938 C 135.011719 146.0625 147.800781 142.496094 159.894531 138.332031 C 164.847656 136.648438 169.609375 133.875 174.167969 131.199219 C 175.953125 130.207031 177.734375 129.117188 179.621094 128.125 C 183.484375 125.945312 186.558594 123.964844 189.234375 121.882812 C 193.199219 118.613281 197.363281 114.945312 202.023438 110.488281 C 204.699219 107.910156 207.375 105.136719 209.851562 102.5625 C 211.140625 101.273438 212.332031 99.984375 213.621094 98.695312 L 214.808594 97.40625 L 215.800781 98.796875 C 220.558594 105.234375 225.515625 112.074219 230.472656 118.910156 L 232.851562 122.082031 L 230.769531 122.675781 C 229.878906 122.875 228.984375 123.171875 227.992188 123.371094 C 225.714844 123.867188 223.433594 124.359375 221.453125 125.351562 C 218.378906 126.839844 214.511719 128.820312 212.132812 131.59375 C 210.84375 133.082031 209.457031 135.359375 210.152344 137.144531 C 210.84375 138.828125 213.125 140.015625 216.097656 140.414062 C 220.855469 140.910156 226.109375 141.007812 232.058594 140.710938 C 236.617188 140.414062 241.375 139.820312 246.628906 138.730469 C 247.820312 138.53125 249.007812 137.9375 250.398438 137.144531 C 251.191406 136.746094 251.984375 136.351562 252.972656 135.953125 L 253.667969 135.65625 L 254.261719 135.953125 C 255.253906 136.449219 256.34375 137.144531 257.433594 137.738281 C 259.617188 139.027344 261.996094 140.414062 264.472656 141.40625 C 273.59375 145.167969 284.398438 149.429688 295.003906 153.097656 C 300.257812 154.878906 306.007812 154.878906 311.65625 153.195312 C 312.945312 152.800781 314.234375 152.503906 315.722656 152.207031 C 316.515625 152.007812 317.40625 151.90625 318.300781 151.609375 L 319.6875 151.3125 L 320.875 155.671875 C 326.425781 174.003906 331.679688 192.4375 330.691406 211.757812 Z M 127.875 263.085938 C 133.921875 266.851562 139.570312 268.835938 145.519531 269.429688 C 156.324219 270.421875 168.417969 271.410156 178.726562 272.203125 C 190.621094 271.3125 198.75 269.132812 205.988281 264.871094 C 210.050781 262.59375 212.628906 259.023438 213.421875 254.863281 C 214.511719 248.519531 210.546875 242.277344 203.804688 240 L 203.410156 239.898438 C 201.328125 239.207031 198.949219 238.511719 196.964844 237.027344 C 194.585938 235.34375 192.308594 235.144531 189.53125 235.34375 C 187.648438 235.441406 185.765625 235.640625 183.980469 235.738281 C 176.746094 236.234375 169.308594 236.828125 161.875 236.53125 C 156.226562 236.433594 150.574219 235.34375 145.121094 234.351562 C 143.140625 233.953125 141.058594 233.65625 139.074219 233.261719 C 137.984375 233.0625 136.996094 233.0625 136.003906 233.0625 C 131.34375 233.0625 126.984375 234.746094 123.511719 238.117188 C 121.53125 240 117.167969 244.855469 119.25 251 C 120.9375 256.746094 123.808594 260.511719 127.875 263.085938 Z M 189.433594 217.109375 C 189.332031 217.011719 189.136719 216.910156 189.035156 216.8125 C 180.414062 210.964844 171.988281 209.480469 163.261719 212.253906 C 158.503906 213.839844 154.441406 215.523438 152.359375 219.585938 C 153.25 220.28125 153.945312 220.875 154.339844 220.875 C 154.835938 220.972656 155.730469 220.476562 157.316406 219.6875 C 161.578125 217.605469 166.433594 215.722656 171.589844 215.722656 C 174.664062 215.722656 177.933594 216.414062 181.207031 218.101562 C 182.296875 218.695312 183.386719 219.191406 184.476562 219.785156 C 185.566406 220.28125 186.757812 220.875 187.847656 221.46875 C 189.035156 222.164062 189.828125 222.261719 190.226562 222.164062 C 190.324219 222.164062 190.425781 222.0625 190.621094 221.667969 C 191.019531 220.875 190.523438 219.089844 190.226562 217.902344 L 190.125 217.605469 C 189.929688 217.40625 189.632812 217.207031 189.433594 217.109375 Z M 241.078125 203.632812 C 241.773438 203.335938 242.367188 203.136719 243.0625 202.839844 L 244.351562 202.246094 L 243.855469 200.957031 C 243.558594 200.363281 243.359375 199.964844 243.160156 199.570312 L 242.765625 198.976562 L 242.070312 198.875 C 240.484375 198.777344 238.796875 198.578125 237.210938 198.480469 C 235.527344 198.382812 233.742188 198.183594 232.058594 198.085938 C 229.878906 197.886719 228.488281 197.292969 227.695312 196.398438 C 227.003906 195.507812 226.703125 194.121094 226.902344 192.136719 L 227.003906 190.851562 C 227.796875 183.519531 228.488281 176.582031 232.058594 169.941406 L 233.445312 167.464844 L 230.570312 167.761719 C 220.660156 168.851562 213.917969 174.105469 210.449219 183.320312 C 207.574219 190.75 206.382812 199.273438 206.582031 209.28125 C 206.679688 215.820312 214.808594 224.34375 221.253906 224.738281 C 223.234375 224.839844 225.117188 224.9375 227.003906 224.9375 C 228.292969 224.9375 229.578125 224.9375 230.769531 224.9375 C 231.957031 224.9375 233.148438 224.9375 234.238281 224.9375 L 235.824219 224.9375 L 235.726562 223.351562 C 235.625 221.667969 235.429688 220.082031 235.230469 218.597656 C 234.933594 215.523438 234.535156 212.648438 234.734375 209.875 C 234.832031 206.40625 237.210938 205.21875 241.078125 203.632812 Z M 172.679688 266.058594 C 177.242188 266.058594 181.699219 265.863281 186.160156 264.871094 L 187.449219 264.574219 L 187.351562 263.285156 C 187.054688 258.527344 186.757812 254.070312 186.359375 249.609375 C 186.160156 247.035156 185.964844 244.558594 185.863281 241.882812 L 185.765625 240.394531 L 181.898438 240.59375 C 177.835938 240.792969 173.96875 241.089844 170.101562 241.289062 L 168.8125 241.386719 L 167.921875 249.117188 C 167.328125 254.269531 166.734375 259.125 166.238281 264.277344 L 166.136719 265.863281 L 167.722656 265.863281 C 169.308594 265.960938 170.996094 266.058594 172.679688 266.058594 Z M 139.871094 261.601562 L 140.167969 260.3125 C 141.554688 253.871094 142.941406 247.234375 144.328125 240.199219 L 144.628906 238.710938 L 143.140625 238.414062 C 138.382812 237.523438 133.328125 237.125 128.371094 240 C 125.59375 241.585938 122.71875 246.242188 123.414062 249.3125 C 124.703125 255.359375 131.839844 261.007812 138.679688 261.5 Z M 143.042969 263.582031 L 144.824219 263.78125 C 150.179688 264.277344 155.433594 264.671875 162.074219 265.070312 L 163.5625 265.167969 L 163.660156 263.683594 C 164.15625 256.746094 164.550781 250.402344 165.148438 242.972656 L 165.246094 241.484375 L 163.859375 241.289062 C 159.59375 240.792969 155.730469 240.394531 150.476562 239.703125 L 149.1875 239.503906 L 147.601562 245.945312 C 146.3125 251.195312 144.925781 256.347656 143.535156 261.800781 Z M 143.042969 263.582031 " fill-opacity="1" fill-rule="nonzero"/><path fill="#fa9b73" d="M 99.625 241.089844 C 105.472656 252.386719 106.265625 262.492188 101.902344 272.003906 C 101.210938 273.492188 100.019531 274.582031 98.832031 275.671875 C 98.335938 276.167969 97.839844 276.5625 97.34375 277.058594 L 96.945312 277.457031 L 96.351562 277.257812 C 95.660156 277.058594 94.964844 276.859375 94.171875 276.761719 C 92.683594 276.464844 91.097656 276.066406 89.613281 275.472656 C 83.367188 272.796875 76.625 269.824219 69.886719 266.65625 C 68 265.761719 66.21875 264.671875 64.433594 263.683594 C 63.738281 263.285156 63.144531 262.890625 62.449219 262.492188 C 61.953125 262.195312 61.558594 261.800781 61.261719 261.5 C 60.863281 261.105469 60.46875 260.808594 60.269531 260.710938 C 55.414062 260.113281 53.035156 256.84375 50.554688 253.476562 C 50.058594 252.882812 49.5625 252.1875 49.066406 251.492188 L 48.078125 250.207031 L 49.664062 249.910156 C 49.960938 249.808594 50.257812 249.808594 50.554688 249.710938 C 51.546875 249.511719 52.339844 249.3125 53.230469 249.3125 C 55.511719 249.3125 57.792969 249.414062 60.070312 249.511719 C 63.441406 249.609375 66.8125 249.710938 70.183594 249.710938 C 73.75 249.710938 74.742188 249.214844 76.128906 246.242188 C 75.734375 246.144531 75.4375 246.042969 75.039062 245.945312 C 73.554688 245.449219 72.164062 245.054688 70.777344 244.953125 C 63.34375 244.558594 56.800781 244.261719 50.753906 244.160156 C 44.90625 244.0625 44.011719 243.664062 41.929688 238.214844 C 41.238281 236.332031 40.640625 234.351562 40.046875 232.46875 C 39.75 231.28125 39.355469 230.1875 38.957031 229 L 38.757812 228.40625 L 39.15625 228.007812 C 39.355469 227.8125 39.550781 227.710938 39.75 227.515625 C 39.847656 227.414062 40.046875 227.316406 40.148438 227.214844 L 40.640625 226.722656 L 41.238281 227.019531 C 48.375 229.992188 55.214844 232.765625 61.558594 235.242188 L 72.859375 239.703125 C 77.21875 241.386719 78.804688 240.890625 80.292969 238.808594 C 78.410156 235.835938 75.238281 234.746094 72.066406 233.558594 C 71.472656 233.359375 70.976562 233.160156 70.378906 232.964844 C 68.695312 232.269531 67.011719 231.578125 65.324219 230.980469 C 57.59375 227.8125 49.5625 224.640625 41.136719 223.253906 C 39.453125 222.957031 37.371094 220.875 37.171875 219.191406 C 36.777344 216.613281 37.074219 214.039062 37.371094 211.558594 L 37.570312 209.480469 L 38.5625 209.578125 C 39.847656 209.675781 41.039062 209.875 42.328125 209.976562 C 44.410156 210.171875 46.589844 210.371094 48.769531 210.667969 C 51.25 211.066406 53.628906 211.660156 56.007812 212.253906 C 57.097656 212.550781 58.1875 212.847656 59.277344 213.046875 L 59.675781 213.144531 L 59.875 213.441406 C 65.820312 221.171875 73.15625 225.828125 82.472656 227.710938 L 90.601562 229.296875 L 90.800781 229.59375 C 91.691406 230.785156 92.683594 231.972656 93.578125 233.0625 C 95.855469 235.539062 98.039062 238.214844 99.625 241.089844 Z M 330.195312 215.027344 C 330.09375 213.839844 330.09375 212.648438 330.09375 211.558594 L 330.09375 210.769531 L 329.300781 210.667969 C 328.707031 210.570312 328.210938 210.46875 327.617188 210.273438 C 326.328125 209.976562 325.039062 209.675781 323.652344 209.777344 C 320.480469 209.976562 317.011719 210.371094 312.550781 211.066406 L 311.953125 211.164062 C 307.296875 212.054688 302.539062 212.847656 297.878906 214.136719 C 294.410156 215.128906 290.941406 216.316406 287.570312 217.503906 C 285.984375 218.101562 284.398438 218.597656 282.8125 219.191406 L 282.710938 219.191406 C 276.960938 221.964844 271.214844 224.738281 265.066406 227.710938 L 264.871094 227.8125 L 264.769531 227.910156 C 263.582031 229.199219 262.488281 230.585938 261.300781 231.875 C 259.316406 234.253906 257.234375 236.730469 254.957031 238.910156 C 250.792969 243.070312 248.910156 248.324219 247.125 253.476562 C 246.035156 256.648438 244.84375 259.917969 243.0625 262.890625 C 242.566406 263.878906 242.566406 265.167969 242.566406 266.058594 C 242.566406 267.449219 242.566406 268.835938 242.566406 270.320312 C 242.566406 274.484375 242.566406 278.742188 242.664062 282.90625 C 242.664062 284.195312 243.160156 285.285156 243.558594 286.375 C 243.753906 286.769531 243.855469 287.167969 244.050781 287.5625 L 244.25 288.257812 L 245.042969 288.257812 C 246.234375 288.257812 247.523438 288.15625 248.710938 288.15625 C 252.476562 288.058594 256.246094 287.859375 260.109375 287.5625 C 269.925781 286.671875 279.835938 283.996094 290.34375 279.535156 C 298.175781 276.167969 305.214844 271.113281 313.242188 262.988281 L 314.632812 261.601562 L 312.648438 261.304688 C 300.355469 259.71875 289.253906 258.230469 278.054688 256.84375 C 274.683594 256.449219 274.285156 256.449219 274.484375 252.78125 C 283.207031 251.195312 292.03125 252.484375 300.554688 253.671875 C 306.503906 254.566406 312.746094 255.359375 318.792969 255.359375 L 319.390625 255.359375 L 319.6875 254.863281 C 320.082031 254.070312 320.578125 253.277344 320.976562 252.484375 C 323.949219 247.234375 326.921875 241.683594 327.21875 234.847656 L 327.320312 233.460938 L 324.148438 234.449219 C 322.066406 235.144531 320.28125 235.640625 318.398438 236.136719 C 304.421875 239.703125 290.445312 243.171875 276.367188 246.738281 L 274.78125 247.132812 C 273.097656 247.53125 270.914062 248.125 269.03125 247.925781 C 268.238281 247.828125 266.753906 246.738281 266.652344 246.339844 C 266.554688 245.449219 267.644531 243.566406 268.140625 243.367188 C 272.601562 241.683594 277.457031 240.199219 282.8125 238.808594 C 287.867188 237.421875 293.019531 236.136719 297.976562 234.945312 C 301.148438 234.152344 304.222656 233.359375 307.394531 232.566406 C 310.367188 231.773438 313.441406 230.882812 316.414062 230.089844 C 319.390625 229.296875 322.460938 228.40625 325.4375 227.613281 C 328.707031 226.820312 330.390625 225.035156 330.390625 222.359375 C 330.492188 219.882812 330.390625 217.40625 330.195312 215.027344 Z M 330.195312 215.027344 " fill-opacity="1" fill-rule="nonzero"/><path fill="#9682dc" d="M 35.6875 96.8125 C 31.917969 86.707031 30.53125 77.09375 31.621094 67.285156 C 33.007812 54.105469 39.253906 42.609375 50.554688 32.109375 C 57.097656 26.0625 64.234375 23.386719 72.5625 23.980469 C 73.851562 24.082031 75.140625 24.082031 76.328125 24.179688 C 82.574219 24.476562 89.117188 24.773438 94.964844 28.242188 C 95.855469 28.835938 96.847656 29.332031 97.839844 29.925781 C 104.28125 33.691406 111.023438 37.558594 113.996094 46.671875 L 114.589844 48.65625 L 112.609375 49.25 C 111.519531 49.546875 110.429688 49.84375 109.335938 50.242188 C 105.371094 51.429688 101.605469 52.519531 97.839844 53.410156 C 96.351562 53.808594 95.164062 53.015625 94.070312 52.421875 C 93.773438 52.222656 93.476562 52.023438 93.179688 51.925781 C 92.089844 51.429688 91 50.835938 89.910156 50.242188 C 87.628906 49.050781 85.546875 47.863281 83.367188 47.367188 C 79.796875 46.574219 76.527344 47.070312 74.046875 48.753906 C 71.472656 50.539062 69.785156 53.609375 69.191406 57.671875 C 67.902344 67.085938 64.136719 74.519531 57.296875 81.15625 C 55.710938 82.742188 54.421875 84.921875 53.035156 87.203125 C 52.242188 88.589844 51.347656 89.976562 50.355469 91.265625 C 48.769531 93.644531 46.988281 95.921875 45.203125 98.300781 C 44.210938 99.589844 43.21875 100.976562 42.226562 102.363281 L 40.542969 104.640625 L 39.15625 102.164062 C 38.757812 101.472656 38.261719 100.875 37.867188 100.378906 C 36.976562 99.191406 36.179688 98.101562 35.6875 96.8125 Z M 306.304688 65.105469 C 309.773438 67.484375 313.046875 67.484375 316.316406 65.203125 C 320.183594 62.429688 324.941406 62.132812 329.105469 62.230469 C 332.871094 62.328125 334.457031 64.707031 335.050781 66.589844 C 335.945312 69.664062 336.140625 72.832031 335.347656 74.914062 C 333.464844 80.5625 332.472656 86.507812 338.519531 91.460938 C 338.820312 91.761719 339.117188 92.355469 339.414062 93.046875 C 339.613281 93.445312 339.808594 93.839844 340.007812 94.238281 C 341.792969 97.308594 343.578125 100.480469 345.460938 103.652344 C 346.847656 106.027344 348.234375 108.40625 349.625 110.882812 L 350.8125 112.964844 L 352.597656 111.28125 C 359.238281 105.234375 363.304688 99.785156 365.78125 93.542969 C 370.144531 82.644531 369.25 71.148438 363.105469 58.367188 C 361.222656 54.402344 358.644531 51.035156 355.96875 48.753906 C 352.398438 45.78125 348.234375 43.601562 343.578125 41.222656 C 338.023438 38.449219 332.078125 37.65625 325.832031 38.945312 C 316.515625 40.925781 309.675781 46.671875 303.527344 52.421875 C 302.339844 53.511719 301.445312 54.898438 300.554688 56.285156 C 300.160156 56.878906 299.761719 57.476562 299.367188 58.070312 L 298.175781 59.753906 L 299.960938 60.84375 C 302.339844 62.527344 304.320312 63.816406 306.304688 65.105469 Z M 365.878906 187.878906 C 364.890625 176.582031 363.402344 166.96875 361.617188 158.25 C 358.84375 145.664062 355.472656 134.863281 351.40625 125.253906 C 346.945312 114.550781 340.898438 104.640625 335.050781 95.03125 L 334.257812 93.742188 C 330.09375 86.90625 323.75 82.644531 317.605469 78.582031 C 315.722656 77.390625 313.839844 76.105469 312.054688 74.714844 C 304.917969 69.464844 297.085938 64.113281 287.964844 60.84375 C 285.191406 59.851562 282.515625 58.464844 279.738281 56.980469 C 276.960938 55.492188 274.089844 54.007812 271.015625 52.917969 C 257.238281 48.0625 242.664062 44.691406 227.992188 43.007812 C 216.59375 41.71875 205.390625 40.628906 193.792969 41.71875 C 189.035156 42.214844 184.179688 42.3125 179.421875 42.511719 C 175.058594 42.710938 170.597656 42.808594 166.136719 43.207031 C 161.976562 43.503906 158.007812 44.296875 154.144531 45.089844 C 152.855469 45.386719 151.46875 45.582031 150.179688 45.882812 C 147.699219 46.375 145.121094 46.773438 142.546875 47.167969 C 135.507812 48.359375 128.269531 49.546875 121.332031 51.726562 C 117.070312 53.113281 112.609375 53.90625 108.246094 54.800781 C 100.910156 56.285156 93.277344 57.773438 86.339844 61.636719 C 85.644531 62.03125 84.851562 62.429688 84.160156 62.824219 C 80.09375 65.105469 75.933594 67.382812 72.660156 70.652344 C 62.351562 81.355469 54.421875 93.445312 45.894531 107.117188 C 35.191406 124.164062 26.46875 142.59375 19.925781 161.816406 C 13.878906 179.949219 8.722656 196.300781 7.730469 214.039062 C 7.632812 215.523438 7.433594 217.011719 7.335938 218.496094 C 7.039062 221.074219 6.742188 223.75 6.9375 226.425781 C 7.433594 232.667969 8.226562 239.40625 9.417969 247.035156 C 11.300781 258.132812 15.363281 268.539062 21.609375 277.949219 C 24.386719 282.113281 28.054688 285.582031 31.621094 288.949219 C 32.414062 289.742188 33.207031 290.4375 34 291.230469 C 36.578125 293.804688 39.949219 294.300781 42.921875 292.417969 C 50.753906 287.464844 58.980469 285.582031 67.507812 286.96875 C 83.167969 289.542969 94.964844 295.789062 103.589844 306.191406 C 107.554688 310.847656 112.015625 313.128906 118.257812 313.425781 C 123.015625 313.722656 127.875 314.019531 132.535156 314.417969 C 138.777344 314.910156 145.222656 315.40625 151.664062 315.605469 C 169.804688 316.300781 188.34375 316.695312 206.382812 317.089844 C 207.96875 317.089844 210.449219 316.597656 211.933594 315.011719 C 217.1875 309.957031 222.34375 304.605469 226.902344 299.851562 L 230.273438 296.28125 L 225.316406 296.480469 C 222.9375 296.578125 220.558594 296.679688 218.179688 296.777344 C 210.644531 297.175781 202.914062 297.570312 195.183594 297.273438 C 183.78125 297.074219 172.183594 296.679688 160.882812 296.183594 C 157.117188 295.984375 153.351562 295.886719 149.582031 295.6875 C 143.535156 295.488281 137.6875 294.894531 133.226562 294.398438 C 120.738281 293.113281 109.039062 289.445312 95.164062 284.292969 C 93.972656 283.894531 92.785156 283.5 91.59375 283.105469 C 89.3125 282.410156 87.132812 281.714844 85.152344 280.726562 C 74.246094 275.472656 64.828125 270.71875 56.304688 266.058594 C 53.726562 264.671875 50.257812 262.492188 48.273438 259.71875 C 43.617188 253.871094 39.847656 247.828125 37.074219 241.882812 C 33.109375 233.460938 31.027344 225.035156 30.929688 216.8125 C 30.828125 201.355469 33.902344 186.492188 36.875 174.105469 C 40.839844 157.753906 48.273438 143.1875 59.574219 129.710938 C 66.714844 121.191406 75.039062 113.558594 84.554688 107.21875 C 94.964844 100.183594 109.039062 91.660156 125.496094 87.894531 C 133.722656 86.011719 142.25 84.824219 150.574219 83.632812 C 154.539062 83.039062 158.605469 82.542969 162.570312 81.851562 C 178.132812 79.375 194.09375 80.167969 209.457031 80.859375 C 211.4375 80.960938 213.324219 81.058594 215.207031 81.15625 L 215.304688 81.15625 C 218.476562 81.355469 221.648438 81.554688 224.625 82.246094 C 228.191406 83.140625 231.761719 83.933594 235.230469 84.722656 C 243.753906 86.605469 252.476562 88.589844 260.804688 91.859375 C 261.996094 92.355469 263.28125 92.851562 264.472656 93.34375 C 274.089844 97.109375 283.207031 100.679688 291.433594 106.820312 C 301.941406 114.75 310.367188 123.566406 316.910156 133.875 C 322.660156 142.792969 326.824219 153.097656 329.300781 164.492188 C 331.285156 173.3125 332.574219 180.445312 333.265625 186.984375 C 333.863281 193.03125 334.160156 199.175781 334.359375 205.21875 C 334.554688 209.183594 334.753906 213.34375 334.953125 217.40625 C 334.953125 217.703125 334.953125 218 334.953125 218.296875 C 334.953125 220.578125 335.050781 223.75 337.925781 226.226562 C 338.125 226.425781 338.222656 226.523438 338.222656 226.621094 C 338.222656 226.722656 337.925781 227.214844 337.230469 227.710938 C 334.257812 229.496094 333.566406 232.171875 333.070312 234.550781 C 332.773438 236.53125 332.078125 238.808594 331.285156 241.089844 C 330.691406 242.773438 329.996094 244.558594 329.300781 246.339844 C 328.113281 249.414062 326.824219 252.582031 326.03125 255.953125 C 325.4375 258.429688 325.039062 259.621094 323.253906 260.609375 C 322.066406 261.304688 321.171875 262.394531 320.378906 263.382812 L 320.082031 263.78125 C 312.449219 273.589844 302.539062 281.023438 290.640625 285.777344 C 285.882812 287.660156 281.125 289.542969 274.882812 292.023438 L 271.3125 293.410156 L 274.484375 295.488281 C 280.628906 299.453125 287.371094 304.605469 291.433594 312.632812 L 292.128906 314.019531 L 293.617188 313.722656 C 296.09375 313.226562 298.574219 312.730469 301.050781 312.234375 C 308.78125 310.652344 316.117188 309.261719 323.554688 307.378906 C 324.246094 307.183594 324.941406 306.984375 325.734375 306.785156 C 331.878906 305.199219 338.820312 303.417969 343.378906 297.570312 L 344.070312 296.679688 C 347.542969 292.320312 351.109375 287.761719 353.785156 282.707031 C 363.304688 264.574219 367.464844 243.367188 366.96875 216.019531 C 367.167969 204.820312 366.671875 196.003906 365.878906 187.878906 Z M 365.878906 187.878906 " fill-opacity="1" fill-rule="nonzero"/><path fill="#fadc32" d="M 82.375 117.722656 L 76.230469 117.917969 L 81.085938 114.15625 C 115.285156 87.597656 154.242188 84.328125 184.378906 84.425781 L 190.226562 84.425781 L 185.566406 87.996094 C 154.042969 111.875 117.269531 116.433594 82.375 117.722656 Z M 299.761719 127.035156 L 304.421875 128.226562 L 301.941406 124.0625 C 294.011719 110.882812 265.5625 95.523438 253.074219 95.425781 L 248.414062 95.425781 L 251.683594 98.796875 C 265.167969 113.0625 280.929688 122.28125 299.761719 127.035156 Z M 216.296875 85.023438 L 213.023438 84.824219 C 212.132812 84.722656 211.339844 84.722656 210.546875 84.722656 C 208.761719 84.625 207.277344 84.527344 205.789062 84.328125 C 198.949219 83.238281 191.714844 83.335938 185.566406 90.671875 C 181.105469 95.824219 174.5625 98.695312 168.21875 101.472656 C 166.632812 102.164062 165.046875 102.859375 163.363281 103.652344 C 146.3125 111.675781 127.179688 116.632812 104.878906 118.613281 C 99.625 119.109375 94.171875 119.207031 88.917969 119.40625 C 85.347656 119.503906 81.78125 119.605469 78.113281 119.800781 C 76.921875 119.902344 73.949219 120.296875 72.265625 122.082031 C 68.894531 125.550781 65.722656 129.214844 62.351562 133.082031 C 60.765625 134.863281 59.277344 136.550781 57.59375 138.429688 L 55.511719 140.808594 L 58.484375 141.703125 C 59.574219 142 60.566406 142.296875 61.359375 142.59375 C 62.550781 142.988281 63.640625 143.386719 64.828125 143.585938 C 68.199219 144.277344 71.472656 144.675781 74.347656 144.972656 C 76.527344 145.167969 78.804688 145.46875 80.988281 145.664062 C 86.835938 146.257812 92.882812 146.953125 98.929688 146.953125 C 99.226562 146.953125 99.523438 146.953125 99.820312 146.953125 C 107.355469 146.855469 115.085938 145.863281 122.917969 144.078125 L 125.59375 143.484375 C 136.796875 140.808594 148.296875 138.132812 159.199219 133.972656 C 172.183594 129.019531 184.875 120.992188 196.867188 109.992188 C 203.210938 104.144531 208.960938 96.914062 214.511719 87.996094 Z M 233.84375 125.648438 L 233.644531 125.648438 C 227.003906 126.539062 219.46875 127.53125 213.621094 133.972656 L 211.339844 136.449219 L 214.613281 137.242188 C 217.882812 137.9375 221.847656 138.332031 226.011719 138.332031 C 233.941406 138.332031 242.464844 137.042969 246.925781 134.765625 L 249.007812 133.773438 L 247.621094 131.890625 C 244.449219 127.234375 239.394531 124.957031 233.84375 125.648438 Z M 318.101562 145.664062 C 317.605469 144.871094 317.207031 144.078125 316.714844 143.386719 C 315.027344 140.414062 313.539062 137.835938 311.757812 135.457031 C 310.46875 133.574219 308.089844 132.386719 306.402344 131.992188 C 296.09375 129.710938 286.082031 125.746094 274.78125 119.605469 C 263.679688 113.660156 254.558594 105.730469 247.421875 96.316406 C 245.042969 93.148438 242.070312 89.976562 236.71875 88.984375 C 232.652344 88.191406 228.6875 87.300781 224.523438 86.210938 C 223.335938 85.914062 222.144531 85.617188 220.855469 85.320312 L 219.566406 85.023438 L 218.773438 86.113281 C 218.578125 86.410156 218.179688 86.707031 217.882812 87.101562 L 216.992188 87.996094 L 217.484375 89.183594 C 217.785156 89.878906 217.980469 90.570312 218.277344 91.265625 C 218.972656 93.148438 219.667969 95.128906 220.660156 97.011719 C 225.515625 106.128906 231.265625 113.363281 238.203125 119.207031 C 249.40625 128.820312 261.597656 136.351562 274.386719 141.703125 C 277.160156 142.890625 280.035156 143.78125 282.910156 144.675781 C 285.785156 145.566406 288.859375 146.558594 291.632812 147.746094 C 295.5 149.429688 299.265625 150.023438 303.035156 150.023438 C 306.402344 150.023438 309.773438 149.628906 313.242188 149.132812 C 314.332031 149.035156 315.523438 148.835938 316.613281 148.738281 L 319.6875 148.339844 Z M 318.101562 145.664062 " fill-opacity="1" fill-rule="nonzero"/><path fill="#3c50be" d="M 257.234375 358.511719 C 255.351562 358.511719 253.46875 358.511719 251.585938 358.511719 C 251.191406 358.113281 250.890625 357.421875 250.398438 357.324219 C 243.953125 356.132812 238.402344 353.0625 233.347656 349.296875 C 231.660156 350.585938 229.976562 351.972656 228.191406 353.257812 C 223.433594 356.726562 218.378906 356.628906 213.125 354.648438 C 203.113281 350.882812 199.742188 338.890625 202.121094 330.964844 C 202.914062 328.386719 203.507812 325.710938 204.300781 322.542969 C 175.058594 323.53125 146.511719 322.34375 117.464844 318.777344 C 123.414062 332.847656 119.84375 344.144531 107.949219 351.675781 C 100.21875 356.628906 91.992188 353.457031 84.160156 348.503906 C 80.09375 353.855469 73.949219 353.753906 68.101562 352.566406 C 62.054688 351.378906 56.898438 348.105469 53.035156 343.054688 C 51.746094 343.550781 50.652344 343.746094 49.664062 344.242188 C 45.003906 346.71875 40.542969 346.125 35.6875 344.339844 C 25.476562 340.578125 19.328125 329.773438 20.222656 321.054688 C 20.816406 314.316406 23.59375 308.867188 27.558594 303.714844 C 29.339844 301.433594 31.125 299.058594 32.414062 297.371094 C 29.042969 294.996094 25.871094 293.011719 23.097656 290.632812 C 18.535156 286.671875 15.761719 281.417969 12.789062 276.265625 C 6.144531 264.871094 2.378906 252.582031 0.890625 239.703125 C 0 231.578125 0.496094 223.253906 0.695312 215.027344 C 0.890625 209.082031 1.386719 203.136719 2.476562 197.390625 C 5.253906 183.417969 9.121094 169.84375 13.878906 156.367188 C 19.132812 141.402344 25.476562 126.9375 33.902344 113.363281 C 35.191406 111.28125 35.386719 109.300781 34.101562 107.21875 C 32.515625 104.640625 30.828125 102.261719 29.738281 99.488281 C 24.582031 86.707031 22.699219 73.429688 25.972656 60.050781 C 29.9375 44 39.355469 31.511719 53.429688 22.496094 C 63.9375 15.757812 75.632812 16.351562 86.636719 18.53125 C 100.8125 21.304688 112.210938 29.332031 118.855469 42.808594 C 119.25 43.601562 119.84375 44.394531 120.441406 45.1875 C 180.113281 30.027344 238.601562 29.628906 295.101562 57.175781 C 296.886719 53.808594 297.878906 50.835938 299.761719 48.65625 C 309.972656 36.46875 323.15625 30.324219 338.820312 34.1875 C 353.984375 37.855469 365.878906 46.574219 370.835938 62.328125 C 372.222656 66.589844 373.214844 71.050781 374.503906 75.410156 C 374.503906 80.464844 374.40625 85.515625 374.40625 90.472656 C 374.109375 90.96875 373.613281 91.460938 373.511719 92.058594 C 370.339844 101.570312 365.980469 110.289062 357.453125 116.234375 C 356.761719 116.730469 356.066406 117.425781 355.371094 118.019531 C 355.867188 119.605469 356.265625 120.890625 356.761719 122.28125 C 356.957031 122.875 357.15625 123.46875 357.453125 124.0625 C 365.78125 143.980469 370.9375 164.789062 372.621094 186.292969 C 374.109375 205.515625 375 224.738281 372.71875 244.0625 C 370.539062 262.394531 365.382812 279.636719 354.382812 294.597656 C 350.613281 299.75 345.460938 304.605469 339.808594 307.480469 C 332.574219 311.246094 324.347656 313.226562 316.316406 315.308594 C 310.367188 316.894531 304.125 317.585938 297.878906 318.675781 C 298.078125 319.46875 298.175781 320.0625 298.375 320.660156 C 300.160156 327.992188 302.140625 335.125 299.859375 342.855469 C 296.886719 353.0625 289.949219 359.105469 278.945312 356.132812 C 275.179688 355.140625 271.808594 352.566406 268.734375 350.882812 C 264.671875 353.359375 260.902344 355.933594 257.234375 358.511719 Z M 329.203125 211.558594 C 330.195312 191.542969 324.542969 172.71875 319.191406 153.492188 C 316.613281 154.085938 314.632812 154.386719 312.648438 154.980469 C 306.800781 156.664062 300.652344 156.664062 295.101562 154.878906 C 284.695312 151.414062 274.582031 147.351562 264.472656 143.1875 C 260.605469 141.601562 257.136719 139.222656 254.164062 137.640625 C 251.386719 138.828125 249.503906 140.117188 247.523438 140.511719 C 242.664062 141.402344 237.707031 142.195312 232.75 142.496094 C 227.300781 142.792969 221.847656 142.792969 216.496094 142.195312 C 210.546875 141.601562 205.789062 137.539062 211.539062 130.902344 C 214.015625 128.027344 217.882812 125.945312 221.351562 124.261719 C 224.523438 122.773438 228.09375 122.28125 230.96875 121.488281 C 225.613281 114.15625 220.261719 106.820312 215.207031 99.886719 C 211.4375 103.75 207.671875 107.910156 203.609375 111.777344 C 199.445312 115.738281 195.183594 119.703125 190.722656 123.269531 C 187.746094 125.746094 184.277344 127.730469 180.90625 129.613281 C 174.367188 133.277344 168.019531 137.539062 160.984375 139.917969 C 148.492188 144.179688 135.804688 147.648438 122.917969 150.421875 C 114.589844 152.207031 105.769531 153.195312 97.34375 152.699219 C 83.070312 151.90625 68.597656 151.90625 54.816406 146.558594 C 53.230469 149.132812 51.746094 151.511719 50.355469 153.890625 C 45.597656 162.015625 43.714844 171.03125 41.832031 180.050781 C 39.75 190.058594 38.261719 200.066406 38.363281 210.371094 C 38.261719 213.144531 37.867188 216.019531 38.261719 218.792969 C 38.460938 220.082031 40.148438 221.867188 41.433594 222.0625 C 51.746094 223.75 61.261719 228.109375 70.875 231.875 C 74.742188 233.359375 79.300781 234.449219 81.582031 238.710938 C 79.402344 241.882812 77.21875 242.277344 72.5625 240.496094 C 68.792969 239.007812 65.027344 237.523438 61.261719 236.035156 C 54.519531 233.359375 47.679688 230.585938 40.941406 227.8125 C 40.640625 228.109375 40.246094 228.304688 39.949219 228.605469 C 40.941406 231.675781 41.734375 234.746094 42.824219 237.71875 C 44.804688 242.871094 45.300781 242.972656 50.753906 243.070312 C 57.492188 243.171875 64.234375 243.46875 70.875 243.863281 C 73.058594 244.0625 75.238281 244.953125 77.519531 245.546875 C 75.734375 249.710938 74.542969 250.601562 70.183594 250.601562 C 64.53125 250.601562 58.882812 250.304688 53.230469 250.207031 C 52.242188 250.207031 51.25 250.503906 49.859375 250.800781 C 53.035156 254.863281 55.113281 258.925781 60.367188 259.621094 C 61.359375 259.71875 62.054688 260.90625 63.046875 261.5 C 65.425781 262.890625 67.804688 264.476562 70.378906 265.664062 C 76.921875 268.734375 83.464844 271.609375 90.105469 274.484375 C 92.1875 275.375 94.46875 275.671875 96.648438 276.265625 C 102.199219 278.347656 107.554688 280.921875 113.203125 282.410156 C 123.710938 285.183594 134.316406 287.5625 145.421875 287.660156 C 154.640625 287.660156 163.757812 289.246094 172.976562 289.542969 C 183.089844 289.839844 193.199219 289.742188 203.410156 289.445312 C 215.007812 289.148438 226.507812 288.453125 238.105469 287.859375 C 240.582031 287.761719 242.960938 287.265625 245.441406 286.96875 C 250.398438 286.769531 255.453125 286.769531 260.410156 286.273438 C 270.816406 285.382812 280.730469 282.410156 290.34375 278.347656 C 298.96875 274.679688 306.007812 268.933594 312.945312 261.996094 C 300.953125 260.410156 289.652344 258.925781 278.351562 257.539062 C 274.089844 257.042969 273.59375 256.546875 273.890625 251.691406 C 289.15625 248.71875 304.125 254.367188 319.191406 254.070312 C 322.5625 247.828125 326.230469 242.082031 326.625 234.449219 C 323.75 235.34375 321.371094 236.132812 318.992188 236.730469 C 304.421875 240.394531 289.847656 244.160156 275.375 247.726562 C 273.394531 248.222656 271.3125 248.71875 269.328125 248.519531 C 268.042969 248.421875 266.058594 246.9375 266.058594 246.042969 C 265.960938 244.753906 267.050781 242.476562 268.238281 242.082031 C 272.996094 240.296875 278.054688 238.808594 283.007812 237.523438 C 291.136719 235.34375 299.367188 233.460938 307.59375 231.277344 C 313.640625 229.695312 319.585938 227.910156 325.734375 226.324219 C 328.210938 225.730469 329.796875 224.441406 329.898438 221.964844 C 329.5 218.792969 329.300781 215.226562 329.203125 211.558594 Z M 225.21875 298.5625 C 215.40625 298.957031 205.195312 299.75 195.082031 299.652344 C 179.917969 299.453125 164.652344 298.660156 149.484375 298.066406 C 144.03125 297.867188 138.480469 297.371094 133.03125 296.777344 C 119.648438 295.292969 106.957031 291.230469 94.46875 286.570312 C 91.097656 285.285156 87.53125 284.589844 84.257812 283.003906 C 74.542969 278.25 64.828125 273.394531 55.3125 268.339844 C 52.042969 266.554688 48.671875 264.277344 46.589844 261.402344 C 42.425781 255.65625 38.460938 249.511719 35.386719 243.070312 C 31.621094 234.945312 29.144531 226.226562 29.042969 217.207031 C 28.847656 202.542969 31.523438 188.273438 35.089844 174.003906 C 39.253906 156.960938 47.085938 142.097656 58.1875 128.820312 C 65.523438 120 74.046875 112.371094 83.566406 105.929688 C 96.453125 97.210938 109.933594 89.777344 125 86.308594 C 137.191406 83.535156 149.78125 82.246094 162.171875 80.265625 C 179.816406 77.492188 197.5625 78.777344 215.304688 79.570312 C 218.578125 79.769531 221.945312 79.96875 225.117188 80.761719 C 237.3125 83.734375 249.703125 85.816406 261.5 90.472656 C 272.304688 94.734375 283.109375 98.5 292.625 105.632812 C 302.933594 113.363281 311.757812 122.378906 318.597656 133.179688 C 324.742188 142.792969 328.804688 153.296875 331.285156 164.394531 C 332.96875 171.925781 334.457031 179.453125 335.25 187.085938 C 336.242188 197.191406 336.242188 207.398438 337.035156 217.605469 C 337.230469 220.082031 336.835938 222.855469 339.3125 224.9375 C 341.296875 226.523438 340.207031 228.503906 338.421875 229.59375 C 336.242188 230.882812 335.644531 232.765625 335.25 235.042969 C 334.851562 237.324219 334.160156 239.703125 333.367188 241.882812 C 331.582031 246.738281 329.203125 251.492188 328.113281 256.449219 C 327.519531 259.125 326.921875 261.105469 324.445312 262.394531 C 323.453125 262.988281 322.5625 264.078125 321.867188 265.070312 C 313.839844 275.375 303.726562 282.804688 291.632812 287.660156 C 286.875 289.542969 282.117188 291.425781 275.871094 293.90625 C 283.605469 298.859375 289.652344 304.011719 293.515625 311.839844 C 303.726562 309.660156 313.640625 307.976562 323.355469 305.5 C 330.09375 303.714844 337.429688 302.425781 342.089844 296.382812 C 345.757812 291.722656 349.625 286.96875 352.300781 281.816406 C 363.003906 261.203125 365.78125 238.910156 365.285156 216.117188 C 365.085938 206.902344 364.789062 197.589844 363.796875 188.375 C 362.808594 178.5625 361.617188 168.652344 359.535156 159.042969 C 357.15625 147.945312 353.886719 136.945312 349.425781 126.34375 C 344.863281 115.246094 338.621094 105.234375 332.472656 95.128906 C 327.320312 86.707031 318.398438 82.246094 310.765625 76.699219 C 303.429688 71.347656 295.894531 66.292969 287.171875 63.121094 C 281.324219 61.042969 276.070312 57.277344 270.222656 55.195312 C 256.441406 50.339844 242.167969 47.070312 227.597656 45.386719 C 216.394531 44.097656 205.195312 42.910156 193.792969 44.097656 C 184.574219 44.988281 175.355469 44.792969 166.136719 45.582031 C 160.882812 45.980469 155.628906 47.269531 150.375 48.257812 C 140.859375 50.140625 131.046875 51.230469 121.828125 54.105469 C 110.429688 57.773438 97.9375 57.773438 87.230469 63.816406 C 82.574219 66.394531 77.519531 68.769531 73.949219 72.535156 C 63.640625 82.839844 55.511719 95.523438 47.679688 108.109375 C 36.976562 125.152344 28.449219 143.386719 21.90625 162.410156 C 16.257812 179.15625 10.804688 196.101562 9.8125 214.039062 C 9.617188 218.101562 8.625 222.164062 8.921875 226.226562 C 9.316406 233.0625 10.308594 239.898438 11.398438 246.636719 C 13.085938 257.539062 17.050781 267.644531 23.097656 276.761719 C 26.269531 281.617188 30.929688 285.582031 35.191406 289.742188 C 36.875 291.425781 39.253906 292.21875 41.632812 290.632812 C 49.5625 285.582031 58.1875 283.300781 67.605469 284.886719 C 82.277344 287.265625 95.261719 293.210938 104.878906 304.804688 C 108.542969 309.164062 112.707031 311.144531 118.160156 311.34375 C 129.261719 311.9375 140.363281 313.027344 151.46875 313.523438 C 169.707031 314.21875 187.847656 314.613281 206.085938 315.011719 C 207.472656 315.011719 209.257812 314.515625 210.25 313.523438 C 215.503906 308.667969 220.359375 303.417969 225.21875 298.5625 Z M 59.082031 139.621094 C 61.855469 140.414062 63.539062 141.105469 65.324219 141.402344 C 68.398438 142 71.472656 142.496094 74.644531 142.792969 C 83.070312 143.585938 91.496094 144.871094 99.921875 144.773438 C 107.554688 144.675781 115.1875 143.683594 122.621094 142 C 134.8125 139.222656 147.007812 136.351562 158.605469 131.890625 C 172.382812 126.640625 184.675781 118.414062 195.679688 108.308594 C 202.519531 102.066406 208.070312 94.832031 213.023438 86.707031 C 210.25 86.507812 207.871094 86.410156 205.589844 86.113281 C 198.554688 85.023438 192.605469 85.515625 187.152344 91.761719 C 181.304688 98.597656 172.382812 101.472656 164.355469 105.234375 C 145.617188 114.054688 125.695312 118.613281 105.175781 120.398438 C 96.253906 121.191406 87.332031 121.089844 78.410156 121.585938 C 76.824219 121.683594 74.839844 122.179688 73.851562 123.269531 C 68.894531 128.523438 64.332031 133.773438 59.082031 139.621094 Z M 98.53125 344.539062 C 101.605469 345.035156 104.382812 343.847656 106.761719 340.972656 C 113.304688 333.046875 112.113281 327 106.265625 318.183594 C 101.605469 311.144531 94.566406 305.597656 88.519531 299.550781 C 87.53125 298.660156 86.042969 298.066406 84.753906 297.671875 C 79.996094 296.28125 75.140625 294.894531 70.28125 293.605469 C 62.550781 291.625 54.816406 292.417969 47.976562 296.382812 C 39.949219 300.941406 34.199219 308.074219 29.539062 315.902344 C 26.367188 321.253906 28.746094 331.855469 33.703125 334.53125 C 38.460938 337.109375 43.417969 339.089844 48.769531 335.820312 C 49.664062 335.324219 50.851562 335.125 51.84375 334.828125 C 54.816406 333.9375 56.800781 334.730469 58.484375 337.503906 C 63.441406 345.53125 73.453125 346.621094 80.390625 340.179688 C 83.167969 337.601562 86.636719 337.601562 88.917969 340.675781 C 91.394531 343.945312 94.371094 344.835938 98.53125 344.539062 Z M 256.246094 299.058594 C 248.414062 298.460938 242.269531 301.632812 236.222656 305.003906 C 227.597656 309.859375 219.863281 315.703125 215.007812 324.425781 C 212.828125 328.289062 211.636719 332.746094 210.644531 337.207031 C 209.851562 340.773438 213.023438 345.730469 215.898438 347.015625 C 218.972656 348.402344 223.136719 347.3125 226.109375 344.242188 C 231.5625 338.695312 233.246094 338.695312 239.097656 343.351562 C 243.855469 347.117188 249.40625 348.304688 255.253906 348.703125 C 259.121094 348.898438 261.101562 346.222656 263.183594 343.746094 C 266.554688 339.785156 268.636719 339.882812 272.503906 342.953125 C 274.882812 344.835938 277.753906 346.324219 280.628906 347.414062 C 284.59375 349 288.066406 347.3125 289.949219 343.550781 C 292.03125 339.289062 292.128906 334.929688 291.335938 330.269531 C 290.046875 322.441406 285.289062 316.300781 281.523438 309.757812 C 280.332031 307.679688 278.25 305.398438 276.167969 304.707031 C 269.628906 302.226562 263.28125 298.363281 256.246094 299.058594 Z M 112.3125 47.367188 C 109.039062 37.558594 101.109375 34.1875 93.972656 30.027344 C 87.429688 26.0625 79.898438 26.460938 72.460938 25.964844 C 64.234375 25.371094 57.59375 28.242188 51.941406 33.496094 C 42.03125 42.710938 35.089844 53.511719 33.605469 67.484375 C 32.515625 77.492188 34.101562 86.90625 37.570312 96.121094 C 38.164062 97.804688 39.550781 99.09375 40.839844 101.074219 C 43.8125 97.011719 46.492188 93.542969 48.96875 89.976562 C 51.445312 86.507812 53.230469 82.445312 56.105469 79.570312 C 62.449219 73.328125 66.117188 66.292969 67.40625 57.175781 C 68.695312 48.257812 75.140625 43.304688 83.960938 45.285156 C 87.53125 46.078125 90.800781 48.359375 94.171875 49.945312 C 95.261719 50.4375 96.550781 51.628906 97.441406 51.332031 C 102.496094 50.242188 107.15625 48.855469 112.3125 47.367188 Z M 351.40625 109.792969 C 357.355469 104.542969 361.519531 99.191406 363.996094 92.851562 C 368.558594 81.355469 366.574219 70.058594 361.417969 59.257812 C 359.832031 55.988281 357.554688 52.621094 354.777344 50.339844 C 351.210938 47.367188 346.945312 45.1875 342.785156 43.105469 C 337.628906 40.53125 332.078125 39.835938 326.328125 41.027344 C 317.605469 42.910156 311.160156 48.257812 304.917969 54.007812 C 303.429688 55.394531 302.4375 57.375 301.050781 59.355469 C 303.527344 60.941406 305.511719 62.230469 307.394531 63.519531 C 309.972656 65.304688 312.351562 65.601562 315.125 63.617188 C 319.289062 60.644531 324.148438 60.148438 329.105469 60.25 C 333.167969 60.347656 335.84375 62.628906 336.933594 65.996094 C 337.828125 68.96875 338.222656 72.636719 337.230469 75.507812 C 335.347656 81.058594 334.851562 85.816406 339.808594 89.976562 C 340.703125 90.769531 341.097656 92.15625 341.691406 93.246094 C 344.863281 98.5 347.9375 103.847656 351.40625 109.792969 Z M 220.558594 87.300781 C 220.164062 87.695312 219.765625 88.09375 219.371094 88.390625 C 220.359375 90.96875 221.152344 93.542969 222.441406 96.019531 C 226.804688 104.246094 232.257812 111.578125 239.492188 117.621094 C 250.296875 126.839844 262.191406 134.367188 275.179688 139.820312 C 280.730469 142.195312 286.875 143.386719 292.425781 145.863281 C 300.257812 149.332031 307.890625 147.648438 316.414062 146.65625 C 314.136719 142.792969 312.351562 139.523438 310.171875 136.550781 C 309.277344 135.261719 307.492188 134.269531 306.007812 133.875 C 294.609375 131.296875 284.101562 126.839844 273.890625 121.289062 C 262.886719 115.34375 253.371094 107.417969 245.9375 97.40625 C 243.257812 93.839844 240.683594 91.660156 236.417969 90.867188 C 231.164062 89.878906 225.910156 88.488281 220.558594 87.300781 Z M 82.277344 115.738281 C 119.449219 114.453125 154.441406 109.101562 184.378906 86.410156 C 147.898438 86.308594 113.003906 91.957031 82.277344 115.738281 Z M 300.257812 125.152344 C 292.625 112.371094 264.871094 97.605469 253.074219 97.507812 C 266.457031 111.480469 282.019531 120.496094 300.257812 125.152344 Z M 215.207031 135.359375 C 224.324219 137.441406 239.789062 136.25 246.132812 133.082031 C 243.160156 128.917969 238.796875 127.035156 234.140625 127.628906 C 227.496094 128.523438 220.558594 129.414062 215.207031 135.359375 Z M 329.105469 68.574219 C 325.140625 68.175781 321.667969 67.582031 318.199219 69.859375 C 319.785156 71.347656 320.976562 72.636719 322.265625 73.625 C 324.246094 75.113281 326.425781 76.300781 329.105469 78.085938 C 329.105469 74.714844 329.105469 71.84375 329.105469 68.574219 Z M 88.519531 54.601562 C 79.300781 50.042969 75.039062 52.320312 75.238281 60.644531 C 79.402344 58.761719 83.566406 56.878906 88.519531 54.601562 Z M 283.109375 220.082031 C 277.359375 222.855469 271.609375 225.53125 265.859375 228.304688 C 250.296875 231.675781 234.636719 232.46875 218.773438 231.082031 C 217.882812 230.980469 216.792969 230.882812 216.097656 230.386719 C 211.339844 226.917969 205.886719 224.34375 202.914062 218.894531 C 200.4375 214.335938 200.039062 209.378906 200.4375 204.328125 C 201.328125 193.527344 202.914062 183.023438 208.863281 173.507812 C 211.738281 168.851562 215.703125 165.582031 220.558594 163.898438 C 232.554688 159.734375 244.945312 156.761719 257.832031 158.644531 C 265.363281 159.835938 273.195312 160.824219 278.847656 166.871094 C 285.984375 174.5 291.734375 182.921875 291.535156 194.019531 C 291.433594 197.6875 291.238281 201.355469 290.941406 205.019531 C 290.445312 211.164062 286.675781 215.621094 283.109375 220.082031 Z M 242.269531 201.253906 C 242.070312 200.957031 241.96875 200.660156 241.773438 200.363281 C 238.402344 200.066406 235.03125 199.867188 231.761719 199.570312 C 226.804688 199.074219 224.820312 196.796875 225.316406 191.941406 C 226.109375 184.210938 226.703125 176.480469 230.671875 169.148438 C 220.957031 170.238281 214.910156 175.292969 211.738281 183.714844 C 208.664062 191.839844 207.773438 200.363281 207.96875 209.082031 C 208.070312 214.832031 215.503906 222.757812 221.253906 223.054688 C 225.714844 223.351562 230.175781 223.152344 234.238281 223.152344 C 233.84375 218.101562 233.050781 213.742188 233.246094 209.480469 C 233.347656 204.226562 238.402344 203.136719 242.269531 201.253906 Z M 90.007812 230.1875 C 87.429688 229.695312 84.851562 229.199219 82.277344 228.703125 C 72.660156 226.722656 65.027344 221.765625 59.082031 214.039062 C 58.1875 210.074219 57.097656 206.210938 56.503906 202.246094 C 55.414062 195.210938 56.800781 188.570312 59.875 182.230469 C 61.855469 178.066406 63.539062 173.507812 66.515625 169.941406 C 74.148438 160.824219 83.265625 154.484375 96.253906 157.0625 C 98.632812 157.554688 101.210938 156.464844 103.6875 156.761719 C 122.027344 158.347656 136.5 170.140625 140.960938 188.867188 C 143.238281 198.679688 142.347656 208.289062 137.984375 217.109375 C 135.308594 222.558594 130.550781 226.621094 124.703125 229.097656 C 115.683594 232.964844 106.363281 231.378906 97.046875 230.882812 C 94.566406 230.785156 92.289062 230.488281 90.007812 230.1875 Z M 105.273438 194.21875 C 105.273438 194.019531 105.273438 193.722656 105.371094 193.527344 C 100.21875 191.742188 95.164062 189.761719 90.007812 188.175781 C 87.035156 187.28125 85.84375 185.5 86.242188 182.625 C 86.539062 180.644531 86.738281 178.5625 87.53125 176.78125 C 89.214844 172.71875 91.296875 168.851562 93.179688 164.890625 C 82.078125 164.988281 75.933594 168.753906 71.570312 175.492188 C 66.515625 183.320312 63.441406 191.941406 63.640625 201.453125 C 63.839844 213.34375 76.230469 222.957031 88.125 219.984375 C 87.035156 216.613281 85.945312 213.246094 84.851562 209.777344 C 82.574219 202.542969 84.851562 198.679688 92.289062 197.191406 C 96.453125 196.203125 100.8125 195.210938 105.273438 194.21875 Z M 178.726562 273.691406 C 169.707031 272.898438 157.613281 272.003906 145.519531 270.914062 C 138.878906 270.320312 132.929688 268.042969 127.179688 264.375 C 122.125 261.203125 119.449219 256.546875 117.765625 251.492188 C 115.980469 246.042969 118.359375 240.792969 122.421875 237.027344 C 127.082031 232.667969 132.832031 230.785156 139.273438 231.875 C 146.808594 233.0625 154.339844 234.746094 161.976562 235.042969 C 171.09375 235.34375 180.3125 234.449219 189.53125 233.855469 C 192.605469 233.65625 195.28125 233.953125 197.957031 235.835938 C 199.839844 237.125 202.21875 237.820312 204.402344 238.613281 C 211.738281 241.089844 216.296875 247.828125 215.007812 255.160156 C 214.117188 260.015625 211.042969 263.78125 206.878906 266.160156 C 199.148438 270.617188 190.722656 272.796875 178.726562 273.691406 Z M 170.003906 243.070312 C 169.113281 250.699219 168.417969 257.242188 167.527344 264.574219 C 173.769531 264.671875 179.816406 264.773438 185.667969 263.484375 C 185.171875 256.050781 184.675781 249.3125 184.179688 242.179688 C 179.320312 242.476562 174.664062 242.773438 170.003906 243.070312 Z M 163.660156 242.972656 C 158.902344 242.378906 154.835938 241.882812 150.277344 241.289062 C 148.492188 248.324219 146.808594 255.0625 144.925781 262.292969 C 150.773438 262.789062 156.226562 263.1875 162.171875 263.582031 C 162.667969 256.347656 163.164062 249.609375 163.660156 242.972656 Z M 142.84375 240.097656 C 138.085938 239.207031 133.523438 238.910156 129.0625 241.484375 C 126.683594 242.871094 124.304688 246.9375 124.800781 249.214844 C 125.992188 254.664062 132.632812 259.816406 138.679688 260.214844 C 140.066406 253.574219 141.355469 247.035156 142.84375 240.097656 Z M 191.910156 262.59375 C 197.5625 261.5 201.921875 259.222656 205.589844 255.753906 C 207.871094 253.574219 208.070312 249.910156 205.886719 247.726562 C 202.023438 243.964844 197.164062 242.378906 191.910156 242.179688 C 191.910156 249.214844 191.910156 255.65625 191.910156 262.59375 Z M 157.910156 221.074219 C 165.246094 217.503906 172.582031 215.425781 180.414062 219.488281 C 182.59375 220.675781 184.875 221.667969 187.054688 222.855469 C 188.839844 223.847656 191.019531 224.441406 191.910156 222.261719 C 192.507812 220.875 191.910156 218.792969 191.515625 217.109375 C 191.414062 216.515625 190.425781 216.019531 189.828125 215.621094 C 181.503906 209.976562 172.480469 207.792969 162.769531 210.867188 C 157.710938 212.453125 152.753906 214.53125 150.476562 219.984375 C 153.847656 223.054688 154.042969 223.054688 157.910156 221.074219 Z M 157.910156 221.074219 " fill-opacity="1" fill-rule="nonzero"/></svg>