<svg xmlns="http://www.w3.org/2000/svg" xmlns:xlink="http://www.w3.org/1999/xlink" width="500" zoomAndPan="magnify" viewBox="0 0 375 374.999991" height="500" preserveAspectRatio="xMidYMid meet" version="1.0"><path fill="#ffffff" d="M 116.257812 285.574219 C 110.28125 285.574219 105.066406 283.769531 100.039062 281.96875 L 99.09375 281.585938 C 82.117188 275.609375 75.101562 261.183594 78.894531 240.023438 C 80.601562 230.535156 84.867188 224.652344 91.886719 222.183594 C 95.203125 220.949219 99.09375 220.191406 103.359375 220.097656 C 105.636719 220 107.816406 220.476562 110.375 220.949219 C 111.417969 221.140625 112.558594 221.425781 113.789062 221.613281 L 116.917969 222.089844 L 114.453125 224.082031 C 102.410156 233.949219 99.472656 248.183594 106.488281 262.132812 L 106.964844 263.082031 C 109.996094 269.0625 112.84375 274.753906 118.53125 278.644531 C 119.480469 279.308594 119.953125 280.355469 120.523438 281.398438 C 120.808594 281.96875 120.996094 282.441406 121.375 283.011719 L 122.417969 284.8125 L 120.332031 285.097656 C 118.816406 285.476562 117.488281 285.574219 116.257812 285.574219 Z M 242.46875 222.753906 L 243.039062 220.476562 L 240.761719 221.046875 C 232.511719 223.132812 225.777344 228.066406 221.890625 234.996094 C 218.097656 241.730469 217.246094 249.703125 219.617188 257.390625 C 222.460938 266.785156 227.769531 273.804688 234.882812 277.601562 C 239.148438 279.878906 243.984375 281.019531 249.199219 281.019531 C 253.277344 281.019531 257.640625 280.355469 262.191406 278.929688 L 265.511719 277.886719 L 262.382812 276.273438 C 241.996094 265.738281 235.832031 249.230469 242.46875 222.753906 Z M 306.570312 278.078125 L 306.285156 279.214844 L 305.148438 279.214844 C 302.777344 279.121094 300.40625 279.023438 298.035156 278.835938 C 295.664062 278.742188 293.296875 278.644531 290.925781 278.550781 C 289.3125 278.457031 287.796875 278.265625 286.277344 278.078125 L 282.957031 277.695312 L 284.949219 275.609375 C 291.304688 268.964844 295.285156 260.902344 296.804688 251.695312 C 297.65625 246.191406 298.226562 240.5 296.804688 235.753906 C 293.390625 223.511719 285.519531 215.160156 273.285156 210.703125 C 266.078125 208.140625 258.777344 208.140625 250.8125 210.796875 L 249.199219 211.269531 C 239.433594 214.496094 230.140625 217.628906 223.03125 225.125 C 216.488281 232.054688 209.28125 241.542969 211.554688 253.972656 C 213.738281 266.308594 219.425781 276.082031 228.433594 282.914062 C 233.648438 286.902344 239.054688 288.800781 245.3125 288.988281 C 248.253906 289.085938 251.289062 288.988281 254.226562 288.894531 C 255.175781 288.894531 256.21875 288.800781 257.167969 288.800781 L 260.390625 288.703125 L 258.304688 291.171875 C 258.019531 291.457031 257.734375 291.835938 257.449219 292.121094 C 256.597656 293.164062 255.648438 294.207031 254.699219 295.253906 C 248.253906 301.800781 241.898438 308.917969 240.667969 318.40625 C 239.71875 325.617188 240.097656 333.210938 240.476562 340.515625 L 240.570312 343.078125 C 240.667969 344.597656 241.519531 346.117188 242.46875 347.632812 C 242.847656 348.296875 243.320312 348.960938 243.605469 349.722656 L 244.363281 351.144531 L 242.847656 351.714844 C 242.089844 352 241.425781 352.285156 240.667969 352.566406 C 238.769531 353.328125 236.875 353.992188 234.789062 354.464844 C 233.082031 354.84375 231.375 355.226562 229.667969 355.699219 C 224.074219 357.027344 218.191406 358.453125 212.410156 359.117188 C 211.175781 359.304688 209.945312 359.402344 208.617188 359.589844 C 200.746094 360.539062 192.78125 361.488281 184.71875 361.488281 C 180.074219 361.488281 175.425781 361.203125 170.78125 360.347656 C 166.511719 359.589844 162.152344 358.925781 157.882812 358.261719 C 150.867188 357.21875 143.566406 356.078125 136.453125 354.371094 C 131.429688 353.234375 126.6875 351.050781 122.136719 348.960938 C 120.238281 348.109375 118.246094 347.160156 116.257812 346.398438 L 114.074219 345.546875 L 115.875 344.027344 C 119.007812 341.371094 121.375 339.378906 121.1875 335.203125 C 120.238281 318.878906 114.453125 305.785156 103.644531 295.0625 L 100.894531 292.308594 L 104.6875 292.59375 C 106.679688 292.691406 108.574219 292.878906 110.472656 293.070312 C 114.929688 293.449219 119.480469 293.921875 124.03125 293.828125 C 137.308594 293.355469 147.453125 286.617188 152.101562 275.132812 C 160.632812 253.785156 151.152344 229.585938 130.574219 220.097656 C 125.832031 217.914062 120.996094 217.058594 115.875 216.207031 C 113.03125 215.730469 109.996094 215.160156 107.058594 214.402344 C 97.671875 211.933594 88.851562 214.59375 80.980469 222.277344 C 71.402344 231.484375 68.085938 243.628906 70.457031 260.425781 C 71.59375 268.207031 75.480469 275.324219 82.214844 281.585938 L 84.300781 283.484375 L 81.550781 284.054688 C 78.515625 284.625 75.386719 285.289062 72.351562 285.953125 C 69.222656 286.617188 66.09375 287.28125 62.964844 287.851562 L 61.636719 288.136719 L 61.351562 286.804688 C 60.6875 284.054688 59.929688 281.398438 59.171875 278.742188 C 57.558594 272.855469 55.851562 266.785156 55 260.617188 C 52.535156 243.15625 54.429688 226.167969 56.609375 211.839844 C 58.507812 199.410156 62.773438 188.023438 66.664062 178.34375 C 71.972656 164.773438 78.703125 153.765625 87.050781 144.65625 L 87.617188 143.992188 L 88.472656 144.179688 C 94.730469 145.792969 100.988281 147.3125 107.53125 148.832031 L 115.6875 150.824219 L 115.972656 151.296875 C 116.257812 151.867188 116.730469 152.53125 117.300781 153.289062 C 117.488281 153.574219 117.679688 153.859375 117.867188 154.238281 C 123.9375 150.726562 130.003906 151.867188 135.886719 153.007812 C 138.160156 153.480469 140.625 153.859375 142.902344 154.050781 C 157.410156 154.902344 173.816406 155.949219 189.652344 156.613281 C 194.203125 156.800781 198.847656 156.800781 203.304688 156.800781 C 207.289062 156.800781 211.367188 156.800781 215.347656 156.898438 C 230.710938 157.371094 246.070312 155.566406 260.960938 153.765625 C 266.078125 153.195312 271.296875 152.53125 276.511719 151.960938 C 276.890625 151.867188 277.269531 151.960938 277.742188 151.960938 C 278.121094 151.960938 278.597656 152.058594 279.164062 152.058594 L 280.019531 152.058594 L 280.398438 152.816406 C 281.726562 155.472656 283.148438 158.226562 284.476562 160.882812 C 287.320312 166.574219 290.355469 172.363281 292.820312 178.34375 C 299.175781 193.527344 303.628906 210.605469 306.761719 232.148438 C 308.941406 245.71875 310.457031 261.753906 306.570312 278.078125 Z M 214.117188 184.796875 C 214.78125 189.445312 216.867188 191.722656 220.660156 192.101562 C 224.925781 192.480469 229.003906 192.671875 232.796875 192.578125 L 234.691406 192.480469 C 240.191406 192.292969 245.882812 192.195312 251.382812 191.34375 C 254.320312 190.867188 256.21875 189.917969 257.167969 188.589844 C 258.113281 187.261719 258.304688 185.269531 257.832031 182.519531 C 256.976562 177.582031 255.460938 175.96875 248.820312 176.632812 C 247.96875 176.730469 247.210938 176.632812 246.453125 176.445312 C 246.167969 176.445312 245.882812 176.351562 245.597656 176.351562 C 240.667969 175.875 235.453125 175.402344 229.761719 174.925781 C 228.71875 175.117188 227.675781 175.304688 226.539062 175.496094 C 223.882812 175.96875 221.039062 176.445312 218.476562 177.394531 C 214.875 178.628906 213.640625 181.949219 214.117188 184.796875 Z M 209.753906 302.464844 C 202.832031 303.699219 198.183594 300.28125 194.867188 297.054688 C 192.683594 294.96875 191.359375 293.828125 190.503906 293.828125 C 189.554688 293.828125 188.132812 295.0625 186.238281 297.148438 C 181.683594 301.894531 176.1875 303.507812 169.074219 302.179688 C 168.503906 302.085938 167.554688 302.464844 166.703125 302.84375 C 166.511719 302.9375 166.324219 303.035156 166.132812 303.128906 C 166.230469 303.316406 166.324219 303.507812 166.324219 303.792969 C 166.609375 304.550781 167.082031 305.976562 167.460938 306.261719 C 171.066406 307.398438 174.859375 308.539062 178.273438 308.0625 C 181.117188 307.683594 183.867188 306.542969 186.804688 305.214844 C 188.132812 304.648438 189.460938 304.078125 190.882812 303.507812 L 191.640625 303.222656 L 192.304688 303.699219 C 197.519531 307.96875 204.347656 309.296875 208.140625 306.828125 C 209.660156 305.878906 210.605469 304.742188 209.753906 302.464844 Z M 181.023438 248.46875 L 178.652344 250.273438 C 176.945312 251.507812 175.523438 252.550781 174.097656 253.59375 L 173.71875 253.878906 L 173.246094 253.878906 C 170.402344 253.972656 169.359375 255.964844 169.359375 257.863281 C 169.167969 261.28125 170.875 263.9375 174.003906 265.457031 L 174.289062 265.644531 C 174.859375 266.121094 175.523438 266.59375 176.089844 267.164062 C 177.417969 268.300781 178.746094 269.441406 180.167969 270.296875 C 180.925781 270.769531 181.96875 271.339844 182.730469 271.054688 C 183.390625 270.863281 183.867188 270.296875 184.339844 269.25 L 184.625 268.585938 L 185.289062 268.398438 C 191.738281 266.785156 192.402344 266.308594 193.445312 255.777344 L 192.78125 255.300781 C 191.074219 254.066406 189.082031 252.738281 187.089844 251.507812 L 186.425781 251.125 L 186.425781 250.367188 C 186.046875 240.402344 185.667969 229.015625 185.476562 218.101562 L 185.476562 217.914062 C 185.476562 216.871094 185.382812 215.257812 184.910156 214.875 C 184.816406 214.78125 184.625 214.78125 184.433594 214.78125 C 184.339844 214.78125 184.246094 214.78125 184.152344 214.78125 C 183.109375 214.972656 181.117188 217.058594 181.023438 218.101562 C 180.453125 223.890625 180.453125 229.773438 180.453125 235.46875 C 180.453125 236.890625 180.453125 238.410156 180.453125 239.835938 C 180.453125 242.015625 180.640625 244.199219 180.832031 246.097656 C 180.925781 246.667969 180.925781 247.234375 181.023438 247.710938 Z M 143.566406 176.917969 C 139.394531 175.96875 134.558594 174.925781 129.625 174.453125 C 127.445312 174.261719 125.167969 174.355469 122.988281 174.355469 C 120.523438 174.453125 117.867188 174.453125 115.308594 174.261719 C 114.832031 174.261719 114.359375 174.167969 113.789062 174.167969 C 107.246094 174.167969 100.800781 177.964844 98.523438 183.46875 C 97.574219 185.746094 97.671875 187.832031 98.714844 189.351562 C 99.757812 190.773438 101.652344 191.53125 103.929688 191.34375 C 105.160156 191.25 106.300781 190.964844 107.625 190.679688 C 108.667969 190.488281 109.808594 190.203125 110.945312 190.109375 C 116.066406 189.445312 121.945312 188.78125 127.636719 188.496094 C 129.34375 188.402344 131.046875 188.496094 132.660156 188.589844 C 134.652344 188.6875 136.546875 188.78125 138.351562 188.589844 C 138.730469 188.589844 139.203125 188.496094 139.582031 188.496094 C 143.28125 188.117188 146.789062 187.832031 148.972656 184.414062 C 148.023438 180.335938 146.980469 177.679688 143.566406 176.917969 Z M 143.566406 176.917969 " fill-opacity="1" fill-rule="nonzero"/><path fill="#fa9b73" d="M 285.898438 276.9375 C 287.605469 277.128906 289.21875 277.316406 290.925781 277.414062 C 295.664062 277.695312 300.40625 277.886719 305.148438 278.078125 C 302.398438 295.15625 296.234375 310.71875 285.898438 324.667969 C 285.328125 325.429688 284.191406 325.996094 283.90625 326.851562 C 281.535156 333.96875 275.371094 336.53125 269.398438 339.28125 C 261.433594 342.984375 253.46875 346.496094 245.40625 350.101562 C 244.554688 350.480469 243.511719 350.289062 242.46875 350.386719 C 241.332031 348.109375 239.246094 345.832031 239.148438 343.554688 C 238.769531 335.203125 238.203125 326.757812 239.246094 318.597656 C 240.476562 308.820312 246.925781 301.421875 253.65625 294.589844 C 254.890625 293.355469 256.027344 291.929688 257.167969 290.601562 C 259.253906 290.03125 261.527344 289.652344 263.519531 288.894531 C 271.675781 286.046875 280.113281 283.960938 285.898438 276.9375 Z M 253.5625 303.507812 C 248.917969 309.203125 250.71875 314.609375 252.710938 320.113281 C 258.019531 317.363281 258.492188 309.203125 253.5625 303.507812 Z M 263.425781 303.699219 C 262.570312 309.390625 265.226562 314.515625 270.15625 316.699219 C 272.242188 311.289062 269.589844 306.164062 263.425781 303.699219 Z M 62.964844 286.523438 C 69.128906 285.289062 75.386719 283.960938 81.550781 282.726562 C 86.195312 285.289062 90.746094 287.945312 95.394531 290.316406 C 98.332031 291.835938 101.652344 292.785156 104.6875 293.921875 C 116.066406 305.3125 121.660156 319.070312 122.609375 335.011719 C 122.894531 339.851562 119.953125 342.414062 116.824219 344.976562 C 107.4375 342.414062 99.851562 336.722656 91.507812 332.070312 C 77.566406 324.289062 71.78125 311.382812 66.378906 297.71875 C 65.050781 294.113281 64.101562 290.316406 62.964844 286.523438 Z M 101.9375 304.648438 C 98.714844 307.398438 98.332031 311.097656 98.996094 314.988281 C 99.472656 317.742188 101.746094 318.691406 103.738281 316.984375 C 106.582031 314.609375 105.445312 306.449219 101.9375 304.648438 Z M 89.324219 301.988281 C 84.488281 305.5 84.867188 310.339844 84.394531 314.988281 C 89.042969 316.320312 89.988281 313.1875 90.84375 310.71875 C 91.886719 307.777344 92.738281 304.550781 89.324219 301.988281 Z M 194.867188 255.113281 C 192.78125 253.6875 190.316406 251.980469 187.847656 250.367188 C 187.089844 255.015625 183.390625 256.34375 178.652344 257.675781 C 179.882812 260.238281 180.832031 262.324219 181.96875 264.316406 C 183.011719 266.214844 184.339844 267.921875 185.476562 269.820312 C 193.066406 267.828125 193.726562 266.6875 194.867188 255.113281 Z M 167.9375 257.863281 C 167.746094 261.753906 169.644531 264.980469 173.339844 266.785156 C 171.253906 262.039062 169.546875 257.292969 173.339844 252.550781 C 169.832031 252.644531 168.125 255.113281 167.9375 257.863281 Z M 167.9375 257.863281 " fill-opacity="1" fill-rule="nonzero"/><path fill="#9682dc" d="M 102.507812 143.800781 C 99.851562 143.042969 97.195312 142.28125 94.351562 141.902344 L 91.789062 141.523438 L 92.929688 139.152344 C 93.214844 138.582031 93.308594 138.109375 93.496094 137.632812 C 93.78125 136.777344 94.160156 135.832031 94.921875 135.164062 L 95.679688 134.5 C 102.695312 128.714844 109.902344 122.640625 117.203125 117.042969 C 118.625 115.902344 120.429688 115.710938 122.039062 115.523438 C 122.515625 115.523438 122.988281 115.429688 123.367188 115.332031 C 123.460938 115.332031 123.558594 115.332031 123.652344 115.238281 L 125.074219 114.953125 L 126.117188 117.042969 L 125.929688 117.707031 L 125.929688 117.800781 L 126.023438 117.894531 L 126.117188 117.800781 C 126.023438 117.988281 125.929688 118.179688 125.738281 118.273438 C 125.453125 119.222656 125.167969 120.171875 124.886719 121.121094 C 124.410156 122.734375 123.9375 124.441406 123.558594 126.152344 C 122.230469 131.558594 120.996094 136.875 119.667969 142.566406 L 119.101562 145.128906 L 117.867188 145.320312 C 116.636719 145.507812 115.496094 145.605469 114.265625 145.605469 C 110.1875 145.984375 106.300781 144.84375 102.507812 143.800781 Z M 223.789062 151.773438 L 222.460938 139.816406 C 221.132812 128.332031 219.898438 117.515625 218.761719 106.699219 L 218.667969 105.652344 L 217.625 105.179688 C 204.539062 99.390625 190.789062 98.347656 175.523438 101.859375 L 174.382812 102.144531 L 174.097656 103.28125 C 174.003906 103.566406 173.910156 103.945312 173.816406 104.324219 C 173.4375 105.75 173.054688 107.457031 172.773438 109.261719 C 171.253906 121.5 170.117188 132.222656 169.167969 142 C 169.074219 143.136719 168.789062 143.800781 168.503906 144.085938 C 168.316406 144.277344 167.746094 144.371094 166.417969 144.179688 C 166.894531 137.347656 167.367188 130.515625 167.839844 123.683594 C 168.316406 116.945312 168.789062 110.113281 169.261719 103.28125 L 169.453125 101.003906 L 167.175781 101.289062 C 154.1875 102.617188 144.039062 105.179688 135.125 109.355469 C 133.515625 110.113281 132.1875 112.011719 131.617188 113.53125 C 129.246094 120.933594 127.066406 128.332031 124.695312 136.304688 C 123.84375 139.054688 122.988281 141.808594 122.136719 144.75 L 121.472656 146.835938 L 123.652344 147.21875 C 146.316406 150.824219 169.359375 152.53125 196.097656 152.53125 C 204.253906 152.53125 212.695312 152.339844 221.605469 152.058594 Z M 115.308594 176.066406 C 108.195312 176.351562 103.265625 180.050781 101.464844 186.503906 L 100.324219 190.394531 L 104.023438 188.6875 C 113.03125 184.605469 122.136719 184.605469 131.808594 184.605469 C 135.695312 184.605469 139.582031 184.605469 143.566406 184.320312 L 151.058594 183.75 L 144.230469 180.621094 C 136.167969 177.109375 126.972656 175.589844 115.308594 176.066406 Z M 217.8125 181.664062 L 216.488281 182.042969 L 216.488281 183.46875 C 216.488281 185.460938 217.054688 186.976562 218.191406 188.023438 C 219.425781 189.160156 221.039062 189.351562 222.367188 189.351562 C 222.746094 189.351562 223.125 189.351562 223.410156 189.351562 C 230.519531 188.875 237.726562 188.304688 244.746094 187.640625 C 246.453125 187.546875 248.0625 187.074219 249.769531 186.695312 C 250.625 186.503906 251.570312 186.3125 252.519531 186.125 L 256.3125 185.363281 L 253.375 182.800781 C 248.15625 178.34375 228.339844 178.34375 217.8125 181.664062 Z M 273.855469 144.65625 C 259.347656 125.582031 242.941406 113.152344 225.019531 107.550781 L 222.269531 106.699219 L 222.554688 109.542969 C 224.074219 123.875 225.304688 137.824219 226.539062 150.917969 L 226.726562 152.816406 L 228.625 152.625 C 242.183594 151.011719 256.597656 149.398438 272.527344 147.691406 L 275.847656 147.3125 Z M 273.855469 144.65625 " fill-opacity="1" fill-rule="nonzero"/><path fill="#b9dc32" d="M 359.578125 172.554688 C 357.492188 155.757812 351.136719 140.480469 344.976562 125.675781 C 344.121094 123.683594 343.363281 121.785156 342.507812 119.792969 C 340.992188 116.09375 338.527344 112.769531 336.25 109.542969 C 335.585938 108.59375 334.921875 107.742188 334.257812 106.792969 C 330.941406 102.046875 327.621094 97.398438 324.113281 92.464844 L 324.113281 92.367188 C 327.714844 89.140625 330.847656 86.390625 334.828125 84.113281 C 347.914062 76.519531 354.078125 65.039062 353.128906 50.046875 C 352.179688 37.519531 347.441406 27.460938 338.527344 19.488281 C 328.855469 10.757812 318.328125 7.722656 306.476562 10.285156 C 298.699219 11.992188 291.683594 16.074219 285.804688 22.621094 C 280.492188 28.410156 275.65625 34.386719 270.535156 40.652344 C 268.734375 42.832031 267.027344 45.015625 265.226562 47.199219 C 207.289062 21.578125 148.875 25.089844 91.601562 57.542969 C 90.9375 56.308594 90.273438 55.074219 89.703125 53.839844 C 85.910156 44.542969 79.464844 37.046875 69.316406 30.023438 C 52.25 18.160156 33.949219 24.613281 23.515625 36.191406 C 21.050781 38.847656 19.15625 42.074219 17.449219 44.828125 C 10.242188 56.878906 8.058594 67.695312 10.335938 78.703125 C 13.371094 93.316406 20.480469 102.046875 32.808594 106.128906 C 34.894531 106.792969 36.886719 108.5 38.972656 110.398438 C 39.542969 110.871094 40.015625 111.347656 40.585938 111.820312 C 22.851562 140.003906 14.699219 169.800781 15.742188 202.730469 C 16.785156 235.183594 27.40625 265.265625 47.222656 292.308594 L 50.066406 296.199219 L 50.636719 291.363281 C 51.109375 287.375 51.488281 282.820312 50.066406 278.550781 C 45.992188 265.359375 44.851562 250.9375 46.179688 231.957031 C 47.222656 217.535156 48.265625 202.636719 53.671875 188.972656 C 58.316406 177.109375 63.4375 165.816406 69.03125 155.566406 C 72.164062 149.875 76.429688 144.65625 80.507812 139.625 C 81.550781 138.296875 82.6875 136.96875 83.730469 135.640625 C 87.429688 131.085938 91.507812 126.71875 95.773438 122.734375 C 107.625 111.632812 122.800781 105.75 137.496094 100.148438 L 140.246094 99.105469 C 144.894531 97.304688 150.109375 95.308594 155.039062 95.027344 C 159.589844 94.742188 164.144531 94.363281 168.503906 93.980469 C 181.402344 92.84375 194.675781 91.609375 207.855469 94.644531 C 219.898438 97.398438 231.941406 102.046875 244.648438 108.785156 C 255.648438 114.667969 265.890625 123.398438 276.699219 136.210938 C 288.175781 149.875 297.089844 166.574219 303.25 185.839844 C 307.140625 197.890625 309.890625 210.605469 312.640625 222.847656 C 317.191406 243.628906 317.378906 264.125 313.398438 283.960938 C 312.164062 289.84375 310.554688 295.535156 308.75 301.609375 C 307.992188 304.078125 307.328125 306.449219 306.664062 308.917969 L 305.90625 311.765625 L 308.75 311.382812 C 308.941406 311.382812 309.035156 311.382812 309.226562 311.382812 C 309.984375 311.382812 310.933594 311.289062 311.785156 310.625 L 311.976562 310.53125 C 313.113281 309.390625 314.347656 308.253906 315.484375 307.113281 C 319.464844 303.316406 323.542969 299.332031 327.148438 294.96875 C 329.800781 291.644531 331.984375 287.945312 334.070312 284.433594 C 335.492188 282.0625 337.007812 279.5 338.621094 277.222656 C 348.578125 262.703125 355.214844 245.433594 359.199219 222.941406 C 361.664062 207.570312 361.855469 191.058594 359.578125 172.554688 Z M 305.242188 52.609375 C 310.554688 48.242188 307.328125 44.164062 306 42.359375 C 303.0625 38.660156 300.3125 34.769531 298.226562 31.921875 C 302.96875 26.703125 309.792969 24.234375 317 25.277344 C 324.964844 26.417969 331.890625 31.445312 334.734375 38.183594 C 339.664062 49.855469 336.535156 64.28125 327.335938 72.441406 C 324.304688 75.191406 321.363281 77.945312 318.613281 80.507812 L 316.335938 82.59375 C 312.355469 79.367188 308.371094 76.140625 304.390625 72.914062 C 297.089844 67.03125 289.5 60.863281 281.726562 54.601562 C 282.296875 53.652344 282.863281 52.703125 283.433594 51.753906 C 284.664062 49.761719 285.898438 47.578125 287.226562 45.394531 C 292.535156 47.863281 297.277344 50.046875 301.925781 52.226562 L 304.390625 53.367188 Z M 231.753906 55.738281 C 231.847656 56.878906 230.898438 58.777344 230.332031 59.0625 C 226.726562 60.769531 222.839844 62.097656 219.046875 62.667969 C 218.476562 62.761719 217.339844 62.097656 216.390625 61.527344 C 216.296875 61.527344 216.203125 61.433594 216.105469 61.433594 C 219.519531 56.878906 225.96875 53.460938 229.191406 54.125 C 230.046875 54.222656 231.46875 55.265625 231.753906 55.738281 Z M 148.78125 60.484375 C 148.78125 61.339844 148.6875 61.90625 148.402344 62.097656 C 147.925781 62.570312 146.503906 62.570312 145.367188 62.570312 L 141.101562 62.570312 C 139.394531 62.289062 137.78125 62.003906 136.359375 61.242188 C 135.503906 60.863281 134.558594 59.535156 134.558594 59.15625 C 134.652344 58.679688 135.695312 57.542969 136.265625 57.449219 C 139.582031 56.59375 142.523438 56.308594 144.988281 56.59375 C 147.546875 56.785156 148.875 58.113281 148.78125 60.484375 Z M 46.085938 96.070312 C 45.609375 95.785156 45.042969 95.5 44.566406 95.308594 L 44.472656 95.308594 C 42.859375 94.550781 42.101562 93.695312 42.957031 91.324219 C 43.621094 89.710938 44.1875 88.097656 44.851562 86.484375 C 46.085938 83.355469 47.414062 80.03125 48.644531 76.710938 C 49.308594 74.90625 49.785156 73.199219 50.164062 71.492188 L 50.730469 69.121094 L 49.972656 68.359375 C 49.5 67.886719 49.023438 67.410156 48.265625 66.9375 L 47.316406 66.179688 L 46.179688 66.746094 C 40.585938 69.6875 34.894531 72.726562 29.773438 75.382812 C 26.644531 62.097656 33.285156 48.242188 45.515625 43.117188 C 54.621094 39.324219 70.457031 44.828125 75.195312 53.460938 C 76.429688 55.738281 77.660156 58.015625 78.800781 60.292969 C 79.179688 61.054688 79.558594 61.71875 79.9375 62.476562 L 46.179688 96.257812 C 46.179688 96.164062 46.179688 96.164062 46.085938 96.070312 Z M 46.085938 96.070312 " fill-opacity="1" fill-rule="nonzero"/><path fill="#3c50be" d="M 124.03125 117.324219 C 122.136719 117.707031 119.765625 117.515625 118.34375 118.65625 C 110.851562 124.441406 103.453125 130.609375 96.152344 136.683594 C 95.488281 137.253906 95.394531 138.390625 94.636719 140.003906 C 102.695312 141.144531 109.617188 145.128906 117.582031 143.800781 C 119.007812 137.632812 120.332031 131.84375 121.753906 126.054688 C 122.417969 123.210938 123.367188 120.363281 124.125 117.515625 C 124.316406 117.324219 124.410156 117.042969 124.601562 116.851562 C 124.503906 117.042969 124.222656 117.230469 124.03125 117.324219 Z M 62.964844 286.523438 C 64.101562 290.316406 65.050781 294.113281 66.472656 297.71875 C 71.78125 311.289062 77.566406 324.289062 91.601562 332.070312 C 99.945312 336.722656 107.625 342.414062 116.917969 344.976562 C 123.558594 347.730469 130.003906 351.335938 136.929688 352.949219 C 148.210938 355.605469 159.78125 356.839844 171.160156 358.925781 C 185.003906 361.394531 198.753906 359.304688 212.410156 357.691406 C 219.898438 356.839844 227.296875 354.75 234.691406 353.042969 C 237.347656 352.378906 239.910156 351.238281 242.5625 350.386719 C 243.511719 350.289062 244.648438 350.480469 245.503906 350.101562 C 253.5625 346.589844 261.527344 343.078125 269.492188 339.28125 C 275.371094 336.53125 281.632812 333.875 284.003906 326.851562 C 284.285156 325.996094 285.425781 325.429688 285.992188 324.667969 C 296.328125 310.816406 302.492188 295.15625 305.242188 278.078125 C 308.847656 262.988281 307.898438 247.898438 305.71875 232.71875 C 303.0625 214.402344 299.078125 196.371094 291.871094 179.292969 C 288.175781 170.464844 283.527344 162.117188 279.449219 153.765625 C 278.121094 153.671875 277.554688 153.574219 276.890625 153.671875 C 256.503906 155.757812 236.210938 159.269531 215.539062 158.605469 C 206.910156 158.320312 198.375 158.699219 189.746094 158.320312 C 174.195312 157.65625 158.546875 156.613281 142.996094 155.757812 C 134.558594 155.285156 126.023438 150.824219 117.582031 156.515625 C 116.445312 154.714844 115.496094 153.195312 114.929688 152.339844 C 105.636719 150.0625 97.007812 147.882812 88.28125 145.792969 C 79.273438 155.378906 73.015625 166.765625 68.179688 178.816406 C 63.914062 189.539062 60.023438 200.261719 58.222656 212.03125 C 55.757812 228.257812 54.335938 244.292969 56.609375 260.425781 C 57.9375 269.25 60.78125 277.886719 62.964844 286.523438 Z M 90.84375 60.105469 C 89.894531 58.398438 88.757812 56.5 87.902344 54.507812 C 83.921875 44.636719 76.902344 37.519531 68.273438 31.542969 C 52.914062 20.914062 35.75 25.46875 24.9375 37.425781 C 22.664062 39.890625 20.863281 42.832031 19.15625 45.777344 C 13.179688 55.835938 9.765625 66.367188 12.234375 78.324219 C 14.792969 90.660156 20.671875 100.054688 33.378906 104.324219 C 36.886719 105.464844 39.730469 108.785156 43.050781 111.347656 C 24.84375 139.722656 16.59375 169.992188 17.636719 202.636719 C 18.679688 235.277344 29.300781 264.695312 48.742188 291.171875 C 49.214844 287.089844 49.5 282.914062 48.265625 279.121094 C 43.523438 263.652344 43.144531 247.804688 44.285156 231.863281 C 45.328125 217.058594 46.371094 202.160156 51.871094 188.210938 C 56.328125 176.730469 61.445312 165.4375 67.324219 154.617188 C 71.308594 147.3125 77 140.953125 82.214844 134.40625 C 86.007812 129.757812 90.085938 125.390625 94.445312 121.3125 C 107.246094 109.257812 123.460938 103.472656 139.488281 97.304688 C 144.417969 95.40625 149.632812 93.414062 154.851562 93.128906 C 172.582031 92.179688 190.21875 88.667969 208.238281 92.75 C 221.511719 95.785156 233.746094 100.8125 245.503906 107.078125 C 258.304688 113.910156 268.828125 123.96875 278.121094 134.976562 C 290.546875 149.78125 299.175781 166.957031 305.054688 185.269531 C 308.941406 197.417969 311.691406 209.941406 314.441406 222.46875 C 318.898438 242.964844 319.371094 263.746094 315.199219 284.339844 C 313.492188 292.691406 310.742188 300.945312 308.371094 309.390625 C 309.035156 309.296875 309.984375 309.484375 310.457031 309.011719 C 315.578125 303.984375 320.984375 299.144531 325.441406 293.640625 C 329.800781 288.136719 332.835938 281.777344 336.820312 275.988281 C 348.007812 259.761719 353.699219 241.445312 357.113281 222.46875 C 360.148438 206.050781 359.863281 189.445312 357.777344 172.742188 C 355.5 154.050781 347.820312 137.441406 340.800781 120.457031 C 338.90625 115.902344 335.585938 111.917969 332.742188 107.835938 C 329.140625 102.617188 325.441406 97.492188 321.554688 92.082031 C 325.820312 88.289062 329.234375 85.0625 333.878906 82.40625 C 345.828125 75.476562 352.179688 64.847656 351.234375 50.140625 C 350.378906 38.277344 346.019531 28.695312 337.292969 20.820312 C 328.570312 12.941406 318.707031 9.527344 306.949219 12.089844 C 298.984375 13.796875 292.535156 18.066406 287.320312 23.855469 C 279.925781 31.921875 273.191406 40.652344 265.890625 49.476562 C 206.625 22.90625 148.308594 26.988281 90.84375 60.105469 Z M 124.125 145.128906 C 157.410156 150.445312 189.367188 151.011719 221.703125 150.0625 C 219.996094 134.976562 218.476562 120.933594 216.867188 106.980469 C 203.589844 101.097656 190.316406 100.433594 175.996094 103.757812 C 175.617188 105.371094 175.046875 107.363281 174.761719 109.542969 C 173.53125 120.457031 172.296875 131.371094 171.160156 142.28125 C 170.78125 146.078125 168.980469 146.933594 164.523438 145.792969 C 165.46875 131.65625 166.511719 117.609375 167.554688 103.1875 C 156.746094 104.324219 146.125 106.414062 136.074219 111.0625 C 135.03125 111.539062 133.988281 112.960938 133.609375 114.097656 C 130.480469 123.96875 127.539062 133.835938 124.125 145.128906 Z M 224.546875 109.355469 C 225.875 123.113281 227.105469 136.398438 228.433594 150.824219 C 243.226562 149.117188 257.640625 147.503906 272.339844 145.890625 C 260.960938 130.707031 245.027344 115.710938 224.546875 109.355469 Z M 372 202.066406 C 371.90625 204.914062 371.714844 207.664062 371.621094 210.417969 C 371.429688 212.125 371.148438 213.832031 370.957031 215.445312 C 368.398438 231.484375 364.886719 247.332031 358.628906 262.324219 C 355.5 269.820312 351.042969 276.746094 346.871094 283.769531 C 342.507812 290.980469 338.335938 298.289062 333.121094 304.835938 C 323.921875 316.414062 313.304688 326.851562 301.449219 335.675781 C 293.199219 341.75 284.855469 348.109375 275.65625 352.285156 C 261.8125 358.640625 247.96875 365.285156 232.796875 368.605469 C 214.683594 372.589844 196.382812 374.867188 178.175781 373.351562 C 154.089844 371.355469 130.195312 367.65625 108.289062 355.792969 C 102.886719 352.851562 97.289062 350.480469 92.074219 346.875 C 88.945312 344.691406 84.867188 343.742188 80.886719 342.128906 C 72.351562 334.253906 63.058594 326.28125 54.714844 317.550781 C 41.535156 303.886719 30.722656 288.417969 22.1875 271.148438 C 17.070312 260.804688 13.558594 249.988281 10.527344 239.074219 C 7.585938 228.351562 6.351562 217.058594 5.785156 205.863281 C 5.308594 194.757812 5.785156 183.371094 7.394531 172.363281 C 8.820312 162.117188 11.664062 152.058594 14.792969 142.1875 C 17.828125 132.792969 22.09375 123.777344 25.980469 114.195312 C 25.601562 113.910156 24.9375 113.152344 24.085938 112.769531 C 13.558594 108.691406 7.585938 99.769531 3.601562 89.902344 C 1.136719 83.636719 1.042969 76.332031 0.664062 69.402344 C 0 58.585938 3.984375 49.003906 9.199219 39.796875 C 15.742188 28.21875 25.128906 20.34375 37.929688 16.074219 C 59.835938 8.671875 84.488281 25.847656 92.453125 43.402344 C 92.835938 44.257812 93.308594 45.207031 94.160156 47.007812 C 149.253906 15.410156 206.339844 10.855469 265.035156 35.527344 C 268.925781 30.308594 272.339844 25.183594 276.414062 20.535156 C 285.992188 9.429688 297.65625 1.839844 312.734375 0.796875 C 321.835938 0.132812 330.085938 2.882812 337.390625 8.480469 C 339.949219 10.378906 342.699219 12.089844 344.976562 14.269531 C 363.558594 32.015625 366.5 52.894531 357.019531 74.242188 C 354.457031 79.9375 348.578125 84.113281 344.027344 88.859375 C 342.507812 90.375 340.421875 91.324219 338.335938 92.652344 C 338.8125 93.980469 339.09375 95.121094 339.664062 96.070312 C 343.648438 102.046875 348.484375 107.550781 351.613281 113.910156 C 356.070312 122.734375 359.671875 132.035156 362.898438 141.429688 C 365.742188 149.683594 367.449219 158.414062 369.628906 166.859375 C 370.007812 168.570312 370.292969 170.183594 370.578125 171.890625 C 370.671875 173.027344 370.765625 174.167969 370.863281 175.304688 C 371.148438 184.226562 371.621094 193.144531 372 202.066406 Z M 279.070312 55.074219 C 281.347656 51.28125 283.621094 47.390625 286.277344 43.023438 C 292.726562 45.964844 298.414062 48.621094 303.914062 51.183594 C 307.328125 48.335938 306.382812 46.15625 304.390625 43.59375 C 301.355469 39.703125 298.414062 35.71875 295.664062 31.921875 C 307.519531 17.023438 330.183594 22.8125 336.34375 37.519531 C 341.464844 49.761719 338.433594 65.039062 328.476562 73.863281 C 324.207031 77.660156 319.941406 81.644531 316.242188 84.96875 C 303.820312 75.097656 291.96875 65.417969 279.070312 55.074219 Z M 81.171875 64.183594 C 69.980469 75.382812 58.886719 86.582031 47.695312 97.683594 L 46.84375 98.632812 L 43.621094 97.019531 C 40.679688 95.691406 40.015625 93.507812 41.152344 90.566406 C 43.050781 85.726562 45.042969 80.980469 46.84375 76.046875 C 47.601562 73.960938 48.078125 71.871094 48.644531 69.6875 C 48.171875 69.214844 47.601562 68.738281 47.128906 68.359375 C 40.964844 71.585938 34.707031 74.90625 28.636719 78.132812 C 23.992188 63.332031 31.007812 47.105469 44.945312 41.316406 C 55 37.140625 71.78125 43.023438 77 52.511719 L 82.402344 62.855469 Z M 213.355469 62.289062 C 216.488281 56.5 224.734375 51.46875 229.476562 52.324219 C 231.089844 52.609375 233.554688 54.316406 233.648438 55.550781 C 233.839844 57.257812 232.605469 60.105469 231.183594 60.769531 C 227.484375 62.570312 223.410156 63.902344 219.332031 64.566406 C 217.53125 64.945312 215.347656 63.140625 213.355469 62.289062 Z M 142.902344 64.945312 C 140.4375 64.375 137.78125 64.183594 135.410156 63.046875 C 134.082031 62.382812 132.566406 60.484375 132.566406 59.15625 C 132.566406 57.921875 134.367188 56.023438 135.695312 55.644531 C 138.730469 54.886719 142.046875 54.410156 145.082031 54.695312 C 148.117188 54.980469 150.773438 56.6875 150.675781 60.578125 C 150.488281 64.753906 147.546875 64.46875 144.703125 64.46875 C 144.132812 64.46875 143.472656 64.46875 142.902344 64.46875 C 142.996094 64.660156 142.996094 64.753906 142.902344 64.945312 Z M 285.898438 276.9375 C 280.113281 283.960938 271.675781 286.046875 263.613281 288.894531 C 261.527344 289.652344 259.347656 290.03125 257.261719 290.601562 C 253.277344 290.699219 249.296875 290.886719 245.3125 290.792969 C 238.769531 290.601562 232.984375 288.515625 227.582031 284.433594 C 217.53125 276.84375 212.21875 266.5 210.132812 254.636719 C 207.953125 242.585938 214.019531 233 221.984375 224.554688 C 229.761719 216.394531 240.097656 213.265625 250.339844 209.847656 C 258.210938 207.191406 265.984375 206.90625 273.761719 209.753906 C 286.277344 214.308594 294.621094 223.132812 298.132812 235.753906 C 299.554688 240.878906 298.984375 246.949219 298.132812 252.359375 C 296.613281 261.566406 292.535156 269.914062 285.898438 276.9375 Z M 261.625 277.601562 C 237.726562 265.171875 235.355469 245.242188 241.046875 222.46875 C 225.019531 226.453125 216.203125 241.636719 220.847656 257.011719 C 226.726562 276.367188 242.46875 283.484375 261.625 277.601562 Z M 104.78125 293.921875 C 101.652344 292.691406 98.429688 291.742188 95.488281 290.316406 C 90.746094 287.945312 86.195312 285.289062 81.644531 282.726562 C 75.195312 276.652344 70.644531 269.441406 69.414062 260.710938 C 67.324219 246.097656 69.128906 232.148438 80.316406 221.328125 C 87.808594 214.023438 97.007812 210.320312 107.722656 213.074219 C 115.59375 215.066406 123.746094 215.351562 131.429688 218.863281 C 153.332031 228.828125 162.339844 253.972656 153.710938 275.703125 C 148.96875 287.566406 138.351562 294.777344 124.410156 295.253906 C 117.773438 295.347656 111.324219 294.304688 104.78125 293.921875 Z M 113.316406 223.039062 C 109.429688 222.46875 106.300781 221.425781 103.171875 221.613281 C 99.472656 221.710938 95.679688 222.277344 92.171875 223.605469 C 84.585938 226.359375 81.453125 233 80.128906 240.402344 C 77 257.863281 80.601562 273.710938 99.378906 280.355469 C 105.636719 282.535156 112.082031 285.003906 119.859375 283.960938 C 118.816406 282.15625 118.53125 280.636719 117.488281 279.972656 C 111.230469 275.703125 108.195312 269.25 104.972656 262.894531 C 97.765625 248.46875 100.703125 233.382812 113.316406 223.039062 Z M 229.667969 173.503906 C 235.453125 174.074219 240.570312 174.453125 245.691406 174.925781 C 246.640625 175.019531 247.683594 175.304688 248.632812 175.210938 C 255.648438 174.546875 258.113281 176.160156 259.15625 182.234375 C 260.199219 188.402344 258.304688 191.628906 251.570312 192.765625 C 245.40625 193.808594 239.054688 193.808594 232.796875 194 C 228.71875 194.09375 224.546875 193.90625 220.46875 193.527344 C 215.917969 193.050781 213.453125 190.109375 212.695312 184.984375 C 212.125 181.191406 214.019531 177.394531 218.003906 176.066406 C 221.890625 174.738281 226.0625 174.261719 229.667969 173.503906 Z M 218.476562 183.46875 C 218.382812 187.261719 220.753906 187.640625 223.21875 187.453125 C 230.332031 186.976562 237.441406 186.410156 244.554688 185.746094 C 246.925781 185.554688 249.296875 184.796875 252.140625 184.226562 C 247.683594 180.523438 228.71875 180.242188 218.476562 183.46875 Z M 150.488281 184.511719 C 147.738281 189.351562 142.902344 189.351562 138.445312 189.824219 C 134.9375 190.203125 131.238281 189.539062 127.636719 189.730469 C 122.136719 190.109375 116.539062 190.679688 111.039062 191.34375 C 108.667969 191.628906 106.394531 192.386719 103.929688 192.578125 C 97.953125 193.050781 94.730469 188.402344 97.101562 182.800781 C 99.851562 176.253906 107.816406 172.078125 115.308594 172.742188 C 120.050781 173.125 124.886719 172.460938 129.625 172.933594 C 134.367188 173.3125 139.109375 174.261719 143.753906 175.402344 C 148.402344 176.539062 149.539062 180.523438 150.488281 184.511719 Z M 143.472656 182.421875 C 134.367188 178.34375 124.980469 177.582031 115.402344 177.964844 C 109.144531 178.246094 104.875 181.285156 103.265625 186.976562 C 116.539062 180.90625 130.195312 183.46875 143.472656 182.421875 Z M 173.246094 252.550781 C 175.140625 251.125 176.945312 249.796875 179.503906 247.898438 C 179.316406 245.71875 178.933594 242.777344 178.933594 239.835938 C 179.03125 232.527344 178.933594 225.21875 179.597656 217.914062 C 179.789062 216.207031 182.253906 213.546875 183.960938 213.359375 C 186.804688 212.882812 186.804688 215.730469 186.902344 218.101562 C 187.183594 228.828125 187.566406 239.644531 187.847656 250.367188 C 187.089844 255.015625 183.390625 256.34375 178.652344 257.675781 C 179.882812 260.234375 180.832031 262.324219 181.96875 264.316406 C 183.011719 266.214844 184.339844 267.921875 185.476562 269.820312 C 184.152344 272.953125 181.78125 273.238281 179.21875 271.625 C 177.039062 270.296875 175.238281 268.492188 173.246094 266.878906 C 171.160156 262.039062 169.546875 257.292969 173.246094 252.550781 Z M 210.511719 300.851562 C 212.410156 304.363281 211.367188 306.542969 208.898438 308.15625 C 204.539062 311.003906 197.046875 309.484375 191.359375 304.929688 C 186.996094 306.542969 182.824219 308.917969 178.460938 309.484375 C 174.761719 309.960938 170.589844 308.820312 166.988281 307.589844 C 165.660156 307.113281 165.1875 304.171875 164.332031 302.371094 C 166.039062 301.800781 167.839844 300.472656 169.359375 300.851562 C 175.523438 302.085938 180.640625 300.945312 185.195312 296.199219 C 190.03125 291.171875 190.976562 291.171875 195.910156 296.105469 C 199.890625 300.09375 204.445312 302.371094 210.511719 300.851562 Z M 253.5625 303.507812 C 258.492188 309.296875 257.925781 317.363281 252.710938 320.113281 C 250.71875 314.515625 249.011719 309.203125 253.5625 303.507812 Z M 263.425781 303.699219 C 269.589844 306.164062 272.242188 311.289062 270.15625 316.699219 C 265.226562 314.515625 262.570312 309.390625 263.425781 303.699219 Z M 101.9375 304.648438 C 105.445312 306.449219 106.582031 314.707031 103.738281 316.984375 C 101.746094 318.597656 99.472656 317.742188 98.996094 314.988281 C 98.429688 311.097656 98.714844 307.398438 101.9375 304.648438 Z M 89.324219 301.988281 C 92.835938 304.648438 91.980469 307.777344 90.9375 310.71875 C 90.085938 313.1875 89.136719 316.320312 84.488281 314.988281 C 84.867188 310.339844 84.488281 305.5 89.324219 301.988281 Z M 89.324219 301.988281 " fill-opacity="1" fill-rule="nonzero"/></svg>