<svg xmlns="http://www.w3.org/2000/svg" xmlns:xlink="http://www.w3.org/1999/xlink" width="500" zoomAndPan="magnify" viewBox="0 0 375 374.999991" height="500" preserveAspectRatio="xMidYMid meet" version="1.0"><defs><clipPath id="afab47334a"><path d="M 0 21 L 375 21 L 375 354.546875 L 0 354.546875 Z M 0 21 " clip-rule="nonzero"/></clipPath></defs><path fill="#ffffff" d="M 56.707031 128.988281 L 53.917969 129.863281 L 54.554688 126.992188 C 58.140625 109.597656 64.359375 93.402344 73.363281 77.363281 L 74.402344 75.449219 L 75.996094 76.964844 C 76.234375 77.203125 76.554688 77.445312 76.792969 77.683594 C 77.429688 78.242188 78.066406 78.800781 78.625 79.4375 C 82.609375 83.90625 86.515625 88.375 90.421875 92.84375 C 92.574219 95.316406 94.726562 97.710938 96.878906 100.183594 C 99.746094 103.453125 102.695312 103.695312 105.964844 100.902344 C 106.921875 100.105469 107.796875 99.226562 108.753906 98.269531 C 109.46875 97.472656 110.269531 96.671875 111.144531 95.953125 C 116.804688 90.847656 122.460938 85.742188 128.28125 80.476562 L 136.332031 73.296875 L 140.554688 81.355469 C 143.105469 86.300781 145.65625 91.089844 148.207031 95.875 C 148.605469 96.59375 148.921875 97.3125 149.320312 98.03125 C 150.4375 100.183594 151.554688 102.417969 152.910156 104.492188 C 153.707031 105.769531 154.742188 106.488281 155.859375 106.488281 C 156.894531 106.488281 157.851562 105.929688 158.726562 104.8125 C 164.625 96.914062 170.601562 88.773438 176.261719 80.875 C 178.734375 77.523438 181.125 74.171875 183.59375 70.820312 C 184.3125 69.863281 185.027344 68.90625 185.828125 67.871094 L 187.898438 65.15625 L 189.253906 66.035156 C 189.492188 66.195312 189.730469 66.355469 189.972656 66.433594 C 190.527344 66.753906 191.085938 67.070312 191.484375 67.628906 C 193.71875 70.582031 195.949219 73.613281 198.179688 76.566406 C 201.207031 80.636719 204.398438 84.945312 207.585938 89.09375 C 211.09375 93.722656 213.882812 97.230469 216.589844 100.34375 C 218.105469 102.097656 219.859375 102.976562 221.773438 102.894531 C 224.164062 102.816406 226.554688 101.378906 228.546875 98.746094 C 235.640625 89.570312 243.054688 80.394531 250.148438 71.539062 C 252.777344 68.347656 255.328125 65.078125 257.878906 61.804688 C 258.195312 61.40625 258.515625 61.167969 258.914062 60.847656 C 259.152344 60.6875 259.472656 60.449219 259.871094 60.050781 L 260.828125 59.253906 L 261.863281 59.890625 C 265.132812 61.964844 268.398438 63.960938 271.746094 66.035156 C 279.636719 70.980469 287.6875 76.007812 295.816406 81.035156 C 299.5625 83.347656 303.46875 85.582031 307.214844 87.738281 C 309.765625 89.253906 312.394531 90.6875 314.945312 92.203125 C 315.820312 92.761719 317.019531 93.800781 317.417969 95.078125 C 318.292969 97.710938 319.089844 100.421875 319.808594 103.054688 C 320.046875 104.011719 320.363281 104.972656 320.605469 105.929688 L 320.921875 106.886719 L 319.566406 108.242188 L 318.929688 108.164062 L 318.851562 108.242188 L 318.453125 108.082031 L 317.019531 107.84375 C 315.820312 107.605469 314.625 107.363281 313.429688 107.203125 C 311.039062 106.804688 308.730469 106.328125 306.417969 105.929688 C 300.917969 104.890625 295.257812 103.855469 289.601562 103.375 C 285.214844 103.054688 280.59375 103.695312 276.128906 104.414062 C 275.253906 104.570312 274.375 104.652344 273.5 104.8125 C 269.992188 105.289062 266.167969 106.167969 261.386719 107.523438 C 253.972656 109.597656 246.640625 113.347656 239.625 118.453125 C 236.996094 120.371094 234.605469 122.761719 232.214844 124.996094 C 231.097656 126.113281 229.902344 127.230469 228.785156 128.269531 C 218.34375 137.84375 211.09375 149.570312 207.347656 163.136719 C 206.070312 167.683594 204.714844 172.152344 203.28125 176.9375 C 202.644531 179.171875 201.925781 181.40625 201.210938 183.800781 L 200.890625 184.839844 L 191.964844 186.433594 L 191.566406 184.839844 C 191.167969 183.164062 190.769531 181.488281 190.371094 179.8125 C 189.414062 175.742188 188.457031 171.914062 187.421875 168.082031 C 186.941406 166.246094 185.984375 164.414062 185.027344 162.578125 L 184.628906 161.78125 C 183.753906 160.105469 182.957031 158.269531 182.160156 156.59375 C 180.246094 152.445312 178.253906 148.136719 175.542969 144.625 C 171.242188 138.878906 165.660156 133.773438 160.320312 129.148438 C 156.097656 125.476562 151.234375 122.363281 146.613281 119.570312 C 143.902344 117.898438 140.714844 116.78125 137.605469 115.742188 L 136.96875 115.503906 C 128.917969 112.628906 120.230469 110.953125 111.066406 110.398438 C 108.355469 110.238281 105.484375 110.875 102.535156 111.511719 C 101.421875 111.753906 100.304688 111.992188 99.269531 112.230469 C 97.675781 112.550781 96 112.949219 94.40625 113.347656 C 92.574219 113.828125 90.660156 114.226562 88.667969 114.625 C 79.582031 116.222656 71.53125 120.371094 63.402344 124.757812 C 63.164062 124.839844 62.925781 125.238281 62.605469 125.554688 C 62.285156 125.953125 61.808594 126.433594 61.328125 126.832031 C 59.976562 127.710938 58.460938 128.507812 56.707031 128.988281 Z M 111.703125 251.140625 C 111.863281 251.140625 111.941406 251.140625 112.101562 251.140625 C 124.933594 251.140625 135.453125 245.398438 143.425781 234.148438 C 149.003906 226.167969 152.589844 216.753906 155.0625 203.589844 C 159.285156 180.847656 153.546875 161.9375 138.085938 147.257812 C 129.953125 139.597656 116.484375 137.605469 107.398438 142.710938 C 105.484375 143.746094 103.492188 144.625 101.339844 145.503906 C 98.949219 146.460938 96.558594 147.496094 94.246094 148.933594 C 84.203125 154.996094 77.667969 162.976562 74.640625 172.789062 C 72.886719 178.453125 72.167969 184.359375 71.453125 189.945312 C 69.617188 205.664062 75.277344 217.949219 88.429688 226.40625 C 95.683594 231.113281 102.777344 232.550781 110.027344 230.714844 C 119.195312 228.402344 128.28125 223.773438 132.425781 205.503906 C 134.019531 198.320312 133.140625 191.460938 129.792969 185.714844 C 126.207031 179.492188 122.144531 175.980469 117.757812 175.261719 C 114.09375 174.703125 110.269531 176.0625 106.441406 179.492188 C 99.667969 185.554688 99.269531 189.226562 104.6875 195.769531 C 106.203125 197.605469 107.078125 199.121094 107.320312 200.398438 C 107.476562 201.035156 107.320312 201.59375 107 201.832031 C 106.761719 201.992188 106.28125 201.914062 105.722656 201.59375 C 100.625 198.320312 97.753906 194.730469 97.035156 191.140625 C 96.480469 188.03125 97.433594 184.597656 99.984375 180.929688 C 103.492188 175.980469 108.914062 174.148438 114.570312 172.152344 L 115.050781 171.992188 C 115.609375 171.832031 116.722656 171.914062 117.917969 172.390625 C 125.890625 175.34375 131.148438 180.6875 134.019531 188.828125 C 136.25 195.128906 136.410156 201.753906 134.417969 209.730469 C 132.824219 216.273438 130.671875 222.816406 125.492188 226.886719 C 110.027344 239.011719 95.601562 238.375 80.140625 224.730469 C 70.894531 216.671875 66.671875 204.863281 67.867188 190.664062 C 68.742188 179.972656 70.574219 168.800781 78.226562 159.226562 C 83.488281 152.605469 89.625 146.140625 98.710938 142.949219 C 99.507812 142.710938 100.226562 142.390625 100.941406 142.070312 C 101.261719 141.914062 101.578125 141.832031 101.898438 141.671875 L 103.332031 141.035156 L 102.296875 137.683594 L 101.023438 137.683594 C 100.625 137.683594 100.226562 137.683594 99.90625 137.605469 C 98.949219 137.523438 97.832031 137.523438 96.796875 137.761719 C 84.84375 140.398438 70.097656 145.34375 61.726562 160.503906 C 61.328125 161.222656 60.929688 161.9375 60.53125 162.65625 C 58.699219 165.847656 56.867188 169.199219 55.433594 172.710938 C 52.085938 180.769531 51.925781 189.546875 52.085938 197.046875 C 52.324219 212.84375 56.546875 225.289062 64.996094 235.183594 C 71.929688 243.320312 79.261719 247.871094 87.472656 249.304688 C 96.238281 250.820312 105.007812 251.0625 111.703125 251.140625 Z M 332.640625 160.34375 C 327.457031 149.492188 321.5625 142.789062 313.511719 138.878906 C 302.910156 133.613281 293.746094 132.097656 284.738281 134.011719 C 278.917969 135.289062 274.375 138.878906 269.992188 142.390625 L 269.277344 142.949219 C 265.847656 145.664062 262.101562 148.933594 260.828125 154.039062 C 258.992188 161.222656 257.320312 168.242188 256.285156 175.421875 C 255.726562 179.414062 255.886719 183.960938 256.761719 189.386719 C 257.640625 194.730469 258.914062 199.839844 260.667969 204.703125 C 263.378906 212.203125 267.441406 217.710938 272.78125 220.980469 C 282.027344 226.726562 291.992188 228.242188 301.554688 225.449219 C 304.742188 224.492188 310.640625 222.339844 313.589844 218.269531 C 318.453125 211.566406 320.445312 202.710938 319.011719 194.09375 C 317.574219 185.636719 313.113281 178.453125 306.417969 173.90625 C 302.191406 170.953125 298.046875 169.996094 294.300781 171.035156 C 290.316406 172.070312 286.96875 175.261719 284.578125 180.289062 C 282.984375 183.722656 283.382812 187.152344 285.855469 190.582031 C 288.5625 194.332031 291.910156 196.886719 295.976562 198.164062 C 296.773438 198.402344 297.570312 198.960938 298.367188 199.519531 C 298.445312 199.597656 298.527344 199.597656 298.527344 199.679688 C 298.046875 201.273438 297.25 201.433594 295.738281 201.511719 C 289.839844 201.832031 286.253906 198.640625 282.585938 193.773438 C 279.714844 189.945312 278.917969 186.035156 279.957031 181.566406 C 281.152344 176.78125 284.179688 173.507812 288.484375 170.078125 C 292.789062 166.648438 297.011719 166.089844 302.433594 168.242188 C 318.054688 174.546875 325.148438 193.136719 321.960938 206.539062 C 320.363281 213.242188 318.453125 219.703125 312.714844 223.695312 C 296.851562 234.785156 276.289062 232.070312 263.855469 217.230469 C 259.789062 212.363281 257.71875 206.539062 256.042969 201.035156 C 253.175781 191.300781 252.21875 181.886719 253.097656 172.230469 C 253.253906 170.554688 253.175781 168.878906 253.175781 167.203125 C 253.175781 166.488281 253.175781 165.6875 253.175781 164.972656 L 253.175781 162.738281 L 251.023438 163.375 C 250.785156 163.453125 250.625 163.453125 250.464844 163.535156 C 249.988281 163.613281 249.269531 163.773438 248.792969 164.492188 C 241.460938 175.980469 239.226562 187.871094 242.175781 199.597656 C 243.691406 205.582031 245.921875 211.964844 249.109375 219.066406 C 253.972656 229.996094 262.261719 237.738281 273.578125 242.125 C 280.511719 244.757812 287.367188 246.035156 294.460938 246.035156 C 297.332031 246.035156 300.199219 245.796875 303.148438 245.394531 C 313.828125 243.800781 322.199219 239.332031 328.8125 231.59375 C 336.464844 222.578125 340.371094 211.246094 340.609375 196.804688 C 340.769531 184.121094 338.140625 171.832031 332.640625 160.34375 Z M 298.6875 276.511719 L 306.179688 276.273438 L 299.484375 279.785156 C 297.570312 280.820312 295.65625 281.859375 293.746094 282.898438 C 289.519531 285.128906 285.214844 287.445312 280.832031 289.519531 C 267.441406 295.820312 252.9375 298.535156 239.226562 300.53125 C 227.113281 302.285156 214.597656 303.640625 202.164062 304.679688 C 197.78125 304.996094 193.558594 305.15625 189.332031 305.15625 C 181.679688 305.15625 174.191406 304.597656 167.097656 303.480469 C 164.386719 303.082031 161.597656 302.605469 158.886719 302.203125 C 147.011719 300.371094 134.738281 298.453125 122.78125 295.902344 C 112.578125 293.746094 104.769531 290.714844 98.152344 286.40625 C 94.804688 284.171875 91.21875 282.097656 87.871094 280.023438 C 86.753906 279.304688 85.558594 278.667969 84.445312 277.949219 L 84.125 278.347656 L 83.007812 277.070312 L 81.496094 276.113281 L 81.734375 275.796875 L 81.574219 275.714844 L 79.660156 275.078125 L 82.691406 271.488281 L 83.648438 272.523438 L 86.039062 272.921875 L 85.71875 273.320312 C 96.878906 276.671875 107.957031 277.628906 118.476562 276.035156 C 134.417969 273.722656 147.25 268.535156 157.769531 260.238281 C 167.734375 252.339844 174.507812 244.996094 179.609375 236.378906 C 181.761719 232.789062 183.355469 228.800781 184.871094 224.972656 C 186.304688 221.300781 187.820312 217.550781 189.8125 214.121094 L 190.210938 213.402344 L 204.398438 211.089844 L 204.875 212.445312 C 220.894531 257.125 251.582031 278.03125 298.6875 276.511719 Z M 175.703125 263.828125 C 176.582031 267.816406 177.777344 272.125 179.449219 277.070312 C 181.523438 283.296875 189.574219 288.722656 197.0625 288.960938 C 200.96875 288.402344 204.953125 285.289062 208.144531 280.503906 C 211.09375 276.035156 213.324219 271.007812 215.554688 266.140625 C 216.113281 264.863281 216.75 263.507812 217.308594 262.230469 C 218.902344 258.800781 217.070312 257.363281 216.511719 256.886719 C 212.128906 253.375 207.824219 249.945312 203.757812 246.832031 C 203.121094 246.355469 202.484375 246.035156 201.765625 246.035156 C 201.128906 246.035156 200.410156 246.273438 199.375 246.753906 C 193.078125 250.023438 186.382812 253.054688 180.246094 255.847656 C 176.101562 257.683594 174.828125 259.917969 175.703125 263.828125 Z M 175.703125 263.828125 " fill-opacity="1" fill-rule="nonzero"/><path fill="#9682dc" d="M 366.753906 184.121094 C 366.195312 172.390625 363.007812 161.460938 357.269531 151.726562 C 355.117188 148.054688 352.40625 144.785156 349.777344 141.59375 C 347.941406 139.359375 346.03125 137.125 344.4375 134.8125 C 339.574219 127.871094 332.480469 123.800781 325.625 120.289062 C 316.0625 115.34375 306.179688 112.472656 296.453125 111.753906 C 278.839844 110.554688 263.296875 113.667969 249.03125 121.328125 C 245.445312 123.242188 242.496094 125.238281 240.183594 127.3125 C 232.371094 134.253906 225.519531 142.390625 219.9375 151.488281 C 212.367188 163.695312 208.859375 175.742188 209.179688 188.269531 C 209.179688 188.90625 209.097656 189.625 209.019531 190.582031 C 209.019531 190.742188 208.941406 190.902344 208.941406 191.140625 L 185.667969 188.828125 C 185.269531 187.3125 184.949219 185.875 184.550781 184.359375 C 183.59375 180.53125 182.71875 176.859375 181.761719 173.1875 C 177.855469 158.507812 169.566406 145.902344 157.132812 135.6875 C 145.496094 126.195312 132.664062 120.769531 118.957031 119.652344 C 117.359375 119.492188 115.6875 119.492188 114.09375 119.492188 C 111.464844 119.492188 108.992188 119.492188 106.679688 118.933594 C 101.5 117.816406 96.480469 117.976562 90.582031 119.570312 C 76.074219 123.402344 64.121094 130.664062 54.15625 141.753906 C 53.4375 142.550781 52.324219 143.746094 51.128906 144.226562 C 47.0625 145.980469 44.273438 149.253906 42.679688 153.960938 C 41.800781 156.59375 40.925781 159.304688 40.207031 161.9375 C 39.171875 165.53125 38.054688 169.199219 36.703125 172.710938 C 33.753906 180.371094 33.753906 188.109375 33.753906 195.6875 C 33.753906 204.148438 35.425781 212.523438 39.09375 222.898438 C 43.398438 235.023438 52.324219 243.722656 61.886719 252.179688 C 62.285156 252.578125 62.765625 252.976562 63.164062 253.296875 C 65.234375 255.210938 67.386719 257.203125 69.9375 258.480469 C 73.84375 260.476562 77.90625 262.152344 81.894531 263.828125 C 83.804688 264.625 85.796875 265.503906 87.792969 266.300781 C 94.964844 269.414062 102.535156 269.414062 109.867188 269.414062 L 111.222656 269.414062 C 120.789062 269.414062 130.59375 267.257812 139.757812 263.269531 C 145.816406 260.636719 151.632812 257.046875 156.496094 252.898438 C 161.996094 248.269531 168.929688 242.523438 173.234375 234.625 C 173.632812 233.828125 174.109375 233.03125 174.507812 232.3125 C 177.617188 226.804688 180.804688 221.140625 182 214.519531 C 182.398438 212.445312 183.117188 210.371094 183.832031 208.214844 C 184.074219 207.496094 184.3125 206.699219 184.628906 205.980469 L 210.851562 207.097656 C 211.332031 208.453125 211.808594 209.730469 212.289062 211.007812 C 213.5625 214.519531 214.679688 217.789062 216.035156 221.0625 C 219.699219 230.238281 225.917969 237.417969 230.9375 242.683594 L 231.257812 243.003906 C 235.242188 247.152344 239.386719 251.539062 244.25 254.652344 C 248.792969 257.523438 253.734375 259.679688 258.515625 261.832031 C 260.347656 262.628906 262.261719 263.507812 264.175781 264.386719 C 265.128906 264.863281 266.167969 265.023438 267.203125 265.261719 L 267.523438 265.34375 C 279.160156 267.738281 288.722656 268.375 297.570312 267.257812 L 298.84375 267.097656 C 301.316406 266.78125 303.867188 266.460938 306.257812 265.742188 C 310.800781 264.226562 315.34375 262.472656 319.726562 260.714844 L 320.605469 260.398438 C 321.242188 260.15625 321.878906 259.917969 322.515625 259.679688 C 325.066406 258.722656 327.699219 257.683594 329.929688 256.167969 C 330.726562 255.609375 331.601562 255.050781 332.398438 254.492188 C 337.820312 250.820312 343.480469 246.992188 347.464844 241.246094 C 348.421875 239.890625 349.535156 238.453125 350.574219 237.179688 C 352.167969 235.105469 353.921875 232.949219 355.195312 230.636719 L 355.433594 230.15625 C 358.382812 224.972656 361.492188 219.546875 363.324219 213.800781 C 366.035156 204.386719 367.308594 194.414062 366.753906 184.121094 Z M 258.277344 144.785156 C 258.675781 144.304688 259.074219 143.828125 259.472656 143.589844 C 261.625 142.230469 263.777344 140.796875 265.847656 139.359375 C 272.542969 134.8125 278.917969 130.503906 286.890625 129.226562 C 287.289062 129.148438 287.605469 129.066406 288.003906 128.988281 C 288.402344 128.90625 288.722656 128.828125 289.042969 128.746094 C 289.28125 128.746094 289.519531 128.746094 289.757812 128.746094 C 290 128.746094 290.15625 128.746094 290.398438 128.746094 C 290.636719 128.746094 290.875 128.746094 291.113281 128.746094 C 308.648438 129.703125 321.320312 136.246094 329.929688 148.933594 C 336.542969 158.667969 340.691406 169.839844 342.523438 183.242188 C 344.117188 194.652344 343.71875 204.863281 341.246094 214.4375 C 336.863281 231.511719 326.582031 243.082031 311.597656 247.789062 C 298.527344 251.859375 285.933594 251.78125 274.21875 247.550781 C 264.414062 243.960938 257.480469 239.253906 252.296875 232.628906 C 249.109375 228.5625 246.640625 223.613281 244.566406 219.386719 C 244.25 218.667969 243.929688 218.03125 243.53125 217.3125 C 240.980469 212.125 238.589844 207.257812 237.714844 201.671875 C 236.117188 191.621094 235.320312 179.8125 241.9375 168.003906 C 246.480469 159.863281 251.660156 152.445312 257.796875 145.34375 C 258.039062 145.105469 258.117188 144.945312 258.277344 144.785156 Z M 158.648438 199.199219 C 157.691406 208.773438 155.378906 217.710938 151.714844 225.929688 C 144.300781 242.605469 134.496094 251.539062 120.867188 254.09375 C 115.609375 255.050781 110.027344 254.890625 104.527344 254.652344 C 103.492188 254.570312 102.378906 254.570312 101.339844 254.570312 C 96.796875 254.414062 91.457031 254.171875 86.355469 252.976562 C 73.921875 250.105469 64.121094 242.445312 57.265625 230.078125 C 52.242188 221.0625 49.613281 211.007812 49.136719 199.519531 C 48.738281 189.464844 49.691406 180.371094 52.164062 171.753906 C 53.679688 166.488281 56.867188 162.179688 60.292969 157.710938 C 61.25 156.433594 62.285156 155.078125 63.242188 153.640625 C 67.867188 147.097656 74.5625 142.550781 84.285156 139.519531 C 89.144531 138.003906 94.328125 136.886719 99.269531 135.769531 C 101.179688 135.371094 103.09375 134.972656 105.007812 134.492188 L 105.085938 134.730469 L 105.804688 134.8125 C 106.523438 134.972656 107.238281 135.050781 107.957031 135.210938 C 109.550781 135.53125 111.304688 135.847656 112.976562 136.007812 C 114.414062 136.167969 115.847656 136.246094 117.203125 136.246094 C 119.273438 136.328125 121.1875 136.40625 123.019531 136.726562 C 135.292969 138.800781 144.699219 146.0625 150.757812 158.269531 L 151.472656 159.703125 C 154.34375 165.371094 157.210938 171.195312 158.328125 177.097656 C 159.84375 184.519531 159.363281 192.417969 158.648438 199.199219 Z M 158.648438 199.199219 " fill-opacity="1" fill-rule="nonzero"/><path fill="#fadc32" d="M 50.648438 252.898438 L 71.292969 273.320312 L 51.046875 323.269531 L 48.339844 322.789062 L 48.179688 321.914062 C 47.859375 320.398438 47.542969 318.960938 47.222656 317.445312 C 46.503906 314.171875 45.789062 310.742188 44.832031 307.472656 C 44.273438 305.476562 43.476562 304.28125 42.441406 303.800781 C 41.324219 303.242188 39.730469 303.480469 37.578125 304.359375 C 36.382812 304.839844 35.265625 305.316406 33.832031 305.953125 L 28.890625 308.03125 L 29.367188 305.636719 C 29.527344 304.839844 29.6875 304.039062 29.765625 303.402344 C 30.007812 302.046875 30.164062 300.929688 30.5625 299.8125 C 31.121094 297.976562 31.761719 296.140625 32.316406 294.304688 C 33.273438 291.355469 34.308594 288.242188 35.109375 285.128906 C 36.0625 281.222656 35.027344 278.988281 31.203125 276.832031 C 28.652344 275.398438 25.941406 274.28125 23.3125 273.082031 L 22.753906 272.84375 C 20.839844 271.964844 18.847656 271.246094 16.535156 270.289062 C 15.421875 269.8125 14.226562 269.414062 12.949219 268.855469 L 10.398438 267.816406 L 12.789062 266.460938 C 19.804688 262.628906 27.136719 260.476562 34.230469 258.402344 C 39.410156 256.886719 44.832031 255.289062 49.933594 253.054688 Z M 353.203125 304.039062 C 346.347656 298.296875 339.015625 293.109375 332 288.082031 C 325.785156 283.613281 319.886719 279.464844 314.226562 274.917969 L 313.511719 274.28125 L 289.203125 291.195312 L 289.359375 291.992188 C 291.433594 303.242188 294.542969 318.082031 299.800781 333.878906 L 300.917969 337.070312 L 303.230469 331.726562 C 303.785156 330.449219 304.183594 329.570312 304.503906 328.695312 C 305.222656 327.097656 306.019531 326.140625 306.976562 325.902344 C 307.929688 325.664062 309.128906 325.980469 310.480469 326.9375 C 312.953125 328.613281 315.421875 330.449219 317.894531 332.203125 C 319.488281 333.320312 321.003906 334.519531 322.597656 335.636719 C 323.234375 336.113281 323.871094 336.355469 324.589844 336.671875 C 324.910156 336.832031 325.308594 336.992188 325.625 337.152344 L 327.457031 338.109375 L 327.457031 335.875 C 327.457031 335.476562 327.457031 335.078125 327.457031 334.839844 C 327.457031 334.199219 327.539062 333.640625 327.378906 333.003906 C 327.058594 331.246094 326.742188 329.570312 326.421875 327.816406 C 325.863281 324.703125 325.226562 321.511719 324.828125 318.320312 C 324.269531 314.011719 326.261719 310.105469 329.210938 309.546875 C 332.082031 308.988281 335.109375 308.746094 338.058594 308.589844 L 339.890625 308.429688 C 342.683594 308.1875 345.472656 308.03125 348.179688 307.871094 C 349.378906 307.789062 350.574219 307.710938 351.769531 307.628906 L 352.644531 307.550781 L 353.679688 304.519531 Z M 302.910156 80.15625 C 304.265625 81.035156 305.699219 81.832031 307.054688 82.710938 L 308.410156 84.226562 L 309.445312 83.109375 C 310.324219 82.230469 309.925781 81.511719 309.683594 81.195312 C 309.527344 81.035156 309.367188 80.875 309.207031 80.714844 C 305.859375 72.898438 299.882812 67.230469 295.65625 63.722656 C 284.417969 54.304688 271.027344 46.804688 253.496094 40.105469 C 240.421875 35.15625 226.875 32.046875 215.316406 29.652344 C 195.070312 25.503906 178.175781 25.261719 162.074219 28.933594 C 161.757812 29.011719 161.355469 29.011719 160.957031 29.011719 C 160.800781 29.011719 160.558594 29.011719 160.402344 29.011719 C 149.480469 29.8125 138.003906 32.445312 124.296875 37.3125 C 111.621094 41.78125 99.269531 49.359375 85.398438 61.167969 C 83.167969 63.082031 81.414062 65.398438 79.820312 67.390625 C 79.183594 68.1875 78.546875 68.988281 77.988281 69.703125 L 77.269531 70.582031 L 101.101562 96.992188 L 102.058594 96.355469 C 102.457031 96.113281 102.777344 95.875 103.09375 95.636719 C 103.8125 95.15625 104.449219 94.757812 105.007812 94.28125 C 107.636719 91.804688 110.347656 89.253906 112.898438 86.78125 L 114.09375 85.582031 C 115.6875 84.066406 117.359375 82.472656 118.957031 80.953125 C 123.339844 76.804688 127.800781 72.496094 132.1875 68.1875 C 133.382812 66.992188 134.496094 66.433594 135.535156 66.511719 C 136.648438 66.59375 137.765625 67.472656 138.882812 69.066406 C 140.632812 71.539062 142.070312 74.253906 143.425781 76.886719 L 144.222656 78.320312 C 145.894531 81.511719 147.648438 84.703125 149.320312 87.898438 C 150.917969 90.929688 152.511719 94.039062 154.183594 97.070312 C 154.503906 97.710938 155.0625 98.03125 155.699219 98.347656 C 155.9375 98.507812 156.257812 98.667969 156.65625 98.90625 L 157.691406 99.546875 L 158.410156 98.507812 C 160.242188 95.875 161.996094 93.242188 163.75 90.609375 C 167.972656 84.304688 172.355469 77.84375 176.738281 71.539062 C 177.21875 70.820312 177.695312 70.105469 178.253906 69.386719 C 180.566406 65.953125 183.035156 62.363281 185.746094 59.253906 C 186.863281 57.976562 187.898438 57.417969 188.773438 57.417969 C 190.050781 57.496094 191.167969 58.695312 191.882812 59.730469 C 193.078125 61.40625 194.355469 63.164062 195.550781 64.917969 C 197.941406 68.347656 200.410156 71.859375 203.042969 75.210938 C 207.027344 80.316406 211.09375 85.261719 215.394531 90.449219 C 217.230469 92.683594 219.0625 94.839844 220.894531 97.152344 L 221.933594 98.429688 L 228.625 90.128906 C 233.011719 84.625 237.394531 79.199219 241.777344 73.773438 C 243.371094 71.78125 244.964844 69.785156 246.480469 67.789062 C 248.792969 64.839844 251.183594 61.804688 253.574219 58.933594 C 256.203125 55.742188 258.515625 54.703125 261.226562 55.421875 C 264.332031 56.300781 267.042969 57.417969 269.277344 58.773438 C 274.535156 61.964844 279.796875 65.398438 284.898438 68.667969 C 287.765625 70.503906 290.554688 72.339844 293.425781 74.09375 C 296.613281 76.328125 299.800781 78.242188 302.910156 80.15625 Z M 302.910156 80.15625 " fill-opacity="1" fill-rule="nonzero"/><path fill="#fa9b73" d="M 210.453125 267.578125 L 209.816406 268.535156 C 209.019531 269.730469 208.222656 271.007812 207.503906 272.203125 C 205.832031 275.078125 204 277.949219 201.6875 280.421875 C 199.695312 282.578125 196.984375 283.695312 194.195312 283.695312 C 193.796875 283.695312 193.476562 283.695312 193.078125 283.613281 C 189.972656 283.296875 187.339844 281.460938 185.746094 278.746094 C 183.355469 274.679688 182 270.050781 180.644531 265.503906 L 180.246094 264.148438 C 179.847656 262.789062 180.167969 261.433594 181.042969 260.316406 C 182.238281 258.878906 184.230469 258.242188 186.464844 258.480469 L 187.179688 258.5625 C 194.671875 259.359375 202.484375 260.238281 209.65625 266.78125 Z M 210.453125 267.578125 " fill-opacity="1" fill-rule="nonzero"/><g clip-path="url(#afab47334a)"><path fill="#3c50be" d="M 319.167969 271.566406 C 327.21875 277.3125 334.792969 282.578125 342.285156 287.921875 C 349.535156 293.109375 356.789062 298.296875 364.042969 303.480469 C 366.355469 305.15625 366.992188 307.789062 366.113281 309.945312 C 365.476562 311.539062 363.164062 313.296875 361.414062 313.535156 C 355.117188 314.414062 348.820312 314.652344 342.441406 315.128906 C 339.335938 315.371094 336.226562 315.6875 332.800781 316.007812 C 334.152344 324.226562 335.429688 331.804688 336.785156 339.386719 C 337.421875 342.816406 337.023438 345.929688 334.074219 347.921875 C 331.203125 349.917969 328.097656 348.722656 325.546875 347.046875 C 322.4375 344.972656 319.648438 342.339844 316.699219 340.105469 C 315.023438 338.828125 313.273438 337.789062 311.121094 336.433594 C 310.003906 340.503906 308.96875 344.011719 308.011719 347.445312 C 307.773438 348.320312 307.613281 349.199219 307.375 350.078125 C 306.417969 352.710938 304.265625 353.746094 301.792969 354.144531 C 299.164062 354.546875 297.808594 352.628906 297.09375 350.636719 C 295.097656 345.53125 293.1875 340.421875 291.75 335.238281 C 289.519531 327.097656 287.605469 318.878906 285.695312 310.664062 C 285.058594 307.710938 284.976562 304.679688 284.5 301.648438 C 284.179688 299.414062 283.621094 297.257812 283.0625 294.785156 C 279.238281 296.140625 275.8125 297.738281 272.144531 298.613281 C 262.023438 301.167969 251.898438 303.722656 241.617188 305.636719 C 226.554688 308.429688 211.410156 310.421875 196.027344 310.820312 C 181.683594 311.222656 167.496094 310.183594 153.464844 307.628906 C 137.84375 304.757812 122.304688 301.488281 106.839844 297.816406 C 101.976562 296.699219 97.355469 293.988281 92.890625 291.433594 C 87.234375 288.242188 81.894531 284.570312 76.3125 280.980469 C 73.046875 289.28125 69.859375 297.65625 66.511719 306.035156 C 63.164062 314.253906 59.734375 322.472656 56.386719 330.6875 C 55.910156 331.964844 55.988281 333.480469 55.273438 334.597656 C 54.078125 336.433594 52.882812 338.507812 51.046875 339.625 C 47.859375 341.539062 44.910156 340.34375 44.035156 336.753906 C 42.519531 330.929688 41.402344 324.945312 40.207031 319.039062 C 39.730469 316.566406 39.332031 314.09375 38.855469 311.0625 C 35.425781 312.976562 32.476562 314.570312 29.6875 316.167969 C 27.773438 317.285156 25.863281 318.003906 23.710938 316.566406 C 21.476562 315.050781 21.238281 312.816406 21.71875 310.503906 C 23.3125 303.003906 24.984375 295.503906 26.578125 288.082031 C 26.898438 286.804688 27.21875 285.449219 27.535156 283.773438 C 21.558594 281.378906 15.738281 279.144531 10 276.671875 C 7.292969 275.476562 4.660156 274.039062 2.269531 272.285156 C 0.0390625 270.609375 0.277344 268.453125 2.191406 266.460938 C 6.652344 261.671875 12.3125 258.878906 18.289062 256.804688 C 26.261719 254.011719 34.390625 251.539062 42.441406 248.90625 C 42.839844 248.746094 43.238281 248.429688 43.398438 248.347656 C 39.652344 241.964844 35.507812 235.820312 32.238281 229.28125 C 26.578125 218.03125 24.1875 205.742188 23.949219 193.296875 C 23.789062 183.960938 25.703125 174.546875 29.128906 165.847656 C 32.160156 158.109375 35.1875 150.210938 41.246094 143.90625 C 44.433594 140.636719 46.503906 136.167969 47.460938 131.140625 C 51.046875 113.746094 57.265625 97.152344 65.472656 81.433594 C 68.902344 74.890625 72.964844 68.667969 77.351562 62.761719 C 79.980469 59.171875 83.25 55.820312 86.914062 53.1875 C 93.847656 48.164062 101.179688 43.613281 108.515625 39.066406 C 116.007812 34.4375 124.375 31.804688 132.824219 29.171875 C 147.410156 24.625 162.394531 22.710938 177.378906 21.671875 C 189.890625 20.796875 202.484375 21.914062 214.757812 25.183594 C 215.792969 25.421875 216.832031 25.980469 217.867188 25.902344 C 229.824219 25.183594 240.261719 30.609375 251.183594 34.039062 C 262.101562 37.472656 272.304688 42.417969 282.109375 48.242188 C 297.648438 57.417969 310.960938 68.828125 318.214844 85.980469 C 321.082031 92.84375 323.632812 99.785156 326.183594 106.726562 C 327.21875 109.4375 328.335938 111.273438 331.363281 113.03125 C 333.835938 114.464844 336.703125 116.539062 338.9375 118.535156 C 345.871094 122.605469 350.730469 128.828125 355.992188 134.492188 C 359.261719 138.082031 361.730469 142.472656 364.121094 146.78125 C 371.136719 159.464844 374.246094 173.269531 374.722656 187.710938 C 374.960938 195.128906 373.765625 202.230469 372.570312 209.492188 C 371.375 216.273438 368.507812 222.179688 366.035156 228.164062 C 361.730469 238.453125 354.957031 247.390625 346.1875 254.570312 C 341.089844 258.800781 335.746094 262.710938 330.25 266.378906 C 327.058594 268.613281 323.394531 269.730469 319.167969 271.566406 Z M 82.691406 274.28125 C 82.53125 274.199219 82.292969 274.121094 82.132812 274.121094 C 82.292969 274.199219 82.53125 274.199219 82.691406 274.28125 C 83.167969 274.679688 83.648438 275.238281 84.125 275.714844 C 89.144531 278.828125 94.246094 281.78125 99.1875 284.972656 C 106.523438 289.757812 114.890625 292.390625 123.179688 294.226562 C 137.765625 297.339844 152.667969 299.492188 167.414062 301.804688 C 178.890625 303.640625 190.527344 303.878906 202.085938 303.003906 C 214.441406 302.046875 226.792969 300.6875 239.066406 298.855469 C 253.175781 296.78125 267.203125 294.148438 280.195312 288.003906 C 286.492188 285.050781 292.628906 281.539062 298.84375 278.269531 C 250.703125 279.785156 219.382812 257.761719 203.203125 213.164062 C 199.375 213.800781 195.3125 214.4375 191.246094 215.15625 C 187.261719 222.179688 185.347656 230.238281 181.042969 237.496094 C 175.226562 247.230469 167.574219 254.8125 158.808594 261.832031 C 146.929688 271.246094 133.222656 275.875 118.714844 277.949219 C 107.320312 279.625 95.921875 278.429688 84.761719 274.996094 C 84.046875 274.757812 83.328125 274.519531 82.691406 274.28125 Z M 307.929688 81.753906 C 308.089844 81.914062 308.25 82.152344 308.410156 82.3125 C 308.488281 82.230469 308.730469 82.070312 308.648438 81.992188 C 308.488281 81.753906 308.328125 81.59375 308.089844 81.433594 C 305.222656 74.570312 300.28125 69.304688 294.78125 64.679688 C 282.507812 54.304688 268.238281 47.046875 253.09375 41.300781 C 240.742188 36.59375 228.070312 33.5625 215.078125 30.929688 C 197.460938 27.339844 180.007812 26.222656 162.394531 30.210938 C 161.835938 30.371094 161.199219 30.371094 160.558594 30.371094 C 148.207031 31.246094 136.332031 34.519531 124.773438 38.589844 C 110.347656 43.695312 97.914062 52.390625 86.277344 62.285156 C 83.25 64.839844 81.097656 68.269531 79.105469 70.664062 C 86.914062 79.28125 94.085938 87.257812 101.421875 95.398438 C 102.535156 94.597656 103.492188 94.121094 104.210938 93.402344 C 107.320312 90.53125 110.269531 87.65625 113.375 84.703125 C 119.433594 78.960938 125.492188 73.214844 131.46875 67.3125 C 134.417969 64.4375 137.367188 64.519531 140.15625 68.347656 C 142.230469 71.300781 143.902344 74.570312 145.574219 77.761719 C 148.921875 83.988281 152.191406 90.289062 155.460938 96.59375 C 155.699219 96.992188 156.414062 97.230469 157.453125 97.871094 C 163.589844 88.773438 169.644531 79.757812 175.785156 70.820312 C 178.652344 66.59375 181.523438 62.203125 184.871094 58.375 C 187.820312 55.023438 190.609375 55.582031 193.078125 59.011719 C 196.746094 64.121094 200.253906 69.464844 204.15625 74.414062 C 209.898438 81.753906 215.875 88.855469 222.011719 96.355469 C 228.386719 88.453125 234.605469 80.714844 240.820312 72.976562 C 244.804688 68.03125 248.632812 63.003906 252.617188 58.136719 C 254.929688 55.34375 257.796875 53.109375 261.625 54.226562 C 264.492188 55.023438 267.441406 56.140625 269.992188 57.738281 C 278.121094 62.683594 286.09375 67.949219 294.144531 73.054688 C 298.6875 76.089844 303.308594 78.878906 307.929688 81.753906 Z M 318.929688 106.328125 C 319.167969 106.40625 319.328125 106.488281 319.566406 106.648438 C 319.328125 106.488281 319.167969 106.40625 318.929688 106.328125 C 317.894531 102.738281 316.9375 99.148438 315.742188 95.554688 C 315.503906 94.757812 314.785156 94.039062 314.070312 93.640625 C 307.691406 89.890625 301.238281 86.300781 294.941406 82.472656 C 283.460938 75.449219 272.144531 68.269531 260.984375 61.328125 C 259.949219 62.203125 259.472656 62.445312 259.234375 62.84375 C 249.429688 75.128906 239.546875 87.339844 229.824219 99.703125 C 225.4375 105.289062 219.460938 106.246094 215.15625 101.378906 C 211.96875 97.710938 209.019531 93.960938 206.070312 90.050781 C 200.652344 82.949219 195.390625 75.769531 190.050781 68.589844 C 189.730469 68.1875 189.09375 67.949219 188.296875 67.390625 C 187.101562 68.90625 186.066406 70.34375 185.027344 71.78125 C 176.738281 83.109375 168.53125 94.519531 160.082031 105.769531 C 157.609375 109.121094 153.785156 108.878906 151.472656 105.371094 C 149.640625 102.578125 148.207031 99.546875 146.691406 96.671875 C 143.105469 89.890625 139.597656 83.109375 135.851562 76.007812 C 127.722656 83.269531 119.992188 90.210938 112.339844 97.230469 C 110.585938 98.828125 108.992188 100.742188 107.160156 102.257812 C 103.09375 105.6875 99.1875 105.289062 95.683594 101.300781 C 89.625 94.359375 83.488281 87.417969 77.429688 80.554688 C 76.710938 79.757812 75.835938 79.039062 74.878906 78.242188 C 66.113281 93.800781 59.894531 109.996094 56.230469 127.390625 C 57.824219 126.273438 58.621094 126.113281 59.816406 125.238281 C 60.691406 124.597656 63.003906 123.242188 63.878906 122.761719 C 72.089844 118.296875 79.183594 114.386719 88.507812 112.710938 C 92.015625 112.070312 95.523438 111.035156 99.109375 110.398438 C 103.175781 109.597656 107.320312 108.242188 111.382812 108.480469 C 120.308594 109.039062 129.238281 110.714844 137.765625 113.746094 C 141.191406 114.945312 144.621094 116.140625 147.648438 117.976562 C 152.511719 120.929688 157.371094 124.039062 161.597656 127.789062 C 167.097656 132.65625 172.675781 137.683594 177.058594 143.507812 C 180.964844 148.695312 183.355469 155.078125 186.304688 160.980469 C 187.339844 163.136719 188.535156 165.289062 189.171875 167.523438 C 190.6875 172.949219 191.882812 178.535156 193.316406 184.359375 C 196.027344 183.878906 198.339844 183.480469 199.613281 183.242188 C 201.765625 175.820312 203.839844 169.28125 205.671875 162.65625 C 209.578125 148.613281 216.910156 136.804688 227.671875 126.992188 C 231.335938 123.640625 234.683594 119.890625 238.667969 117.019531 C 245.445312 112.070312 252.855469 108.164062 260.984375 105.847656 C 265.050781 104.730469 269.117188 103.695312 273.261719 103.054688 C 278.679688 102.257812 284.257812 101.222656 289.679688 101.621094 C 297.730469 102.257812 305.699219 104.09375 313.671875 105.449219 C 315.421875 105.609375 317.175781 106.007812 318.929688 106.328125 Z M 211.570312 206.0625 C 213.402344 211.167969 215.078125 216.035156 216.988281 220.820312 C 220.257812 228.960938 225.679688 235.742188 231.65625 242.046875 C 235.71875 246.273438 239.863281 250.664062 244.726562 253.773438 C 250.863281 257.683594 257.878906 260.316406 264.492188 263.429688 C 265.449219 263.90625 266.484375 264.066406 267.523438 264.304688 C 277.324219 266.378906 287.128906 267.417969 297.171875 266.140625 C 300.039062 265.742188 302.910156 265.503906 305.621094 264.625 C 310.480469 263.03125 315.183594 261.113281 319.886719 259.28125 C 322.996094 258.003906 326.261719 256.964844 328.972656 255.128906 C 335.191406 250.902344 341.726562 246.992188 346.109375 240.53125 C 348.582031 236.9375 351.609375 233.746094 353.761719 229.996094 C 356.789062 224.652344 359.976562 219.226562 361.8125 213.402344 C 364.839844 203.988281 365.957031 194.171875 365.476562 184.28125 C 364.917969 172.949219 361.8125 162.179688 356.152344 152.445312 C 352.644531 146.378906 347.382812 141.355469 343.320312 135.609375 C 338.617188 128.90625 331.601562 124.917969 324.910156 121.488281 C 316.140625 116.9375 306.578125 113.828125 296.214844 113.109375 C 279.558594 111.914062 264.09375 114.703125 249.507812 122.523438 C 246.480469 124.121094 243.453125 126.035156 240.902344 128.347656 C 233.089844 135.289062 226.394531 143.269531 220.894531 152.203125 C 214.042969 163.214844 209.976562 175.105469 210.296875 188.269531 C 210.296875 189.464844 210.054688 190.582031 209.898438 192.578125 C 201.128906 191.699219 192.679688 190.820312 184.472656 190.023438 C 183.035156 184.359375 181.761719 178.933594 180.328125 173.589844 C 176.339844 158.589844 167.972656 146.460938 156.097656 136.726562 C 145.257812 127.871094 132.824219 122.125 118.636719 121.007812 C 114.492188 120.6875 110.1875 121.246094 106.121094 120.289062 C 100.78125 119.09375 95.921875 119.492188 90.582031 120.847656 C 76.394531 124.597656 64.519531 131.78125 54.792969 142.628906 C 53.835938 143.746094 52.640625 144.863281 51.289062 145.421875 C 47.222656 147.257812 44.910156 150.53125 43.476562 154.4375 C 41.324219 160.664062 39.808594 167.125 37.417969 173.269531 C 34.550781 180.609375 34.550781 188.03125 34.550781 195.769531 C 34.550781 205.183594 36.78125 213.960938 39.808594 222.578125 C 44.113281 234.546875 53.039062 243.082031 62.207031 251.300781 C 64.675781 253.535156 67.148438 255.929688 70.015625 257.445312 C 75.757812 260.398438 81.894531 262.628906 87.792969 265.183594 C 95.042969 268.375 102.933594 268.214844 110.507812 268.214844 C 120.152344 268.214844 129.792969 266.140625 138.640625 262.230469 C 144.539062 259.679688 150.199219 256.167969 155.140625 252.097656 C 161.355469 246.914062 167.496094 241.648438 171.640625 234.226562 C 175.144531 227.84375 178.972656 221.78125 180.328125 214.519531 C 180.882812 211.328125 182.238281 208.296875 183.277344 204.863281 C 192.917969 205.261719 202.164062 205.664062 211.570312 206.0625 Z M 313.351562 275.875 C 305.460938 281.378906 298.046875 286.566406 290.636719 291.753906 C 293.1875 305.476562 296.214844 319.121094 300.996094 333.402344 C 302.035156 330.929688 302.671875 329.492188 303.230469 328.136719 C 304.902344 324.304688 307.613281 323.347656 311.121094 325.742188 C 315.265625 328.535156 319.167969 331.488281 323.234375 334.359375 C 324.03125 334.917969 324.988281 335.238281 326.183594 335.796875 C 326.183594 334.597656 326.261719 333.878906 326.183594 333.164062 C 325.386719 328.214844 324.269531 323.347656 323.632812 318.402344 C 322.996094 313.375 325.386719 308.90625 329.054688 308.1875 C 332.640625 307.550781 336.226562 307.3125 339.890625 307.070312 C 343.878906 306.753906 347.863281 306.59375 351.847656 306.273438 C 352.007812 305.796875 352.167969 305.316406 352.324219 304.917969 C 339.734375 294.464844 325.625 285.769531 313.351562 275.875 Z M 49.375 321.671875 C 49.613281 321.753906 49.933594 321.753906 50.171875 321.832031 C 56.546875 306.113281 62.925781 290.398438 69.699219 273.640625 C 63.722656 267.738281 57.027344 261.113281 50.332031 254.492188 C 38.214844 259.757812 25.382812 261.355469 13.347656 267.898438 C 17.332031 269.492188 20.28125 270.609375 23.152344 271.886719 C 26.101562 273.164062 28.96875 274.359375 31.761719 275.953125 C 35.984375 278.269531 37.417969 281.140625 36.304688 285.6875 C 35.027344 290.636719 33.195312 295.503906 31.761719 300.371094 C 31.28125 301.964844 31.121094 303.5625 30.644531 306.035156 C 33.433594 304.839844 35.265625 304.039062 37.019531 303.320312 C 41.800781 301.328125 44.671875 302.445312 46.027344 307.3125 C 47.382812 312.019531 48.257812 316.886719 49.375 321.671875 Z M 291.195312 127.390625 C 307.613281 128.269531 321.5625 134.171875 331.046875 148.136719 C 338.21875 158.589844 342.125 170.316406 343.878906 183.003906 C 345.390625 193.855469 345.152344 204.386719 342.523438 214.757812 C 338.296875 231.195312 328.414062 243.878906 311.996094 248.988281 C 299.640625 252.816406 286.652344 253.375 273.820312 248.667969 C 264.890625 245.398438 257.082031 240.769531 251.34375 233.347656 C 248.152344 229.28125 245.761719 224.570312 243.453125 219.863281 C 240.660156 214.039062 237.554688 208.375 236.515625 201.753906 C 234.605469 189.785156 234.605469 178.453125 240.820312 167.203125 C 245.445312 158.90625 250.703125 151.40625 256.839844 144.304688 C 257.398438 143.589844 257.957031 142.789062 258.753906 142.390625 C 267.679688 136.886719 275.8125 129.625 286.652344 127.871094 C 287.367188 127.710938 288.085938 127.472656 288.882812 127.390625 C 289.679688 127.3125 290.398438 127.390625 291.195312 127.390625 Z M 300.519531 198.800781 C 299.882812 202.3125 298.367188 203.03125 295.816406 203.1875 C 289.042969 203.507812 284.898438 199.757812 281.230469 194.8125 C 278.121094 190.664062 277.085938 186.195312 278.363281 181.167969 C 279.714844 175.742188 283.304688 172.152344 287.527344 168.722656 C 292.46875 164.730469 297.570312 164.332031 303.148438 166.648438 C 319.488281 173.1875 327.140625 192.417969 323.710938 207.019531 C 322.117188 213.878906 320.125 220.742188 313.75 225.210938 C 297.171875 236.859375 275.570312 233.988281 262.582031 218.429688 C 258.4375 213.480469 256.285156 207.816406 254.449219 201.59375 C 251.582031 191.859375 250.464844 182.125 251.421875 172.152344 C 251.660156 169.839844 251.421875 167.523438 251.421875 165.050781 C 250.703125 165.210938 250.304688 165.210938 250.226562 165.371094 C 243.609375 175.742188 240.820312 187.070312 243.769531 199.121094 C 245.445312 205.664062 247.835938 212.125 250.625 218.269531 C 255.328125 228.800781 263.296875 236.222656 274.136719 240.371094 C 283.460938 243.878906 292.789062 245.078125 302.910156 243.5625 C 312.953125 242.125 321.082031 237.894531 327.457031 230.394531 C 335.667969 220.742188 338.617188 209.011719 338.855469 196.644531 C 339.09375 184.199219 336.464844 172.230469 331.125 161.0625 C 327.058594 152.445312 321.71875 144.785156 312.792969 140.398438 C 304.105469 136.089844 294.941406 133.535156 285.214844 135.6875 C 279.476562 136.964844 275.015625 140.714844 270.472656 144.304688 C 266.964844 147.097656 263.777344 150.050781 262.660156 154.4375 C 260.90625 161.460938 259.152344 168.480469 258.117188 175.664062 C 257.480469 180.050781 257.878906 184.757812 258.59375 189.148438 C 259.390625 194.253906 260.667969 199.28125 262.421875 204.148438 C 264.652344 210.289062 268.238281 216.113281 273.820312 219.546875 C 282.1875 224.730469 291.59375 226.648438 301.15625 223.773438 C 305.222656 222.578125 309.925781 220.421875 312.234375 217.230469 C 321.480469 204.625 319.089844 184.679688 305.460938 175.261719 C 297.09375 169.519531 290.15625 172.550781 286.171875 180.929688 C 284.65625 184.121094 285.457031 186.914062 287.289062 189.464844 C 289.601562 192.738281 292.628906 195.128906 296.535156 196.488281 C 297.96875 196.964844 299.242188 198.082031 300.519531 198.800781 Z M 107 133.613281 C 109.390625 134.011719 110.746094 134.332031 113.136719 134.570312 C 116.5625 134.890625 119.992188 134.8125 123.339844 135.371094 C 136.808594 137.683594 146.054688 145.742188 152.03125 157.628906 C 155.140625 163.773438 158.488281 170.15625 159.761719 176.859375 C 161.117188 184.121094 160.71875 191.859375 160.003906 199.359375 C 159.046875 208.695312 156.8125 217.789062 152.988281 226.488281 C 146.613281 240.769531 137.527344 252.339844 121.1875 255.371094 C 114.8125 256.566406 107.957031 256.007812 101.421875 255.847656 C 96.320312 255.6875 91.140625 255.371094 86.117188 254.171875 C 72.566406 251.0625 62.84375 242.683594 56.148438 230.636719 C 50.808594 220.980469 48.257812 210.53125 47.859375 199.4375 C 47.460938 189.863281 48.339844 180.449219 50.96875 171.273438 C 52.960938 164.09375 58.0625 158.746094 62.207031 152.761719 C 67.625 145.105469 75.359375 140.875 83.964844 138.164062 C 91.140625 135.929688 97.035156 135.128906 103.574219 133.773438 C 103.574219 133.933594 106.921875 133.375 107 133.613281 Z M 101.339844 140.078125 C 101.261719 139.839844 101.179688 139.679688 101.179688 139.4375 C 99.90625 139.4375 98.550781 139.199219 97.277344 139.4375 C 83.25 142.550781 70.734375 147.976562 63.324219 161.300781 C 61.171875 165.289062 58.78125 169.199219 57.105469 173.347656 C 53.996094 180.929688 53.757812 189.148438 53.917969 197.046875 C 54.15625 210.53125 57.34375 223.453125 66.429688 234.066406 C 72.167969 240.769531 79.105469 246.113281 87.871094 247.550781 C 95.761719 248.90625 103.8125 249.226562 111.78125 249.304688 C 124.695312 249.386719 134.65625 243.480469 142.070312 233.03125 C 148.367188 224.09375 151.472656 213.722656 153.464844 203.1875 C 157.371094 182.203125 152.988281 163.535156 136.96875 148.453125 C 129.078125 141.035156 116.324219 139.597656 108.273438 144.148438 C 104.128906 146.539062 99.347656 147.816406 95.203125 150.289062 C 86.277344 155.636719 79.421875 163.054688 76.394531 173.1875 C 74.71875 178.613281 73.921875 184.359375 73.285156 190.023438 C 71.53125 204.863281 76.792969 216.671875 89.464844 224.890625 C 95.601562 228.878906 102.296875 230.875 109.710938 228.960938 C 122.941406 225.6875 127.960938 217.789062 130.832031 205.023438 C 132.265625 198.640625 131.628906 192.097656 128.359375 186.433594 C 123.816406 178.535156 116.882812 172.472656 107.71875 180.609375 C 101.898438 185.796875 101.179688 188.429688 106.121094 194.492188 C 107.398438 196.089844 108.753906 198.003906 109.152344 199.917969 C 109.710938 202.789062 107.398438 204.464844 105.007812 202.871094 C 96.558594 197.363281 91.695312 189.945312 98.871094 179.730469 C 102.777344 174.148438 108.832031 172.230469 114.8125 170.15625 C 116.007812 169.757812 117.601562 170.078125 118.796875 170.554688 C 127.246094 173.667969 132.902344 179.414062 135.933594 188.03125 C 138.5625 195.371094 138.164062 202.710938 136.410156 209.972656 C 134.816406 216.671875 132.503906 223.695312 126.925781 228.082031 C 109.710938 241.566406 94.566406 239.253906 79.34375 225.929688 C 69.0625 216.914062 65.316406 204.148438 66.429688 190.421875 C 67.386719 178.855469 69.460938 167.683594 77.191406 158.03125 C 83.089844 150.609375 89.386719 144.304688 98.472656 141.195312 C 99.347656 141.035156 100.304688 140.554688 101.339844 140.078125 Z M 197.144531 290.714844 C 188.695312 290.476562 180.085938 284.332031 177.855469 277.628906 C 176.421875 273.242188 175.066406 268.773438 174.109375 264.226562 C 172.992188 259.28125 174.988281 256.328125 179.609375 254.253906 C 186.066406 251.378906 192.441406 248.429688 198.660156 245.15625 C 201.050781 243.878906 202.882812 243.878906 204.875 245.398438 C 209.179688 248.746094 213.484375 252.019531 217.707031 255.449219 C 220.257812 257.523438 220.179688 260.316406 218.984375 262.871094 C 216.035156 269.171875 213.402344 275.636719 209.65625 281.378906 C 206.46875 286.089844 202.085938 290.078125 197.144531 290.714844 Z M 208.699219 267.816406 C 201.609375 261.355469 193.875 260.714844 186.226562 259.839844 C 183.035156 259.4375 180.726562 261.59375 181.441406 263.828125 C 182.878906 268.695312 184.3125 273.800781 186.863281 278.109375 C 189.8125 283.214844 196.664062 283.855469 200.730469 279.464844 C 204 276.195312 206.070312 271.804688 208.699219 267.816406 Z M 208.699219 267.816406 " fill-opacity="1" fill-rule="nonzero"/></g></svg>