<svg xmlns="http://www.w3.org/2000/svg" xmlns:xlink="http://www.w3.org/1999/xlink" width="500" zoomAndPan="magnify" viewBox="0 0 375 374.999991" height="500" preserveAspectRatio="xMidYMid meet" version="1.0"><defs><clipPath id="8d9544ec21"><path d="M 0 46.023438 L 375 46.023438 L 375 327 L 0 327 Z M 0 46.023438 " clip-rule="nonzero"/></clipPath></defs><path fill="#ffffff" d="M 211.292969 200.25 C 213.953125 200.59375 216.609375 204.019531 216.4375 206.933594 C 216.265625 209.417969 213.78125 211.558594 211.207031 211.558594 C 211.121094 211.558594 211.035156 211.558594 210.949219 211.558594 C 208.894531 211.472656 207.09375 210.617188 205.976562 209.246094 C 205.121094 208.21875 204.691406 206.933594 204.777344 205.5625 C 204.949219 203.847656 206.492188 202.390625 207.179688 201.878906 C 207.863281 201.363281 209.578125 200.078125 211.292969 200.25 Z M 56.101562 196.910156 C 57.300781 196.910156 58.414062 196.480469 59.273438 195.625 C 60.300781 194.679688 60.816406 193.222656 60.816406 191.683594 C 60.816406 189.625 60.042969 187.742188 58.757812 186.457031 C 57.816406 185.511719 56.613281 185 55.414062 185 C 54.042969 185 52.757812 185.511719 51.898438 186.457031 C 50.871094 187.484375 50.355469 188.941406 50.441406 190.652344 C 50.527344 194.167969 52.84375 196.738281 55.929688 196.910156 C 56.015625 196.910156 56.101562 196.910156 56.101562 196.910156 Z M 137.726562 162.121094 C 141.757812 166.492188 145.527344 170.691406 149.214844 175.058594 C 152.902344 179.429688 156.332031 184.054688 159.675781 188.597656 C 161.132812 190.566406 162.59375 192.453125 164.050781 194.421875 L 164.390625 194.851562 L 164.90625 194.9375 C 166.023438 195.109375 167.222656 195.195312 168.335938 195.367188 C 171.421875 195.707031 174.679688 196.136719 177.855469 196.308594 C 177.941406 196.308594 178.027344 196.308594 178.109375 196.308594 C 179.484375 196.308594 181.199219 195.625 182.3125 194.59375 C 193.375 183.96875 205.804688 175.746094 221.152344 166.578125 C 221.667969 166.320312 222.097656 165.976562 222.695312 165.550781 C 223.039062 165.292969 223.382812 165.035156 223.898438 164.691406 L 227.414062 162.378906 L 223.210938 162.378906 C 222.613281 162.378906 222.097656 162.378906 221.582031 162.378906 C 220.726562 162.378906 220.125 162.378906 219.4375 162.378906 C 217.039062 162.550781 214.636719 162.722656 212.324219 162.976562 C 207.347656 163.40625 202.117188 163.921875 197.144531 163.75 C 188.144531 163.492188 178.710938 162.636719 169.28125 161.09375 C 164.734375 160.40625 160.277344 158.867188 155.902344 157.324219 C 154.617188 156.894531 153.417969 156.464844 152.132812 156.039062 C 149.730469 155.265625 148.53125 153.46875 148.445312 150.382812 C 148.445312 148.582031 148.101562 146.785156 147.757812 144.8125 C 147.585938 143.957031 147.414062 143.015625 147.328125 141.988281 L 146.902344 139.074219 L 145.015625 141.386719 C 143.644531 143.101562 142.699219 144.898438 141.757812 146.785156 C 139.699219 150.726562 138.070312 153.894531 133.183594 154.152344 L 130.523438 154.324219 L 132.324219 156.296875 C 134.210938 158.179688 136.011719 160.152344 137.726562 162.121094 Z M 238.386719 142.070312 L 238.386719 156.636719 L 247.132812 152.097656 Z M 224.839844 266.738281 L 226.210938 267.851562 L 224.667969 268.796875 C 220.125 271.621094 216.265625 275.648438 212.835938 281.046875 C 210.863281 284.21875 210.691406 284.476562 212.664062 287.472656 L 213.867188 289.359375 L 211.636719 289.445312 C 209.0625 289.53125 206.578125 289.703125 204.003906 289.789062 C 199.203125 290.042969 194.316406 290.300781 189.429688 290.300781 C 188.570312 290.300781 187.800781 290.300781 186.941406 290.300781 C 180.769531 290.214844 174.511719 289.875 168.507812 289.617188 C 161.390625 289.273438 154.019531 288.929688 146.730469 288.84375 C 136.699219 288.757812 127.007812 286.53125 118.691406 284.390625 C 115.089844 283.445312 111.574219 282.074219 108.144531 280.707031 C 106.601562 280.105469 105.058594 279.503906 103.515625 278.90625 L 102.574219 278.5625 L 102.65625 277.535156 C 103.171875 273.421875 102.742188 269.308594 101.457031 265.539062 C 100.601562 263.140625 99.742188 260.828125 98.886719 258.511719 C 98.457031 257.484375 98.113281 256.457031 97.683594 255.34375 L 97 253.542969 L 98.972656 253.628906 C 107.203125 254.058594 113.632812 253.117188 119.207031 250.632812 C 126.75 247.289062 133.953125 242.320312 140.726562 235.980469 C 143.128906 233.75 145.445312 231.265625 147.757812 228.953125 C 150.503906 226.125 153.417969 223.210938 156.332031 220.472656 C 160.960938 216.273438 167.050781 216.015625 171.167969 216.273438 C 171.507812 216.273438 171.765625 216.273438 172.109375 216.359375 C 172.710938 216.445312 173.308594 216.445312 173.910156 216.445312 C 178.539062 216.273438 180.941406 218.757812 182.828125 221.5 C 187.199219 227.753906 192.085938 233.496094 196.289062 238.207031 C 202.289062 244.976562 208.894531 252.085938 217.039062 260.570312 C 218.582031 262.113281 220.296875 263.484375 222.183594 264.855469 C 223.125 265.367188 223.984375 266.054688 224.839844 266.738281 Z M 154.273438 265.539062 C 155.046875 268.367188 157.191406 270.679688 160.449219 272.308594 C 169.792969 277.105469 179.570312 275.90625 187.113281 269.050781 C 189.429688 266.910156 190.628906 264.597656 190.886719 261.511719 C 191.828125 250.972656 186.085938 243.003906 180.597656 236.40625 C 176.824219 231.867188 171.9375 230.238281 164.734375 231.007812 C 158.90625 231.695312 154.789062 236.492188 155.304688 242.148438 C 155.476562 244.117188 156.160156 246.089844 156.933594 248.316406 C 157.277344 249.429688 157.703125 250.546875 158.046875 251.746094 L 159.761719 257.570312 L 156.761719 253.972656 L 156.675781 254.058594 C 154.1875 258.257812 153.332031 262.285156 154.273438 265.539062 Z M 295.578125 158.609375 C 294.378906 157.667969 292.664062 157.496094 291.375 157.410156 C 282.800781 157.238281 275.941406 158.351562 269.855469 160.835938 C 267.367188 161.863281 264.882812 162.808594 262.394531 163.75 C 259.222656 165.035156 255.878906 166.320312 252.707031 167.605469 C 252.019531 167.863281 251.421875 168.121094 250.734375 168.460938 C 247.132812 169.917969 243.53125 171.460938 240.1875 173.601562 C 237.1875 175.488281 234.359375 177.714844 231.613281 179.859375 C 229.640625 181.398438 227.671875 182.941406 225.613281 184.398438 C 222.78125 186.371094 221.324219 188.941406 220.554688 192.882812 L 220.46875 193.394531 L 220.726562 193.824219 C 220.980469 194.167969 221.152344 194.59375 221.324219 195.023438 C 221.839844 196.136719 222.441406 197.335938 223.554688 198.109375 C 224.070312 198.449219 224.839844 198.621094 225.613281 198.621094 C 226.726562 198.621094 227.925781 198.277344 228.613281 197.765625 L 229.042969 197.507812 C 231.785156 195.625 234.699219 193.652344 237.015625 191.082031 C 241.816406 185.683594 248.164062 182.515625 254.421875 179.429688 L 254.59375 179.34375 C 259.652344 176.859375 264.96875 174.714844 270.199219 172.660156 C 272.257812 171.804688 274.3125 171.03125 276.371094 170.175781 C 276.886719 170.003906 277.488281 169.832031 278.085938 169.746094 C 278.34375 169.660156 278.601562 169.660156 278.859375 169.574219 C 280.316406 169.234375 281.6875 168.976562 283.144531 168.71875 C 286.917969 167.949219 290.863281 167.175781 294.636719 166.234375 C 296.007812 165.890625 297.980469 164.347656 297.980469 162.808594 C 297.894531 161.179688 296.691406 159.464844 295.578125 158.609375 Z M 52.84375 233.238281 L 58.328125 247.976562 L 69.820312 242.234375 L 55.5 231.4375 Z M 104.371094 171.632812 C 105.144531 170.175781 104.714844 167.863281 103.859375 166.664062 C 102.574219 164.777344 100.859375 163.148438 99.058594 161.777344 C 86.28125 152.269531 73.25 146.957031 59.359375 145.671875 C 51.640625 144.898438 45.726562 147.46875 42.636719 152.953125 C 38.351562 160.578125 37.152344 167.605469 39.125 174.375 C 39.894531 177.203125 42.125 178.914062 45.46875 179.085938 C 45.640625 179.085938 45.726562 179.085938 45.8125 179.085938 C 48.46875 179.085938 50.441406 177.289062 50.957031 174.460938 C 51.128906 173.429688 51.296875 172.402344 51.382812 171.375 C 51.46875 170.945312 51.46875 170.519531 51.554688 170.003906 L 51.726562 168.804688 L 51.042969 168.71875 L 51.382812 167.175781 C 51.8125 164.949219 52.242188 162.808594 52.671875 160.578125 C 53.011719 158.695312 54.386719 157.582031 56.273438 157.75 C 56.957031 157.835938 57.730469 157.835938 58.5 157.921875 C 62.617188 158.179688 66.902344 158.4375 70.589844 159.722656 C 76.421875 161.777344 82.078125 164.433594 87.652344 167.089844 C 89.625 168.035156 91.597656 168.976562 93.570312 169.832031 C 94.339844 170.175781 95.113281 170.605469 95.882812 171.117188 C 97 171.804688 98.113281 172.402344 99.3125 172.917969 C 100.6875 173.261719 103.601562 173.089844 104.371094 171.632812 Z M 104.371094 171.632812 " fill-opacity="1" fill-rule="nonzero"/><path fill="#fadc32" d="M 318.898438 277.878906 C 318.644531 280.707031 316.757812 283.277344 313.414062 285.503906 C 312.382812 286.1875 311.269531 286.789062 310.152344 287.300781 C 309.898438 287.472656 309.554688 287.644531 309.296875 287.730469 L 309.296875 287.816406 C 309.210938 287.988281 309.210938 288.160156 309.210938 288.246094 C 309.039062 292.359375 307.753906 295.527344 305.179688 297.671875 C 301.496094 300.839844 296.265625 301.011719 292.492188 300.496094 L 291.460938 300.328125 C 290.089844 300.15625 289.148438 300.070312 288.804688 300.242188 C 288.375 300.496094 287.777344 301.695312 287.175781 303.066406 C 283.746094 310.4375 275.257812 314.464844 267.710938 312.234375 C 265.566406 311.636719 263.683594 310.523438 261.710938 309.324219 C 261.023438 308.894531 260.339844 308.550781 259.566406 308.125 L 259.308594 308.378906 C 258.625 309.066406 257.851562 309.75 257.078125 310.523438 L 256.738281 310.863281 C 254.507812 313.09375 251.679688 315.835938 247.476562 314.550781 C 245.675781 314.035156 244.21875 312.835938 242.847656 311.722656 L 242.246094 311.292969 C 241.476562 310.695312 240.960938 310.007812 240.359375 309.238281 C 240.273438 309.152344 240.273438 309.066406 240.1875 309.066406 C 240.015625 309.238281 239.761719 309.410156 239.589844 309.496094 C 238.558594 310.265625 237.617188 311.035156 236.84375 311.808594 C 231.355469 317.292969 225.011719 318.320312 218.152344 314.722656 C 216.867188 314.035156 216.09375 313.777344 215.667969 313.949219 C 215.238281 314.121094 214.808594 314.804688 214.292969 316.175781 C 212.40625 320.976562 209.664062 322.175781 204.519531 320.546875 L 204.261719 320.460938 C 202.117188 319.777344 200.746094 319.347656 198.859375 320.632812 C 198.089844 321.234375 196.972656 321.488281 195.773438 321.488281 C 194.917969 321.488281 193.972656 321.316406 192.945312 321.0625 C 190.714844 320.460938 187.714844 318.917969 186.769531 316.519531 C 184.457031 311.207031 181.539062 304.609375 184.027344 296.898438 L 184.285156 296.042969 L 185.226562 296.042969 C 186 296.042969 186.855469 296.042969 187.628906 296.042969 C 189.429688 296.042969 191.230469 296.042969 193.03125 296.042969 C 195.6875 295.957031 198.347656 295.785156 201.003906 295.699219 C 209.492188 295.355469 218.238281 295.015625 226.8125 294.414062 C 236.84375 293.730469 246.875 292.613281 256.394531 291.5 C 257.59375 291.328125 258.878906 290.816406 260.253906 290.300781 C 261.023438 289.957031 261.796875 289.617188 262.652344 289.359375 C 278.515625 284.21875 289.660156 276.847656 297.808594 266.140625 C 298.75 264.941406 300.722656 264.082031 302.351562 264.253906 C 307.753906 264.769531 312.039062 266.566406 315.46875 269.910156 C 317.871094 272.480469 319.070312 275.222656 318.898438 277.878906 Z M 152.472656 295.355469 C 151.875 295.183594 151.359375 295.101562 150.84375 295.101562 C 149.214844 295.015625 147.671875 294.929688 146.042969 294.84375 C 142.957031 294.671875 139.871094 294.5 136.785156 294.15625 C 122.722656 292.445312 109.261719 287.730469 97.855469 283.445312 C 90.3125 280.621094 83.109375 276.765625 76.335938 272.992188 C 75.390625 272.480469 74.449219 271.964844 73.421875 271.453125 C 68.617188 268.882812 64.074219 266.480469 60.644531 261.769531 C 55.585938 254.65625 52.242188 247.976562 50.269531 240.777344 C 49.753906 238.976562 49.070312 237.777344 48.210938 237.007812 C 46.066406 235.292969 43.152344 234.78125 40.238281 235.636719 C 36.980469 236.492188 34.40625 238.722656 33.292969 241.546875 L 33.035156 242.148438 L 36.722656 247.71875 C 36.207031 248.230469 35.609375 248.832031 35.09375 249.34375 C 33.207031 251.144531 31.320312 253.03125 29.691406 255.085938 C 27.804688 257.484375 26.089844 260.398438 24.546875 263.910156 C 23.945312 265.28125 23.945312 266.738281 24.546875 267.9375 C 25.148438 269.050781 26.175781 269.910156 27.546875 270.253906 C 30.121094 270.851562 30.464844 272.566406 30.890625 275.480469 L 30.976562 275.992188 C 31.0625 276.765625 31.0625 277.621094 31.0625 278.476562 C 31.0625 279.078125 31.0625 279.675781 31.0625 280.277344 C 31.320312 285.589844 34.664062 288.757812 39.894531 288.589844 C 44.695312 288.417969 46.152344 289.53125 47.699219 294.15625 C 49.414062 299.382812 52.84375 302.210938 57.730469 302.640625 C 60.128906 302.8125 61.332031 303.925781 62.015625 306.667969 C 63.730469 313.605469 66.304688 315.664062 73.421875 315.578125 C 74.363281 315.578125 75.304688 315.40625 76.164062 315.234375 C 77.019531 315.0625 77.792969 314.890625 78.566406 314.890625 C 79.078125 314.890625 79.59375 314.890625 80.195312 314.890625 C 81.996094 314.804688 83.878906 314.804688 84.910156 315.492188 C 89.796875 318.746094 94.425781 317.976562 98.714844 316.691406 C 101.371094 315.921875 103.34375 316.09375 105.230469 317.460938 C 108.660156 319.949219 112.433594 320.03125 116.121094 317.804688 C 119.035156 316.09375 121.179688 316.261719 123.234375 318.492188 C 124.523438 319.863281 125.980469 320.546875 127.609375 320.546875 C 128.980469 320.546875 130.351562 320.117188 131.808594 319.175781 C 132.667969 318.664062 133.523438 317.976562 134.296875 317.378906 C 134.898438 316.949219 135.496094 316.519531 136.097656 316.089844 C 137.898438 314.890625 139.613281 314.636719 141.5 315.320312 C 145.957031 316.863281 148.445312 315.75 150.074219 311.636719 C 151.273438 308.378906 152.304688 305.125 153.332031 301.695312 C 153.761719 300.242188 154.273438 298.785156 154.703125 297.242188 L 155.132812 295.871094 L 153.761719 295.613281 C 153.160156 295.527344 152.816406 295.441406 152.472656 295.355469 Z M 152.472656 295.355469 " fill-opacity="1" fill-rule="nonzero"/><path fill="#9682dc" d="M 142.613281 102.316406 C 140.300781 98.71875 138.15625 94.859375 139.097656 89.804688 L 139.355469 88.605469 L 140.554688 88.777344 C 162.335938 91.691406 189 80.894531 197.746094 54.503906 L 198.175781 53.304688 L 199.375 53.734375 C 200.234375 53.992188 201.003906 54.25 201.863281 54.503906 C 204.003906 55.105469 206.148438 55.703125 208.207031 56.820312 C 210.007812 57.761719 211.207031 60.761719 211.035156 62.644531 C 209.835938 79.097656 201.519531 92.121094 186.34375 101.457031 C 182.65625 103.773438 178.796875 105.914062 175.023438 107.96875 L 173.394531 108.914062 C 172.453125 109.425781 171.335938 109.597656 170.566406 109.683594 C 169.023438 109.769531 167.394531 109.855469 165.851562 109.941406 C 163.105469 110.113281 160.191406 110.199219 157.449219 110.542969 C 156.761719 110.625 156.160156 110.625 155.5625 110.625 C 148.789062 110.625 144.929688 105.914062 142.613281 102.316406 Z M 148.445312 85.007812 C 157.019531 85.007812 166.191406 82.4375 174.511719 77.554688 C 184.886719 71.46875 192.257812 62.816406 194.230469 54.503906 L 194.574219 53.132812 L 193.203125 52.964844 C 166.535156 49.535156 144.84375 65.300781 139.355469 82.609375 L 138.925781 83.980469 L 140.300781 84.238281 C 142.957031 84.75 145.699219 85.007812 148.445312 85.007812 Z M 210.265625 79.265625 C 208.121094 85.351562 203.832031 90.320312 199.976562 94.347656 C 197.058594 97.347656 193.886719 100.089844 190.714844 102.828125 C 189.34375 104.027344 187.972656 105.230469 186.601562 106.429688 L 184.371094 108.398438 L 190.285156 108.914062 C 192.859375 109.171875 195.429688 109.425781 198.003906 109.597656 L 202.117188 109.941406 C 206.578125 110.371094 211.121094 110.796875 215.667969 111.140625 C 215.835938 111.140625 216.09375 111.140625 216.351562 111.140625 C 217.210938 111.140625 218.410156 111.054688 219.4375 110.457031 L 219.953125 110.199219 C 222.527344 108.828125 225.183594 107.457031 227.5 105.65625 C 232.816406 101.628906 235.300781 95.976562 234.53125 89.292969 C 234.101562 85.265625 233.585938 80.722656 230.5 76.953125 C 229.8125 76.097656 229.300781 75.15625 228.699219 74.039062 C 228.097656 73.011719 227.585938 71.898438 226.8125 70.871094 C 223.039062 66.15625 219.265625 62.472656 214.808594 59.304688 L 212.492188 57.675781 L 212.75 60.417969 C 213.523438 66.757812 212.664062 72.5 210.265625 79.265625 Z M 273.628906 139.929688 C 268.140625 134.703125 262.308594 130.847656 255.792969 128.277344 C 248.078125 125.191406 240.015625 122.535156 232.300781 119.964844 C 230.671875 119.453125 229.042969 118.851562 227.328125 118.339844 C 223.382812 117.054688 219.097656 115.683594 214.808594 114.824219 C 212.066406 114.3125 209.40625 114.054688 206.492188 113.882812 C 205.292969 113.796875 204.003906 113.710938 202.71875 113.539062 L 201.089844 113.367188 L 206.75 159.808594 L 234.699219 155.867188 L 234.699219 154.753906 C 234.699219 153.46875 234.699219 152.269531 234.699219 151.152344 C 234.699219 148.582031 234.699219 146.355469 234.785156 144.128906 C 234.871094 142.5 235.128906 141.300781 235.558594 140.359375 C 236.074219 139.332031 236.84375 138.128906 237.789062 138.046875 C 238.816406 137.875 239.929688 138.816406 240.703125 139.671875 C 242.933594 141.988281 245.074219 144.472656 247.304688 147.042969 C 249.105469 149.269531 251.25 149.785156 254.078125 148.667969 C 257.421875 147.382812 260.9375 146.183594 264.367188 145.15625 C 265.996094 144.640625 267.625 144.128906 269.253906 143.527344 C 270.113281 143.273438 270.882812 142.929688 271.828125 142.585938 C 272.257812 142.414062 272.769531 142.242188 273.285156 142.070312 L 275.171875 141.386719 Z M 106.003906 130.417969 L 105.144531 131.277344 L 106.003906 132.21875 C 114.0625 141.042969 123.234375 146.613281 134.039062 149.183594 L 134.984375 149.441406 L 136.011719 147.640625 C 136.441406 146.957031 136.871094 146.097656 137.382812 145.328125 C 138.242188 143.871094 139.097656 142.414062 139.957031 140.957031 C 141.757812 137.875 143.558594 134.875 145.359375 131.789062 C 146.214844 130.246094 147.585938 129.734375 149.472656 130.164062 C 150.332031 130.332031 151.101562 130.847656 151.101562 133.332031 C 151.101562 133.761719 151.101562 134.273438 151.101562 134.703125 C 151.101562 135.902344 151.015625 137.101562 151.1875 138.300781 C 151.53125 141.386719 151.875 144.472656 152.304688 147.382812 C 152.472656 148.582031 152.644531 149.785156 152.730469 150.898438 L 152.816406 151.667969 L 164.050781 155.351562 L 167.308594 113.625 L 165.9375 113.625 C 149.386719 113.453125 116.292969 120.480469 106.003906 130.417969 Z M 170.566406 113.027344 L 167.652344 154.839844 L 168.335938 155.265625 C 172.710938 157.835938 185.054688 159.722656 193.972656 159.722656 C 197.574219 159.722656 200.660156 159.378906 202.460938 158.695312 L 203.40625 158.351562 L 197.746094 113.113281 L 170.566406 113.113281 Z M 170.566406 113.027344 " fill-opacity="1" fill-rule="nonzero"/><path fill="#fa9b73" d="M 186.769531 253.03125 C 188.230469 256.542969 188.316406 260.054688 187.027344 263.140625 C 185.65625 266.394531 182.914062 268.964844 178.96875 270.59375 C 176.3125 271.707031 173.738281 272.222656 171.082031 272.222656 C 168.078125 272.222656 164.992188 271.539062 161.992188 270.082031 C 158.304688 268.367188 156.417969 265.710938 156.933594 262.96875 C 157.449219 260.3125 159.332031 257.914062 160.878906 255.859375 L 161.476562 255.085938 C 162.25 254.058594 163.792969 254.230469 166.105469 254.742188 C 167.992188 255.171875 169.878906 255.6875 171.851562 256.285156 C 172.195312 256.371094 172.539062 256.457031 172.964844 256.628906 C 173.136719 255.085938 172.453125 254.742188 171.765625 254.402344 C 170.136719 253.628906 168.507812 252.773438 166.878906 252 C 165.765625 251.402344 164.5625 250.800781 163.449219 250.289062 C 157.703125 247.460938 158.132812 244.460938 158.5625 240.261719 L 158.648438 239.75 C 159.078125 235.980469 164.136719 233.921875 167.566406 233.75 C 174.167969 233.238281 177.769531 237.351562 180.511719 241.464844 C 183 244.976562 185.140625 248.917969 186.769531 253.03125 Z M 101.371094 257.484375 C 100.941406 256.457031 100.601562 255.429688 100.171875 254.316406 L 99.914062 253.628906 L 94.597656 252.601562 L 94.167969 253.457031 C 93.828125 254.058594 93.65625 254.65625 93.484375 255.257812 C 93.3125 255.941406 93.054688 256.628906 92.796875 256.800781 C 92.710938 256.800781 92.625 256.886719 92.367188 256.886719 L 92.367188 252.171875 L 85.679688 250.375 L 83.109375 253.285156 L 82.851562 249.34375 L 67.675781 240.519531 L 57.644531 245.574219 L 58.070312 246.691406 C 58.242188 247.203125 58.414062 247.632812 58.585938 248.144531 C 59.015625 249.34375 59.445312 250.628906 60.214844 251.746094 C 60.730469 252.429688 61.160156 253.117188 61.671875 253.800781 C 63.902344 256.972656 66.21875 260.3125 69.132812 262.96875 C 71.789062 265.367188 75.136719 266.996094 78.394531 268.539062 L 79.679688 269.136719 C 83.878906 271.195312 89.453125 273.765625 95.285156 275.992188 C 96.054688 276.25 96.742188 276.765625 97.597656 277.277344 C 98.972656 278.132812 100.6875 279.25 102.65625 279.25 C 103.257812 279.25 103.945312 279.164062 104.628906 278.90625 L 105.402344 278.648438 L 105.488281 277.878906 C 106.085938 273.335938 105.574219 268.882812 104.117188 264.683594 C 103.085938 262.199219 102.230469 259.796875 101.371094 257.484375 Z M 287.605469 264.511719 C 270.371094 269.824219 254.507812 272.136719 239.160156 271.539062 L 238.644531 271.539062 L 235.300781 274.535156 L 234.957031 270.167969 L 229.984375 269.824219 L 229.640625 270.082031 C 228.613281 270.765625 228.183594 271.707031 227.839844 272.566406 C 227.5 273.421875 227.242188 273.765625 226.8125 273.9375 C 226.8125 273.851562 226.8125 273.765625 226.8125 273.679688 C 226.898438 272.394531 227.070312 271.109375 226.898438 269.824219 C 226.8125 268.882812 226.125 268.195312 225.527344 267.597656 C 225.355469 267.425781 225.183594 267.253906 225.011719 267.082031 L 224.328125 266.226562 L 223.382812 266.824219 C 218.496094 269.910156 214.378906 274.195312 210.777344 279.933594 C 208.464844 283.617188 207.863281 284.902344 210.609375 289.101562 L 211.035156 289.703125 L 211.808594 289.617188 C 215.582031 289.359375 219.4375 289.1875 223.210938 288.929688 C 231.785156 288.503906 240.617188 287.988281 249.277344 287.046875 C 263.339844 285.417969 274.570312 280.875 283.832031 273.078125 C 285.203125 271.964844 286.488281 270.765625 287.859375 269.652344 L 290.347656 267.511719 L 288.890625 264.253906 Z M 350.625 193.136719 C 350.195312 199.734375 348.222656 206.332031 346.421875 212.671875 L 346.164062 213.445312 C 344.023438 220.8125 340.9375 226.898438 336.820312 232.125 C 329.875 240.863281 320.359375 247.546875 307.667969 252.6875 C 295.835938 257.398438 286.144531 260.828125 277.144531 263.3125 C 271.828125 264.769531 266.167969 265.453125 260.765625 266.140625 C 258.707031 266.394531 256.480469 266.652344 254.421875 266.996094 C 251.679688 267.425781 249.019531 267.597656 246.449219 267.597656 C 243.359375 267.597656 240.359375 267.253906 237.53125 266.652344 C 229.214844 264.855469 222.695312 260.140625 217.894531 256.199219 C 210.007812 249.6875 202.632812 241.890625 195.257812 232.378906 C 191.316406 227.238281 187.371094 222.183594 183.171875 217.386719 C 178.539062 212.160156 172.710938 210.019531 165.765625 210.875 C 164.820312 210.960938 163.964844 211.304688 163.449219 211.730469 C 161.90625 213.015625 160.363281 214.214844 158.820312 215.5 C 153.417969 219.957031 147.757812 224.496094 142.527344 229.210938 C 134.8125 236.152344 126.152344 243.089844 115.347656 246.519531 C 104.371094 250.03125 93.484375 249.429688 83.710938 244.890625 C 75.992188 241.292969 68.445312 236.921875 61.160156 232.636719 C 59.617188 231.695312 57.988281 230.839844 56.441406 229.894531 C 52.84375 227.839844 49.582031 225.441406 46.753906 222.957031 C 35.351562 212.671875 26.519531 201.191406 20.6875 188.769531 C 17.6875 182.257812 16.058594 174.886719 15.628906 165.632812 L 15.628906 165.292969 C 15.542969 162.894531 15.457031 160.40625 15.457031 157.921875 C 15.628906 149.355469 20.429688 143.015625 25.0625 136.929688 L 25.40625 136.503906 C 29.605469 131.019531 33.464844 126.222656 39.292969 122.964844 C 48.210938 118.082031 56.613281 116.367188 64.929688 117.824219 C 66.21875 118.082031 67.589844 118.253906 68.960938 118.507812 C 73.847656 119.28125 78.90625 120.136719 83.539062 122.023438 C 92.367188 125.792969 100.515625 131.191406 107.289062 136.074219 C 113.203125 140.359375 118.347656 145.414062 123.320312 150.382812 C 124.78125 151.839844 126.152344 153.210938 127.609375 154.667969 C 131.808594 158.78125 136.613281 163.40625 140.984375 168.203125 C 149.300781 177.289062 155.648438 185.941406 160.535156 194.59375 C 161.304688 195.964844 161.90625 197.507812 162.507812 198.878906 C 162.675781 199.222656 162.847656 199.648438 162.933594 199.992188 L 180.339844 199.992188 L 180.339844 200.078125 L 180.425781 199.992188 C 181.457031 198.792969 182.570312 197.507812 183.683594 196.308594 C 193.117188 186.457031 204.261719 179.085938 212.921875 173.6875 C 214.464844 172.746094 215.921875 171.804688 217.382812 170.859375 C 225.613281 165.71875 234.101562 160.40625 243.019531 156.296875 C 261.453125 147.726562 278.601562 143.015625 295.578125 141.730469 C 297.464844 141.558594 299.4375 141.386719 301.324219 141.214844 C 306.210938 140.785156 311.183594 140.359375 316.15625 140.273438 C 316.328125 140.273438 316.585938 140.273438 316.757812 140.273438 C 328.675781 140.273438 337.421875 145.925781 342.050781 156.550781 C 346.9375 167.949219 351.394531 180.199219 350.625 193.136719 Z M 337.675781 188.253906 L 338.363281 188.167969 C 338.019531 186.371094 337.761719 184.484375 337.421875 182.683594 C 336.648438 177.800781 335.792969 172.746094 334.332031 167.949219 C 332.019531 160.40625 326.617188 150.898438 313.839844 148.667969 C 310.667969 148.070312 307.324219 147.8125 303.980469 147.8125 C 298.664062 147.8125 293.347656 148.5 288.03125 149.867188 C 278.945312 152.269531 270.027344 155.351562 259.566406 159.207031 C 253.992188 161.265625 248.589844 164.09375 243.273438 166.835938 C 239.503906 168.804688 235.730469 170.859375 232.042969 172.917969 C 228.785156 174.714844 225.355469 176.601562 222.011719 178.402344 C 220.125 179.429688 218.152344 180.371094 216.265625 181.3125 C 208.292969 185.339844 200.0625 189.539062 193.375 195.707031 C 187.285156 201.363281 184.886719 205.992188 189.945312 214.214844 L 191.058594 216.101562 C 194.402344 221.585938 197.832031 227.238281 202.546875 231.953125 C 210.691406 240.09375 220.726562 248.832031 233.929688 252.773438 C 245.332031 256.113281 257.421875 256.886719 269.769531 255.085938 C 282.289062 253.285156 298.320312 249.773438 311.613281 238.890625 C 318.300781 233.410156 326.53125 225.78125 331.246094 215.074219 C 334.503906 207.703125 337.761719 198.878906 337.421875 189.195312 Z M 154.960938 201.363281 C 153.589844 193.652344 148.789062 187.742188 143.8125 182.597656 C 138.839844 177.457031 134.640625 173.347656 130.695312 169.917969 L 130.09375 169.40625 C 124.78125 164.777344 119.292969 159.894531 113.460938 155.867188 C 107.460938 151.753906 100.515625 148.070312 90.996094 144.128906 C 81.738281 140.273438 73.25 137.703125 64.847656 136.417969 C 62.101562 135.988281 59.53125 135.730469 57.128906 135.730469 C 51.210938 135.730469 46.324219 137.101562 41.695312 139.84375 C 35.265625 143.699219 31.320312 149.527344 29.519531 157.667969 C 26.949219 169.234375 30.890625 179.945312 35.09375 188.855469 C 40.753906 200.933594 47.613281 209.933594 55.929688 216.445312 C 57.558594 217.730469 59.273438 219.101562 60.816406 220.386719 C 67.332031 225.613281 74.019531 231.09375 82.078125 234.09375 L 82.851562 234.351562 C 89.96875 237.007812 96.742188 239.578125 104.203125 239.492188 C 111.148438 239.40625 118.089844 237.777344 124.695312 234.609375 C 131.296875 231.4375 137.125 226.984375 142.699219 220.898438 L 142.871094 220.640625 C 145.699219 217.558594 148.53125 214.386719 151.1875 211.046875 C 153.332031 208.046875 155.648438 205.046875 154.960938 201.363281 Z M 154.960938 201.363281 " fill-opacity="1" fill-rule="nonzero"/><g clip-path="url(#8d9544ec21)"><path fill="#3c50be" d="M 192.945312 326.375 C 192.085938 325.773438 191.402344 324.746094 190.457031 324.574219 C 184.027344 322.945312 181.457031 318.0625 179.996094 312.40625 C 178.882812 307.78125 178.453125 302.984375 177.597656 297.585938 C 171.851562 297.585938 165.679688 297.585938 159.417969 297.585938 C 158.132812 301.867188 156.847656 306.238281 155.648438 310.609375 C 153.332031 318.832031 147.160156 323.460938 138.839844 319.519531 C 132.753906 324.316406 126.324219 328.773438 118.863281 321.234375 C 113.375 324.660156 107.886719 324.832031 102.230469 321.402344 C 101.199219 320.804688 99.570312 320.632812 98.457031 320.976562 C 93.140625 322.433594 87.996094 322.773438 82.9375 319.863281 C 81.910156 319.261719 80.363281 319.519531 79.078125 319.605469 C 75.734375 319.691406 72.21875 320.375 69.046875 319.777344 C 62.617188 318.492188 58.15625 314.722656 57.472656 307.4375 C 48.382812 306.925781 44.609375 300.582031 42.039062 293.472656 C 28.320312 291.414062 26.261719 288.929688 25.746094 274.792969 C 18.972656 269.222656 18.117188 262.710938 23.519531 255.601562 C 25.660156 252.773438 28.40625 250.289062 31.234375 247.203125 C 29.089844 243.261719 28.75 238.722656 33.207031 235.292969 C 37.152344 232.378906 41.695312 231.351562 46.496094 232.980469 C 47.699219 227.070312 43.667969 223.984375 40.152344 220.554688 C 34.0625 214.472656 28.0625 208.390625 23.347656 201.105469 C 17.34375 192.023438 13.828125 182 12.800781 171.375 C 12.027344 164.09375 12.628906 156.636719 12.886719 149.269531 C 12.972656 147.46875 14 145.671875 14.6875 143.699219 C 8.941406 140.785156 0.710938 140.617188 0.28125 131.105469 C 1.480469 131.617188 2.769531 132.21875 3.96875 132.734375 C 6.285156 133.847656 8.425781 135.21875 10.828125 135.902344 C 15.800781 137.359375 19.144531 135.902344 21.976562 131.449219 C 22.746094 130.246094 23.691406 129.046875 24.117188 128.363281 C 20.175781 123.652344 16.402344 119.28125 12.714844 114.738281 C 12.285156 114.226562 12.199219 113.199219 12.285156 112.425781 C 12.371094 111.828125 12.800781 111.3125 13.316406 110.285156 C 14.429688 111.398438 15.371094 112.339844 16.316406 113.199219 C 19.488281 115.9375 22.574219 118.765625 25.832031 121.25 C 27.71875 122.707031 29.863281 122.707031 32.09375 121.164062 C 34.835938 119.28125 37.921875 117.738281 40.839844 116.109375 C 37.066406 110.199219 30.71875 105.230469 32.777344 97.003906 C 33.121094 96.832031 33.464844 96.574219 33.894531 96.402344 C 34.664062 97.515625 35.523438 98.632812 36.292969 99.660156 C 39.125 103.34375 41.78125 107.199219 44.78125 110.796875 C 46.839844 113.199219 49.242188 113.882812 52.925781 113.367188 C 60.644531 112.339844 68.53125 112.941406 75.992188 115.769531 C 83.964844 118.765625 92.367188 120.910156 99.3125 127.164062 C 113.03125 119.023438 127.351562 113.28125 143.042969 111.226562 C 140.726562 108.054688 138.242188 105.398438 136.527344 102.402344 C 131.210938 92.632812 131.640625 82.953125 137.125 73.269531 C 143.042969 62.730469 152.386719 56.5625 162.761719 51.421875 C 169.453125 48.078125 176.652344 47.394531 183.941406 46.878906 C 196.289062 46.023438 207.777344 49.105469 218.496094 54.761719 C 221.925781 56.5625 224.925781 59.730469 227.414062 62.730469 C 231.871094 68.042969 236.84375 73.097656 238.816406 80.125 C 242.332031 92.375 241.730469 102.058594 230.414062 111.65625 C 230.242188 111.828125 230.15625 112.082031 229.8125 112.683594 C 231.957031 113.367188 234.101562 114.054688 236.160156 114.824219 C 244.390625 117.738281 252.792969 120.222656 260.765625 123.820312 C 265.996094 126.136719 270.796875 129.648438 275.257812 133.332031 C 280.230469 137.445312 284.6875 140.53125 291.804688 138.128906 C 296.605469 136.503906 302.179688 137.273438 307.324219 136.675781 C 309.210938 136.417969 311.355469 135.730469 312.8125 134.53125 C 318.898438 129.5625 324.042969 123.734375 327.644531 116.539062 C 328.417969 115.082031 329.445312 113.796875 330.5625 112.167969 C 332.875 114.3125 333.132812 116.453125 332.019531 118.425781 C 329.359375 122.878906 326.53125 127.25 323.617188 131.535156 C 322.328125 133.417969 320.785156 135.046875 319.15625 137.015625 C 323.789062 138.046875 327.816406 139.671875 331.933594 139.757812 C 335.019531 139.757812 338.535156 138.386719 341.277344 136.675781 C 345.738281 133.761719 349.59375 129.90625 353.882812 126.648438 C 355.511719 125.363281 357.054688 122.367188 360.226562 125.535156 C 356.796875 134.789062 348.136719 138.902344 341.105469 144.386719 C 342.90625 146.269531 344.878906 148.070312 346.421875 150.210938 C 348.050781 152.441406 350.023438 153.125 352.683594 153.125 C 358.597656 153.210938 364 150.984375 369.402344 149.097656 C 371.375 148.414062 373.175781 147.640625 374.71875 149.871094 C 374.71875 150.125 374.71875 150.382812 374.71875 150.640625 C 369.144531 157.75 360.484375 157.75 352.597656 160.238281 C 352.941406 161.265625 353.28125 162.207031 353.625 163.148438 C 355.855469 169.574219 357.226562 176.085938 356.625 182.941406 C 356.199219 187.742188 355.511719 192.539062 355.425781 197.335938 C 355.253906 204.960938 353.023438 212.246094 350.453125 219.1875 C 347.109375 228.4375 341.964844 236.664062 333.476562 242.40625 C 327.816406 246.175781 322.414062 250.460938 316.585938 254.058594 C 312.210938 256.800781 307.324219 258.683594 302.179688 261.253906 C 304.238281 261.769531 305.609375 262.113281 306.980469 262.453125 C 311.441406 263.398438 315.128906 265.539062 318.472656 268.710938 C 325.84375 275.734375 322.414062 284.390625 315.984375 287.988281 C 313.925781 289.1875 312.8125 290.472656 312.382812 292.785156 C 310.925781 299.898438 306.46875 303.753906 299.351562 304.609375 C 296.863281 304.867188 294.378906 304.953125 291.546875 305.039062 C 289.746094 311.550781 284.6875 314.804688 278.34375 316.433594 C 272.085938 318.148438 266.167969 317.035156 260.765625 313.4375 C 258.195312 317.121094 254.507812 319.089844 250.648438 319.089844 C 246.875 319.089844 243.105469 317.292969 238.988281 316.175781 C 233.15625 321.832031 225.785156 322.089844 218.066406 319.519531 C 214.207031 324.402344 210.351562 326.460938 205.976562 324.488281 C 202.035156 322.773438 199.632812 324.402344 196.972656 326.375 C 195.601562 326.375 194.316406 326.375 192.945312 326.375 Z M 59.101562 246.175781 C 59.785156 247.804688 60.128906 249.601562 61.074219 250.972656 C 63.816406 254.742188 66.390625 258.855469 69.820312 261.941406 C 72.648438 264.597656 76.507812 266.226562 80.023438 267.9375 C 85.082031 270.421875 90.226562 272.738281 95.542969 274.707031 C 98.285156 275.734375 100.515625 278.734375 104.03125 277.535156 C 109.003906 279.421875 113.976562 281.734375 119.121094 283.019531 C 128.210938 285.332031 137.296875 287.386719 146.816406 287.472656 C 160.191406 287.558594 173.652344 288.671875 187.027344 288.929688 C 195.175781 289.101562 203.40625 288.417969 211.550781 288.160156 C 223.984375 287.386719 236.5 287.046875 248.933594 285.589844 C 261.367188 284.132812 273.027344 280.191406 282.800781 271.964844 C 284.773438 270.335938 286.660156 268.710938 288.546875 266.996094 C 288.375 266.566406 288.117188 266.140625 287.945312 265.625 C 271.914062 270.59375 255.535156 273.335938 239.074219 272.652344 C 237.617188 273.9375 236.332031 275.050781 235.128906 276.164062 C 234.785156 276.078125 234.445312 275.90625 234.101562 275.820312 C 234.015625 274.277344 233.929688 272.824219 233.757812 271.109375 C 232.558594 271.023438 231.269531 270.9375 230.328125 270.851562 C 228.441406 272.136719 229.128906 275.734375 225.441406 274.707031 C 225.527344 272.992188 225.871094 271.195312 225.699219 269.566406 C 225.613281 268.882812 224.667969 268.195312 224.070312 267.511719 C 221.496094 265.367188 218.582031 263.570312 216.265625 261.167969 C 209.234375 253.800781 202.203125 246.347656 195.429688 238.722656 C 190.628906 233.324219 186 227.753906 181.796875 221.84375 C 179.65625 218.84375 177.511719 217.214844 173.996094 217.386719 C 173.050781 217.386719 172.109375 217.300781 171.167969 217.300781 C 166.105469 217.042969 161.046875 217.730469 157.277344 221.15625 C 151.875 226.125 146.988281 231.609375 141.671875 236.664062 C 135.238281 242.75 127.953125 247.890625 119.804688 251.574219 C 113.203125 254.488281 106.171875 255.085938 98.972656 254.65625 C 97.683594 254.402344 96.398438 254.144531 95.285156 253.972656 C 94.253906 255.859375 94.597656 258.941406 90.996094 257.742188 C 90.996094 256.199219 90.996094 254.65625 90.996094 252.945312 C 89.023438 252.429688 87.308594 251.917969 86.023438 251.574219 C 84.738281 253.03125 83.792969 254.144531 82.765625 255.257812 C 82.421875 255.085938 82.164062 254.914062 81.824219 254.742188 C 81.738281 253.03125 81.566406 251.402344 81.480469 249.945312 C 76.679688 247.117188 72.046875 244.460938 67.503906 241.804688 C 63.558594 238.808594 59.53125 235.808594 55.585938 232.808594 C 55.242188 233.066406 54.8125 233.324219 54.472656 233.582031 C 56.015625 237.863281 57.558594 242.0625 59.101562 246.175781 Z M 161.992188 201.277344 C 161.132812 199.308594 160.363281 197.164062 159.246094 195.195312 C 153.933594 185.683594 147.242188 177.117188 139.871094 169.0625 C 135.582031 164.433594 131.125 159.980469 126.582031 155.609375 C 120.0625 149.269531 113.890625 142.5 106.34375 137.101562 C 98.886719 131.789062 91.253906 126.734375 82.851562 123.222656 C 77.191406 120.910156 70.761719 120.308594 64.589844 119.195312 C 55.757812 117.652344 47.527344 119.878906 39.808594 124.164062 C 34.0625 127.335938 30.207031 132.21875 26.347656 137.359375 C 21.632812 143.613281 16.832031 149.785156 16.660156 158.09375 C 16.574219 160.578125 16.746094 163.148438 16.832031 165.632812 C 17.171875 173.515625 18.460938 181.230469 21.71875 188.339844 C 27.804688 201.363281 36.722656 212.503906 47.441406 222.097656 C 50.355469 224.667969 53.613281 226.984375 56.957031 228.953125 C 65.960938 234.09375 74.792969 239.492188 84.136719 243.863281 C 94 248.402344 104.542969 248.746094 114.917969 245.402344 C 125.207031 242.148438 133.609375 235.550781 141.585938 228.355469 C 148.359375 222.269531 155.476562 216.613281 162.59375 210.789062 C 163.363281 210.1875 164.476562 209.761719 165.507812 209.675781 C 172.882812 208.734375 179.140625 211.046875 184.027344 216.613281 C 188.316406 221.414062 192.257812 226.554688 196.203125 231.695312 C 202.890625 240.347656 210.179688 248.316406 218.667969 255.34375 C 224.328125 259.96875 230.414062 263.910156 237.703125 265.453125 C 243.191406 266.652344 248.675781 266.566406 254.164062 265.710938 C 261.710938 264.597656 269.511719 264.167969 276.800781 262.113281 C 287.089844 259.199219 297.207031 255.515625 307.238281 251.488281 C 318.300781 247.03125 328.332031 240.949219 335.875 231.351562 C 340.25 225.867188 343.078125 219.699219 345.050781 213.101562 C 346.9375 206.589844 348.996094 199.820312 349.425781 193.136719 C 350.28125 180.542969 345.996094 168.71875 341.019531 157.324219 C 336.476562 146.871094 327.730469 141.644531 316.242188 141.816406 C 309.382812 141.902344 302.609375 142.671875 295.75 143.1875 C 277.402344 144.558594 260.167969 150.039062 243.617188 157.667969 C 233.15625 162.550781 223.382812 168.890625 213.609375 174.972656 C 203.148438 181.398438 193.117188 188.425781 184.628906 197.335938 C 183 199.050781 182.570312 199.648438 180.941406 201.449219 C 180.597656 201.535156 180.253906 201.363281 179.398438 201.363281 C 173.738281 201.277344 168.164062 201.277344 161.992188 201.277344 Z M 153.417969 296.898438 C 152.132812 296.640625 151.445312 296.46875 150.84375 296.386719 C 146.128906 296.042969 141.414062 295.957031 136.785156 295.355469 C 123.234375 293.644531 110.289062 289.359375 97.597656 284.5625 C 90.140625 281.734375 82.9375 277.964844 75.90625 274.023438 C 70.160156 270.851562 64.074219 268.367188 59.871094 262.371094 C 55.15625 255.6875 51.46875 248.746094 49.242188 240.949219 C 48.898438 239.835938 48.46875 238.550781 47.613281 237.863281 C 43.582031 234.695312 36.636719 236.835938 34.664062 241.890625 C 35.777344 243.605469 36.980469 245.402344 38.523438 247.804688 C 35.949219 250.460938 33.035156 252.859375 30.804688 255.773438 C 28.75 258.34375 27.121094 261.339844 25.832031 264.339844 C 25.0625 266.140625 25.660156 268.367188 27.976562 268.882812 C 31.75 269.824219 31.921875 272.824219 32.347656 275.734375 C 32.519531 277.191406 32.347656 278.734375 32.433594 280.191406 C 32.605469 284.816406 35.4375 287.386719 39.980469 287.21875 C 45.210938 287.046875 47.355469 288.417969 49.070312 293.644531 C 50.527344 298.011719 53.269531 300.839844 57.988281 301.269531 C 61.246094 301.527344 62.617188 303.324219 63.386719 306.324219 C 65.015625 312.75 67.074219 314.292969 73.503906 314.207031 C 75.21875 314.207031 76.933594 313.519531 78.734375 313.519531 C 81.136719 313.519531 83.964844 313.09375 85.679688 314.292969 C 89.882812 317.121094 93.914062 316.691406 98.371094 315.40625 C 101.027344 314.636719 103.515625 314.550781 106.085938 316.347656 C 109.089844 318.492188 112.261719 318.578125 115.605469 316.691406 C 118.691406 314.890625 121.605469 314.636719 124.265625 317.632812 C 126.324219 319.863281 128.894531 319.605469 131.296875 318.0625 C 132.753906 317.121094 134.125 316.007812 135.582031 315.0625 C 137.640625 313.691406 139.699219 313.351562 142.097656 314.121094 C 145.785156 315.40625 147.671875 314.804688 149.042969 311.207031 C 150.503906 306.582031 151.875 301.78125 153.417969 296.898438 Z M 308.183594 286.875 C 309.640625 286.101562 311.183594 285.417969 312.640625 284.476562 C 318.472656 280.621094 319.328125 275.734375 314.355469 270.9375 C 310.925781 267.597656 306.640625 266.054688 302.007812 265.625 C 300.894531 265.539062 299.265625 266.140625 298.578125 266.996094 C 289.40625 279.164062 276.972656 286.101562 262.824219 290.644531 C 260.679688 291.328125 258.625 292.527344 256.394531 292.785156 C 246.535156 293.898438 236.671875 295.015625 226.8125 295.699219 C 215.582031 296.46875 204.261719 296.8125 192.945312 297.328125 C 190.285156 297.414062 187.628906 297.328125 185.140625 297.328125 C 182.914062 304.351562 185.3125 310.265625 187.886719 316.007812 C 189.171875 319.003906 195.601562 321.320312 198.089844 319.519531 C 200.574219 317.804688 202.546875 318.492188 204.863281 319.261719 C 209.40625 320.71875 211.378906 319.863281 213.09375 315.664062 C 214.464844 312.320312 215.582031 311.894531 218.753906 313.519531 C 225.183594 316.863281 230.757812 315.921875 235.902344 310.78125 C 237.1875 309.496094 238.730469 308.464844 240.359375 307.09375 C 241.476562 308.378906 242.074219 309.496094 243.019531 310.179688 C 244.476562 311.378906 246.105469 312.75 247.820312 313.265625 C 251.507812 314.378906 253.820312 311.808594 256.222656 309.578125 C 257.335938 308.550781 258.453125 307.4375 259.394531 306.582031 C 262.652344 308.292969 265.226562 310.179688 268.054688 311.035156 C 275 313.09375 282.886719 309.152344 285.976562 302.554688 C 287.945312 298.269531 287.945312 298.699219 292.664062 299.210938 C 299.949219 300.070312 307.582031 297.925781 307.925781 288.160156 C 307.839844 287.816406 308.011719 287.472656 308.183594 286.875 Z M 233.5 154.753906 C 233.5 150.554688 233.414062 147.296875 233.5 144.128906 C 233.585938 142.671875 233.757812 141.128906 234.359375 139.84375 C 236.246094 136.160156 238.730469 135.730469 241.644531 138.730469 C 243.960938 141.128906 246.191406 143.613281 248.25 146.183594 C 249.792969 147.984375 251.25 148.328125 253.5625 147.46875 C 258.539062 145.585938 263.683594 144.042969 268.828125 142.328125 C 270.027344 141.902344 271.226562 141.386719 272.769531 140.871094 C 267.453125 135.730469 261.710938 131.960938 255.363281 129.476562 C 246.019531 125.792969 236.5 122.707031 226.984375 119.539062 C 222.953125 118.167969 218.839844 116.882812 214.636719 116.109375 C 210.777344 115.339844 206.835938 115.253906 202.71875 114.910156 C 204.519531 129.648438 206.234375 143.699219 208.035156 158.523438 C 216.609375 157.152344 224.925781 155.953125 233.5 154.753906 Z M 133.355469 155.351562 C 139.183594 161.863281 144.929688 167.863281 150.246094 174.289062 C 155.476562 180.628906 160.363281 187.398438 165.078125 193.652344 C 169.28125 194.167969 173.652344 194.765625 177.941406 195.023438 C 179.054688 195.109375 180.597656 194.507812 181.371094 193.652344 C 193.117188 182.429688 206.578125 173.6875 220.46875 165.464844 C 221.152344 165.035156 221.839844 164.519531 223.210938 163.664062 C 221.410156 163.664062 220.46875 163.578125 219.523438 163.664062 C 212.066406 164.179688 204.605469 165.207031 197.144531 165.035156 C 187.800781 164.777344 178.367188 163.835938 169.109375 162.378906 C 163.191406 161.4375 157.53125 159.207031 151.789062 157.324219 C 148.617188 156.296875 147.328125 153.808594 147.242188 150.46875 C 147.160156 147.898438 146.558594 145.414062 146.128906 142.328125 C 141.929688 147.382812 141.414062 154.925781 133.355469 155.351562 Z M 140.300781 89.976562 C 139.355469 94.691406 141.5 98.289062 143.644531 101.542969 C 146.730469 106.257812 150.589844 109.941406 157.105469 109.171875 C 161.476562 108.65625 165.9375 108.570312 170.394531 108.3125 C 171.167969 108.226562 172.023438 108.054688 172.710938 107.714844 C 176.996094 105.316406 181.371094 102.828125 185.570312 100.257812 C 199.71875 91.605469 208.378906 79.351562 209.664062 62.472656 C 209.75 60.929688 208.722656 58.53125 207.519531 57.847656 C 204.949219 56.390625 201.777344 55.789062 198.945312 54.847656 C 189.6875 82.609375 161.648438 92.890625 140.300781 89.976562 Z M 169.023438 154.152344 C 174.765625 157.496094 196.375 159.722656 201.949219 157.496094 C 200.148438 143.273438 198.347656 128.960938 196.546875 114.3125 C 188.316406 114.3125 180.339844 114.3125 171.765625 114.3125 C 170.824219 127.761719 169.878906 141.128906 169.023438 154.152344 Z M 134.296875 147.984375 C 134.898438 147.042969 135.496094 145.925781 136.183594 144.726562 C 138.839844 140.1875 141.5 135.730469 144.15625 131.191406 C 145.445312 128.960938 147.5 128.449219 149.644531 128.960938 C 151.789062 129.476562 152.304688 131.363281 152.304688 133.417969 C 152.304688 135.046875 152.132812 136.675781 152.304688 138.300781 C 152.730469 142.5 153.332031 146.785156 153.847656 150.898438 C 157.019531 151.925781 159.675781 152.78125 162.761719 153.808594 C 163.792969 140.617188 164.820312 127.847656 165.765625 115.082031 C 149.128906 114.738281 116.71875 121.765625 106.859375 131.277344 C 114.320312 139.414062 123.066406 145.242188 134.296875 147.984375 Z M 214.207031 60.332031 C 214.894531 67.613281 213.609375 73.699219 211.550781 79.609375 C 209.40625 85.695312 205.292969 90.664062 200.917969 95.203125 C 196.71875 99.574219 191.914062 103.34375 187.542969 107.285156 C 191.058594 107.628906 194.660156 107.96875 198.261719 108.226562 C 204.175781 108.742188 210.007812 109.339844 215.921875 109.769531 C 216.953125 109.855469 218.152344 109.769531 219.011719 109.257812 C 221.753906 107.800781 224.496094 106.34375 226.898438 104.542969 C 231.871094 100.773438 234.101562 95.546875 233.414062 89.292969 C 232.984375 85.179688 232.472656 81.066406 229.640625 77.640625 C 228.183594 75.839844 227.414062 73.441406 225.957031 71.554688 C 222.695312 67.527344 219.097656 63.84375 214.207031 60.332031 Z M 140.554688 82.953125 C 163.363281 87.75 189.171875 70.355469 192.945312 54.25 C 167.050781 50.90625 145.871094 66.242188 140.554688 82.953125 Z M 239.675781 145.5 C 239.675781 148.667969 239.675781 151.238281 239.675781 154.582031 C 241.816406 153.46875 243.273438 152.695312 245.074219 151.753906 C 243.191406 149.441406 241.558594 147.640625 239.675781 145.5 Z M 339.136719 189.710938 C 339.390625 199.136719 336.390625 207.363281 332.703125 215.757812 C 328.332031 225.699219 321.042969 233.238281 312.726562 240.007812 C 300.292969 250.203125 285.460938 254.230469 270.199219 256.457031 C 258.109375 258.257812 245.675781 257.570312 233.84375 254.058594 C 221.066406 250.289062 211.121094 242.234375 201.863281 232.980469 C 196.546875 227.667969 192.859375 221.242188 189.085938 214.988281 C 183.683594 206.078125 186.171875 200.851562 192.6875 194.851562 C 201.089844 187.054688 211.550781 182.597656 221.582031 177.289062 C 228.699219 173.515625 235.644531 169.40625 242.761719 165.71875 C 248.164062 162.894531 253.5625 160.152344 259.222656 158.007812 C 268.65625 154.496094 278.171875 151.152344 287.859375 148.582031 C 296.433594 146.355469 305.523438 145.757812 314.269531 147.296875 C 325.417969 149.269531 332.53125 156.894531 335.792969 167.433594 C 337.933594 174.460938 337.847656 178.742188 339.136719 185.941406 Z M 221.839844 193.222656 C 222.613281 194.507812 223.125 196.222656 224.242188 197.078125 C 225.011719 197.59375 226.984375 197.421875 227.839844 196.738281 C 230.671875 194.765625 233.671875 192.796875 235.902344 190.226562 C 240.875 184.65625 247.390625 181.398438 253.820312 178.230469 C 260.851562 174.714844 268.398438 172.0625 275.6875 169.0625 C 276.542969 168.71875 277.488281 168.632812 278.429688 168.375 C 283.660156 167.261719 288.976562 166.234375 294.121094 165.035156 C 295.0625 164.777344 296.433594 163.578125 296.433594 162.808594 C 296.433594 161.691406 295.578125 160.320312 294.636719 159.636719 C 293.777344 158.953125 292.40625 158.78125 291.207031 158.78125 C 284.003906 158.695312 276.972656 159.378906 270.199219 162.121094 C 264.539062 164.433594 258.707031 166.578125 253.050781 168.976562 C 248.847656 170.777344 244.476562 172.402344 240.703125 174.800781 C 235.644531 178.058594 231.1875 182.085938 226.210938 185.597656 C 223.726562 187.398438 222.527344 189.796875 221.839844 193.222656 Z M 210.949219 210.273438 C 213.007812 210.359375 214.980469 208.734375 215.152344 206.847656 C 215.324219 204.621094 213.179688 201.707031 211.207031 201.535156 C 209.40625 201.363281 206.234375 203.933594 206.0625 205.734375 C 205.804688 208.132812 207.949219 210.101562 210.949219 210.273438 Z M 104.117188 240.605469 C 96.140625 240.605469 88.9375 237.863281 81.566406 235.121094 C 71.277344 231.265625 63.472656 223.898438 54.984375 217.300781 C 45.46875 209.847656 38.867188 199.992188 33.808594 189.28125 C 29.089844 179.34375 25.660156 168.632812 28.148438 157.324219 C 29.863281 149.527344 33.722656 143.101562 40.921875 138.730469 C 48.554688 134.105469 56.527344 133.761719 64.929688 135.046875 C 74.105469 136.503906 82.765625 139.246094 91.425781 142.84375 C 99.398438 146.183594 107.117188 149.867188 114.148438 154.753906 C 120.234375 158.953125 125.894531 164.007812 131.46875 168.890625 C 136.097656 172.917969 140.382812 177.289062 144.671875 181.65625 C 149.988281 187.226562 154.703125 193.222656 156.160156 201.019531 C 156.933594 205.21875 154.445312 208.476562 152.046875 211.558594 C 149.386719 214.988281 146.386719 218.242188 143.472656 221.414062 C 138.242188 227.238281 132.152344 232.039062 125.121094 235.464844 C 118.519531 238.808594 111.574219 240.519531 104.117188 240.605469 Z M 50.355469 169.832031 C 50.097656 169.832031 49.839844 169.746094 49.582031 169.746094 C 50.183594 166.578125 50.871094 163.492188 51.46875 160.320312 C 51.984375 157.582031 54.042969 156.296875 56.355469 156.382812 C 61.246094 156.722656 66.476562 156.722656 71.019531 158.351562 C 78.90625 161.179688 86.453125 165.035156 94.167969 168.546875 C 96.140625 169.40625 97.855469 170.777344 99.828125 171.546875 C 100.859375 171.890625 102.914062 171.632812 103.257812 171.03125 C 103.773438 170.089844 103.515625 168.289062 102.828125 167.433594 C 101.628906 165.71875 100.085938 164.09375 98.371094 162.808594 C 86.710938 154.152344 73.847656 148.328125 59.273438 146.957031 C 53.183594 146.355469 47.011719 147.898438 43.839844 153.554688 C 40.324219 159.722656 38.351562 166.664062 40.410156 174.03125 C 41.179688 176.6875 43.238281 177.714844 45.554688 177.800781 C 47.78125 177.972656 49.328125 176.515625 49.753906 174.203125 C 50.011719 172.746094 50.097656 171.289062 50.355469 169.832031 Z M 59.617188 191.683594 C 59.617188 188.769531 57.730469 186.285156 55.5 186.285156 C 53.183594 186.285156 51.640625 188.082031 51.726562 190.652344 C 51.8125 193.394531 53.613281 195.539062 56.015625 195.625 C 58.070312 195.707031 59.617188 193.996094 59.617188 191.683594 Z M 156.761719 252.257812 C 155.734375 248.574219 154.273438 245.488281 154.019531 242.320312 C 153.503906 235.808594 158.132812 230.582031 164.5625 229.808594 C 171.167969 229.039062 176.996094 230.066406 181.625 235.636719 C 187.886719 243.261719 193.117188 251.144531 192.171875 261.683594 C 191.828125 265.109375 190.542969 267.679688 187.972656 269.996094 C 179.742188 277.449219 169.453125 278.304688 159.847656 273.421875 C 151.359375 269.136719 150.929688 261.085938 155.476562 253.542969 C 155.988281 252.859375 156.761719 252.257812 156.761719 252.257812 Z M 173.996094 258.085938 C 171.167969 257.3125 168.507812 256.542969 165.851562 255.859375 C 164.734375 255.601562 162.933594 255.257812 162.59375 255.773438 C 160.878906 258.085938 158.820312 260.484375 158.21875 263.140625 C 157.703125 265.625 160.019531 267.679688 162.507812 268.882812 C 167.820312 271.28125 173.136719 271.539062 178.453125 269.308594 C 185.484375 266.394531 188.316406 260.140625 185.570312 253.457031 C 183.855469 249.429688 181.796875 245.488281 179.3125 241.804688 C 176.566406 237.691406 173.308594 234.265625 167.566406 234.695312 C 164.308594 234.949219 160.105469 236.835938 159.847656 239.578125 C 159.332031 244.035156 158.820312 246.347656 163.964844 248.917969 C 166.707031 250.289062 169.453125 251.746094 172.28125 253.117188 C 173.996094 253.886719 174.679688 255.085938 173.996094 258.085938 Z M 173.996094 258.085938 " fill-opacity="1" fill-rule="nonzero"/></g></svg>