<svg xmlns="http://www.w3.org/2000/svg" xmlns:xlink="http://www.w3.org/1999/xlink" width="500" zoomAndPan="magnify" viewBox="0 0 375 374.999991" height="500" preserveAspectRatio="xMidYMid meet" version="1.0"><path fill="#f0bbd4" d="M 333.082031 92.59375 C 301.902344 11.589844 224.050781 56.1875 197 74.90625 C 191.285156 78.832031 183.78125 78.832031 178.070312 74.90625 C 151.019531 56.1875 73.167969 11.589844 41.984375 92.59375 C 0.136719 201.128906 118.871094 324.59375 158.796875 358.179688 C 164.921875 363.339844 173.941406 363.339844 180.066406 358.179688 C 219.988281 324.59375 374.863281 201.128906 333.082031 92.59375 Z M 333.082031 92.59375 " fill-opacity="1" fill-rule="nonzero"/><path fill="#232253" d="M 141.65625 135.195312 C 141.382812 137.878906 139.867188 139.460938 137.183594 139.460938 C 134.5 139.460938 132.226562 136.710938 132.226562 134.09375 C 132.226562 131.480469 134.152344 129.828125 136.839844 129.828125 C 139.523438 129.828125 141.933594 132.582031 141.65625 135.195312 Z M 160.035156 172.566406 C 160.035156 172.566406 172.976562 183.234375 187.773438 183.992188 C 208.21875 185.023438 216.480469 169.8125 216.480469 169.8125 M 242.773438 135.195312 C 242.496094 137.878906 240.984375 139.460938 238.300781 139.460938 C 235.613281 139.460938 233.34375 136.710938 233.34375 134.09375 C 233.34375 131.480469 235.269531 129.828125 237.953125 129.828125 C 240.640625 129.828125 243.046875 132.582031 242.773438 135.195312 Z M 242.773438 135.195312 " fill-opacity="1" fill-rule="nonzero"/><path fill="#e5333a" d="M 179.445312 156.324219 L 179.445312 139.324219 C 179.445312 131.136719 185.433594 129.828125 188.808594 129.828125 C 192.179688 129.828125 197.207031 131.480469 197.207031 138.359375 L 197.207031 156.324219 Z M 179.445312 156.324219 " fill-opacity="1" fill-rule="nonzero"/><path fill="#232253" d="M 141.65625 135.195312 C 141.382812 137.878906 139.867188 139.460938 137.183594 139.460938 C 134.5 139.460938 132.226562 136.710938 132.226562 134.09375 C 132.226562 131.480469 134.152344 129.828125 136.839844 129.828125 C 139.523438 129.828125 141.933594 132.582031 141.65625 135.195312 Z M 217.441406 170.292969 L 217.925781 169.398438 L 216.136719 168.4375 L 215.652344 169.332031 C 215.652344 169.398438 213.589844 173.046875 209.113281 176.558594 C 203.195312 181.238281 196.035156 183.371094 187.84375 182.957031 C 173.527344 182.269531 160.792969 171.878906 160.722656 171.808594 L 159.898438 171.121094 L 158.589844 172.703125 L 159.414062 173.390625 C 159.964844 173.804688 172.769531 184.335938 187.773438 185.023438 C 188.464844 185.023438 189.082031 185.089844 189.703125 185.089844 C 209.183594 185.089844 217.375 170.5 217.441406 170.292969 Z M 242.773438 135.195312 C 242.496094 137.878906 240.984375 139.460938 238.300781 139.460938 C 235.613281 139.460938 233.34375 136.710938 233.34375 134.09375 C 233.34375 131.480469 235.269531 129.828125 237.953125 129.828125 C 240.640625 129.828125 243.046875 132.582031 242.773438 135.195312 Z M 242.773438 135.195312 " fill-opacity="1" fill-rule="nonzero"/></svg>